<?xml version="1.0" encoding="iso-8859-1"?>
<!-- Generator: Adobe Illustrator 16.0.0, SVG Export Plug-In . SVG Version: 6.00 Build 0)  -->
<!DOCTYPE svg PUBLIC "-//W3C//DTD SVG 1.1//EN" "http://www.w3.org/Graphics/SVG/1.1/DTD/svg11.dtd">
<svg version="1.1" xmlns="http://www.w3.org/2000/svg" xmlns:xlink="http://www.w3.org/1999/xlink" x="0px" y="0px" width="25px"
	 height="25px" viewBox="0 0 25 25" style="enable-background:new 0 0 25 25;" xml:space="preserve">
<g id="&#x56FE;&#x5C42;_2">
</g>
<g id="&#x56FE;&#x5C42;_1">
	<g id="&#x5706;&#x89D2;&#x77E9;&#x5F62;_26">
		<g>
			<polygon style="fill-rule:evenodd;clip-rule:evenodd;fill:#1685C8;" points="13.038,11.961 13.038,6.579 11.962,6.579 
				11.962,11.961 6.579,11.961 6.579,13.039 11.962,13.039 11.962,18.421 13.038,18.421 13.038,13.039 18.421,13.039 18.421,11.961 
							"/>
		</g>
	</g>
	<g id="&#x692D;&#x5706;_28">
		<g>
			<path style="fill-rule:evenodd;clip-rule:evenodd;fill:#1685C8;" d="M12.5,0C5.598,0,0,5.596,0,12.5C0,19.404,5.598,25,12.5,25
				S25,19.404,25,12.5C25,5.596,19.402,0,12.5,0z M12.5,23.75c-6.214,0-11.25-5.037-11.25-11.25S6.286,1.25,12.5,1.25
				S23.75,6.287,23.75,12.5S18.714,23.75,12.5,23.75z"/>
		</g>
	</g>
</g>
</svg>
