<?xml version="1.0" encoding="iso-8859-1"?>
<!-- Generator: Adobe Illustrator 16.0.0, SVG Export Plug-In . SVG Version: 6.00 Build 0)  -->
<!DOCTYPE svg PUBLIC "-//W3C//DTD SVG 1.1//EN" "http://www.w3.org/Graphics/SVG/1.1/DTD/svg11.dtd">
<svg version="1.1" xmlns="http://www.w3.org/2000/svg" xmlns:xlink="http://www.w3.org/1999/xlink" x="0px" y="0px" width="25px"
	 height="25px" viewBox="0 0 25 25" style="enable-background:new 0 0 25 25;" xml:space="preserve">
<g id="&#x56FE;&#x5C42;_2">
</g>
<g id="&#x56FE;&#x5C42;_1">
	<g id="&#x5706;&#x89D2;&#x77E9;&#x5F62;_1">
		<g>
			<path style="fill-rule:evenodd;clip-rule:evenodd;fill:#EFB052;" d="M25,12.896l-3.825-8.451c0-0.729-0.447-1.32-1.001-1.32
				H5.121c-0.556,0-1.003,0.592-1.003,1.32L0,12.896c0,0.188,0.045,0.366,0.124,0.527C0.045,13.586,0,13.764,0,13.953v6.602
				c0,0.729,0.659,1.32,1.471,1.32h22.058c0.812,0,1.471-0.592,1.471-1.32v-6.602c0-0.189-0.045-0.367-0.124-0.529
				C24.955,13.263,25,13.084,25,12.896z M16.765,13.424l-1.47,2.641h-5.59l-1.176-2.641H2.942L6.47,5.766H18.53l3.528,7.658H16.765z
				"/>
		</g>
	</g>
</g>
</svg>
