<?xml version="1.0" encoding="iso-8859-1"?>
<!-- Generator: Adobe Illustrator 16.0.0, SVG Export Plug-In . SVG Version: 6.00 Build 0)  -->
<!DOCTYPE svg PUBLIC "-//W3C//DTD SVG 1.1//EN" "http://www.w3.org/Graphics/SVG/1.1/DTD/svg11.dtd">
<svg version="1.1" xmlns="http://www.w3.org/2000/svg" xmlns:xlink="http://www.w3.org/1999/xlink" x="0px" y="0px" width="25px"
	 height="25px" viewBox="0 0 25 25" style="enable-background:new 0 0 25 25;" xml:space="preserve">
<g id="&#x56FE;&#x5C42;_2">
</g>
<g id="&#x56FE;&#x5C42;_1">
	<g id="Browser">
		<g>
			<path style="fill-rule:evenodd;clip-rule:evenodd;fill:#1685C8;" d="M22.656,1.875H2.344C1.05,1.875,0,2.895,0,4.151v16.697
				c0,1.257,1.05,2.276,2.344,2.276h20.313c1.294,0,2.344-1.02,2.344-2.276V4.151C25,2.895,23.95,1.875,22.656,1.875z M7.031,3.393
				c0.432,0,0.781,0.34,0.781,0.759c0,0.42-0.35,0.76-0.781,0.76S6.25,4.571,6.25,4.151C6.25,3.733,6.6,3.393,7.031,3.393z
				 M4.688,3.393c0.432,0,0.781,0.34,0.781,0.759c0,0.42-0.35,0.76-0.781,0.76s-0.781-0.34-0.781-0.76
				C3.906,3.733,4.256,3.393,4.688,3.393z M2.344,3.393c0.432,0,0.781,0.34,0.781,0.759c0,0.42-0.35,0.76-0.781,0.76
				s-0.781-0.34-0.781-0.76C1.563,3.733,1.912,3.393,2.344,3.393z M23.438,21.606H1.563V6.428h21.875V21.606z M10.938,17.053h-6.25
				v0.76h6.25V17.053z M10.938,12.5h-6.25v0.76h6.25V12.5z M17.578,15.536c1.51,0,2.734-1.189,2.734-2.656
				c0-1.468-1.225-2.656-2.734-2.656s-2.734,1.188-2.734,2.656C14.844,14.347,16.068,15.536,17.578,15.536z M12.5,14.776H4.688v0.76
				H12.5V14.776z M12.5,10.224H4.688v0.758H12.5V10.224z"/>
		</g>
	</g>
</g>
</svg>
