<?xml version="1.0" encoding="iso-8859-1"?>
<!-- Generator: Adobe Illustrator 16.0.0, SVG Export Plug-In . SVG Version: 6.00 Build 0)  -->
<!DOCTYPE svg PUBLIC "-//W3C//DTD SVG 1.1//EN" "http://www.w3.org/Graphics/SVG/1.1/DTD/svg11.dtd">
<svg version="1.1" id="&#x56FE;&#x5C42;_1" xmlns="http://www.w3.org/2000/svg" xmlns:xlink="http://www.w3.org/1999/xlink" x="0px"
	 y="0px" width="22px" height="22px" viewBox="0 0 22 22" style="enable-background:new 0 0 22 22;" xml:space="preserve">
<g id="&#x77E9;&#x5F62;_47">
	<g>
		<path style="fill-rule:evenodd;clip-rule:evenodd;fill:#1685C8;" d="M14.499,5.097c0-1.657-1.342-3-3-3h-1c-1.657,0-3,1.343-3,3
			h-4v8h1v4h13v-4h1v-8H14.499z M10.5,3.097h1c1.105,0,2,0.896,2,2h-5C8.5,3.992,9.395,3.097,10.5,3.097z M16.499,16.097h-11v-3h2v1
			h1v-1h5v1h1v-1h2V16.097z M17.499,12.097h-3v-1h-1v1h-5v-1h-1v1h-3v-6h13V12.097z"/>
	</g>
</g>
</svg>
