<?xml version="1.0" encoding="iso-8859-1"?>
<!-- Generator: Adobe Illustrator 16.0.0, SVG Export Plug-In . SVG Version: 6.00 Build 0)  -->
<!DOCTYPE svg PUBLIC "-//W3C//DTD SVG 1.1//EN" "http://www.w3.org/Graphics/SVG/1.1/DTD/svg11.dtd">
<svg version="1.1" xmlns="http://www.w3.org/2000/svg" xmlns:xlink="http://www.w3.org/1999/xlink" x="0px" y="0px" width="25px"
	 height="22px" viewBox="0 0 25 22" style="enable-background:new 0 0 25 22;" xml:space="preserve">
<g id="&#x56FE;&#x5C42;_2">
</g>
<g id="&#x56FE;&#x5C42;_1">
	<g id="&#x77E9;&#x5F62;_47">
		<g>
			<path style="fill:#1F7EBB;" d="M16.921,5.346c0-2.079-1.684-3.763-3.763-3.763h-1.253c-2.079,0-3.763,1.684-3.763,3.763H3.125
				V15.38h1.254v5.017h16.305V15.38h1.253V5.346H16.921z M11.906,2.838h1.253c1.386,0,2.509,1.124,2.509,2.508H9.397
				C9.397,3.96,10.519,2.838,11.906,2.838z M19.429,19.144H5.633V15.38h2.509v1.254h1.254V15.38h6.271v1.254h1.254V15.38h2.508
				V19.144z M20.685,14.126h-3.764v-1.255h-1.254v1.255H9.396v-1.255H8.142v1.255H4.379V6.601h16.305V14.126z"/>
		</g>
	</g>
</g>
</svg>
