<?xml version="1.0" encoding="iso-8859-1"?>
<!-- Generator: Adobe Illustrator 16.0.0, SVG Export Plug-In . SVG Version: 6.00 Build 0)  -->
<!DOCTYPE svg PUBLIC "-//W3C//DTD SVG 1.1//EN" "http://www.w3.org/Graphics/SVG/1.1/DTD/svg11.dtd">
<svg version="1.1" xmlns="http://www.w3.org/2000/svg" xmlns:xlink="http://www.w3.org/1999/xlink" x="0px" y="0px" width="25px"
	 height="25px" viewBox="0 0 25 25" style="enable-background:new 0 0 25 25;" xml:space="preserve">
<g id="&#x56FE;&#x5C42;_2">
</g>
<g id="&#x56FE;&#x5C42;_1">
	<g id="&#x56FE;&#x5C42;_1_1_">
		<g id="&#x77E9;&#x5F62;_47">
			<g>
				<path style="fill:#2578AF;" d="M18.333,5c0-2.763-2.238-5.001-5-5.001h-1.666c-2.762,0-5,2.238-5,5.001H0v13.333h1.667V25
					h21.667v-6.666H25V5H18.333z M11.669,1.667h1.665c1.841,0,3.333,1.494,3.333,3.333H8.335C8.335,3.158,9.826,1.667,11.669,1.667z
					 M21.667,23.338H3.333v-5.004h3.334V20h1.667v-1.666h8.333V20h1.666v-1.666h3.334V23.338L21.667,23.338z M23.336,16.668h-5.003
					V15h-1.666v1.668H8.333V15H6.667v1.668h-5v-10h21.667v10H23.336z"/>
			</g>
		</g>
	</g>
</g>
</svg>

