<?xml version="1.0" encoding="iso-8859-1"?>
<!-- Generator: Adobe Illustrator 16.0.0, SVG Export Plug-In . SVG Version: 6.00 Build 0)  -->
<!DOCTYPE svg PUBLIC "-//W3C//DTD SVG 1.1//EN" "http://www.w3.org/Graphics/SVG/1.1/DTD/svg11.dtd">
<svg version="1.1" xmlns="http://www.w3.org/2000/svg" xmlns:xlink="http://www.w3.org/1999/xlink" x="0px" y="0px" width="25px"
	 height="25px" viewBox="0 0 25 25" style="enable-background:new 0 0 25 25;" xml:space="preserve">
<g id="&#x56FE;&#x5C42;_2">
</g>
<g id="&#x56FE;&#x5C42;_1">
	<g id="BELL">
		<g>
			<path style="fill-rule:evenodd;clip-rule:evenodd;fill:#1685C8;" d="M12.5,25c1.44,0,2.608-1.221,2.608-2.727H9.892
				C9.892,23.779,11.06,25,12.5,25z M21.196,18.183c-0.72,0-1.305-0.612-1.305-1.365v-9.09c0-3.514-2.726-6.364-6.088-6.364
				C13.804,0.61,13.221,0,12.5,0s-1.304,0.61-1.304,1.363c-3.362,0-6.088,2.85-6.088,6.364v9.09c0,0.753-0.585,1.365-1.305,1.365
				S2.5,18.793,2.5,19.546s0.584,1.363,1.304,1.363h17.393c0.72,0,1.304-0.61,1.304-1.363S21.916,18.183,21.196,18.183z"/>
		</g>
	</g>
</g>
</svg>
