<?xml version="1.0" encoding="iso-8859-1"?>
<!-- Generator: Adobe Illustrator 16.0.0, SVG Export Plug-In . SVG Version: 6.00 Build 0)  -->
<!DOCTYPE svg PUBLIC "-//W3C//DTD SVG 1.1//EN" "http://www.w3.org/Graphics/SVG/1.1/DTD/svg11.dtd">
<svg version="1.1" xmlns="http://www.w3.org/2000/svg" xmlns:xlink="http://www.w3.org/1999/xlink" x="0px" y="0px" width="25px"
	 height="25px" viewBox="0 0 25 25" style="enable-background:new 0 0 25 25;" xml:space="preserve">
<g id="&#x56FE;&#x5C42;_2">
</g>
<g id="&#x56FE;&#x5C42;_1">
	<g id="CALENDAR">
		<g>
			<path style="fill-rule:evenodd;clip-rule:evenodd;fill:#1685C8;" d="M16.198,17.893c-0.105,0.127-0.234,0.229-0.386,0.305
				c-0.152,0.078-0.323,0.117-0.514,0.117c-0.324,0-0.593-0.096-0.802-0.289c-0.211-0.193-0.332-0.453-0.365-0.777h-1.443
				c0.007,0.373,0.084,0.699,0.229,0.98c0.145,0.281,0.34,0.516,0.584,0.705c0.243,0.19,0.522,0.33,0.838,0.422
				c0.313,0.092,0.646,0.137,0.989,0.137c0.36,0.007,0.697-0.053,1.016-0.177c0.318-0.126,0.599-0.304,0.838-0.533
				c0.241-0.229,0.432-0.503,0.574-0.817s0.213-0.655,0.213-1.021c0-0.332-0.049-0.645-0.147-0.939
				c-0.098-0.294-0.239-0.55-0.427-0.768c-0.185-0.215-0.414-0.389-0.685-0.518c-0.271-0.128-0.582-0.192-0.935-0.192
				c-0.285,0-0.538,0.042-0.762,0.128c-0.224,0.084-0.433,0.225-0.63,0.421l-0.021-0.021l0.284-1.615h2.935v-1.188h-3.971l-0.7,3.93
				h1.3c0.144-0.195,0.295-0.34,0.457-0.432c0.163-0.092,0.373-0.137,0.63-0.137c0.196,0,0.37,0.033,0.519,0.102
				c0.149,0.068,0.278,0.162,0.386,0.284c0.108,0.122,0.19,0.265,0.244,0.427c0.054,0.163,0.08,0.335,0.08,0.518
				c0,0.176-0.028,0.348-0.085,0.513C16.383,17.623,16.304,17.768,16.198,17.893z M6.25,5.469c0.647,0,1.172-0.524,1.172-1.172
				V1.172C7.422,0.524,6.897,0,6.25,0S5.078,0.524,5.078,1.172v3.125C5.078,4.944,5.603,5.469,6.25,5.469z M18.75,5.469
				c0.647,0,1.172-0.524,1.172-1.172V1.172C19.922,0.524,19.397,0,18.75,0s-1.172,0.524-1.172,1.172v3.125
				C17.578,4.944,18.103,5.469,18.75,5.469z M23.828,3.125h-2.344v1.172c0,1.51-1.225,2.734-2.734,2.734
				c-1.511,0-2.734-1.225-2.734-2.734V3.125H8.984v1.172c0,1.51-1.225,2.734-2.734,2.734c-1.511,0-2.734-1.225-2.734-2.734V3.125
				H1.172C0.524,3.125,0,3.649,0,4.297v19.531C0,24.476,0.524,25,1.172,25h22.656C24.476,25,25,24.476,25,23.828V4.297
				C25,3.649,24.476,3.125,23.828,3.125z M22.656,22.656H2.344V9.375h20.313V22.656z M10.298,15.48
				c-0.146,0.136-0.308,0.26-0.483,0.372s-0.342,0.221-0.497,0.329c-0.305,0.211-0.595,0.416-0.869,0.621
				c-0.273,0.202-0.513,0.424-0.716,0.664c-0.202,0.24-0.364,0.512-0.482,0.818c-0.118,0.305-0.178,0.662-0.178,1.075h5.22v-1.239
				H8.931c0.177-0.244,0.38-0.457,0.608-0.639c0.231-0.184,0.468-0.354,0.712-0.514c0.244-0.159,0.486-0.32,0.727-0.481
				c0.24-0.163,0.456-0.345,0.645-0.544c0.189-0.2,0.342-0.429,0.458-0.686c0.114-0.258,0.172-0.566,0.172-0.924
				c0-0.346-0.065-0.656-0.198-0.935c-0.132-0.277-0.31-0.511-0.533-0.702c-0.224-0.189-0.482-0.334-0.775-0.437
				c-0.296-0.102-0.605-0.152-0.931-0.152c-0.427,0-0.805,0.073-1.132,0.218c-0.329,0.146-0.602,0.349-0.818,0.609
				c-0.216,0.261-0.378,0.565-0.487,0.914c-0.108,0.35-0.155,0.728-0.143,1.134h1.383c0-0.191,0.018-0.383,0.055-0.574
				c0.037-0.193,0.1-0.369,0.188-0.529c0.089-0.158,0.205-0.287,0.352-0.385c0.145-0.099,0.323-0.147,0.533-0.147
				c0.311,0,0.566,0.096,0.767,0.289c0.199,0.194,0.298,0.463,0.298,0.809c0,0.216-0.049,0.41-0.146,0.578
				C10.564,15.193,10.442,15.346,10.298,15.48z"/>
		</g>
	</g>
</g>
</svg>
