<?xml version="1.0" encoding="iso-8859-1"?>
<!-- Generator: Adobe Illustrator 16.0.0, SVG Export Plug-In . SVG Version: 6.00 Build 0)  -->
<!DOCTYPE svg PUBLIC "-//W3C//DTD SVG 1.1//EN" "http://www.w3.org/Graphics/SVG/1.1/DTD/svg11.dtd">
<svg version="1.1" xmlns="http://www.w3.org/2000/svg" xmlns:xlink="http://www.w3.org/1999/xlink" x="0px" y="0px" width="25px"
	 height="25px" viewBox="0 0 25 25" style="enable-background:new 0 0 25 25;" xml:space="preserve">
<g id="&#x56FE;&#x5C42;_2">
</g>
<g id="&#x56FE;&#x5C42;_1">
	<g id="Shape_76_&#x62F7;&#x8D1D;_3">
		<g>
			<path style="fill-rule:evenodd;clip-rule:evenodd;fill:#1584C8;" d="M9.328,18.578c-1.041-0.856-2.243-2.007-3.284-3.306
				c-0.73-0.909-1.376-1.865-0.71-2.537L0.655,8.031c-0.684,0.857-2.196,4.939,4.284,11.622c6.827,7.043,11.231,5.536,11.99,4.742
				L12.365,19.8C11.726,20.441,10.906,19.871,9.328,18.578z M18.576,21.722c0,0-3.561-3.579-3.563-3.58
				c-0.282-0.284-0.733-0.278-1.014,0.001l-1.291,1.302l4.576,4.607c0,0,1.293-1.298,1.291-1.299l0.003-0.003
				c0.296-0.298,0.267-0.752-0.003-1.024V21.722z M6.979,11.083v-0.003c0.296-0.299,0.269-0.751,0-1.023v-0.004
				c0,0-3.664-3.682-3.665-3.683C3.031,6.083,2.581,6.09,2.302,6.37L1.011,7.672l4.677,4.709
				C5.688,12.381,6.979,11.084,6.979,11.083z M13.06,14.328l2.53-0.251c-0.236-2.471-2.184-4.439-4.632-4.677l-0.249,2.555
				C11.789,12.375,12.645,13.237,13.06,14.328z M11.863-0.1l-0.227,2.353c5.846,0.551,10.489,5.238,11.031,11.14L25,13.164
				C24.357,6.137,18.821,0.544,11.863-0.1z M11.446,4.567L11.218,6.92c3.598,0.397,6.435,3.314,6.749,6.973l2.334-0.23
				C19.882,8.882,16.155,5.067,11.446,4.567z"/>
		</g>
	</g>
</g>
</svg>
