<?xml version="1.0" encoding="iso-8859-1"?>
<!-- Generator: Adobe Illustrator 16.0.0, SVG Export Plug-In . SVG Version: 6.00 Build 0)  -->
<!DOCTYPE svg PUBLIC "-//W3C//DTD SVG 1.1//EN" "http://www.w3.org/Graphics/SVG/1.1/DTD/svg11.dtd">
<svg version="1.1" xmlns="http://www.w3.org/2000/svg" xmlns:xlink="http://www.w3.org/1999/xlink" x="0px" y="0px" width="25px"
	 height="25px" viewBox="0 0 25 25" style="enable-background:new 0 0 25 25;" xml:space="preserve">
<g id="&#x56FE;&#x5C42;_2">
</g>
<g id="&#x56FE;&#x5C42;_1">
	<g id="Shape_76_&#x62F7;&#x8D1D;_4">
		<g>
			<path style="fill-rule:evenodd;clip-rule:evenodd;fill:#1584C8;" d="M10.233,18.281c-1.072-0.882-2.311-2.067-3.383-3.405
				c-0.752-0.937-1.418-1.921-0.729-2.613L1.298,7.416c-0.703,0.883-2.259,5.088,4.416,11.972c7.032,7.256,11.568,5.703,12.35,4.886
				l-4.702-4.733C12.705,20.2,11.858,19.613,10.233,18.281z M19.761,21.52c0,0-3.669-3.687-3.671-3.688
				c-0.29-0.292-0.755-0.286-1.043,0.002l-1.33,1.341l4.714,4.746c0,0,1.33-1.337,1.33-1.338l0.003-0.004
				c0.305-0.306,0.273-0.774-0.003-1.055V21.52z M7.814,10.56v-0.003c0.306-0.309,0.276-0.774,0-1.054V9.498
				c0,0-3.773-3.792-3.775-3.793C3.748,5.411,3.282,5.417,2.994,5.706L1.665,7.047l4.819,4.851
				C6.484,11.897,7.814,10.562,7.814,10.56z M23.914,0.467c-0.329-0.333-0.768-0.488-1.199-0.465l-7.063,0.376
				c-0.375,0.02-0.745,0.174-1.031,0.463c-0.616,0.622-0.616,1.63,0,2.252c0.328,0.333,0.767,0.487,1.198,0.463v0.001l2.958-0.157
				l-6.76,6.824c-0.616,0.622-0.616,1.629,0,2.252c0.616,0.622,1.615,0.622,2.23,0l6.76-6.826L20.851,8.64
				c-0.021,0.436,0.131,0.877,0.461,1.21c0.616,0.622,1.615,0.622,2.23,0c0.287-0.289,0.439-0.663,0.459-1.042l0.372-7.132
				C24.396,1.242,24.242,0.799,23.914,0.467z"/>
		</g>
	</g>
</g>
</svg>
