<?xml version="1.0" encoding="iso-8859-1"?>
<!-- Generator: Adobe Illustrator 16.0.0, SVG Export Plug-In . SVG Version: 6.00 Build 0)  -->
<!DOCTYPE svg PUBLIC "-//W3C//DTD SVG 1.1//EN" "http://www.w3.org/Graphics/SVG/1.1/DTD/svg11.dtd">
<svg version="1.1" xmlns="http://www.w3.org/2000/svg" xmlns:xlink="http://www.w3.org/1999/xlink" x="0px" y="0px" width="25px"
	 height="22px" viewBox="0 0 25 22" style="enable-background:new 0 0 25 22;" xml:space="preserve">
<g id="&#x56FE;&#x5C42;_2">
</g>
<g id="&#x56FE;&#x5C42;_1">
	<g id="BAR_GRAPH">
		<g>
			<path style="fill:#2C8AC3;" d="M12.155,17.251h2.069c0.571,0,1.034-0.468,1.034-1.045V4.716c0-0.577-0.463-1.044-1.034-1.044
				h-2.069c-0.571,0-1.034,0.468-1.034,1.044v11.49C11.121,16.783,11.584,17.251,12.155,17.251z M18.017,17.251h2.068
				c0.572,0,1.034-0.468,1.034-1.045V8.895c0-0.578-0.462-1.045-1.034-1.045h-2.068c-0.57,0-1.034,0.468-1.034,1.045v7.311
				C16.982,16.783,17.446,17.251,18.017,17.251z M22.5,18.294H3.536V2.627c0-0.577-0.463-1.043-1.034-1.043S1.468,2.05,1.468,2.627
				v16.714c0,0.576,0.463,1.044,1.034,1.044h19.997c0.571,0,1.034-0.468,1.034-1.045C23.532,18.762,23.071,18.294,22.5,18.294z
				 M6.295,17.251h2.069c0.571,0,1.033-0.468,1.033-1.045v-2.088c0-0.578-0.462-1.045-1.033-1.045H6.295
				c-0.572,0-1.035,0.467-1.035,1.045v2.088C5.26,16.783,5.723,17.251,6.295,17.251z"/>
		</g>
	</g>
</g>
</svg>
