<?xml version="1.0" encoding="iso-8859-1"?>
<!-- Generator: Adobe Illustrator 16.0.0, SVG Export Plug-In . SVG Version: 6.00 Build 0)  -->
<!DOCTYPE svg PUBLIC "-//W3C//DTD SVG 1.1//EN" "http://www.w3.org/Graphics/SVG/1.1/DTD/svg11.dtd">
<svg version="1.1" xmlns="http://www.w3.org/2000/svg" xmlns:xlink="http://www.w3.org/1999/xlink" x="0px" y="0px" width="25px"
	 height="25px" viewBox="0 0 25 25" style="enable-background:new 0 0 25 25;" xml:space="preserve">
<g id="&#x56FE;&#x5C42;_2">
</g>
<g id="&#x56FE;&#x5C42;_1">
	<g id="&#x56FE;&#x5C42;_1_1_">
		<g id="BAR_GRAPH">
			<g>
				<path style="fill:#2F83B7;" d="M12.107,19.601h2.346c0.646,0,1.171-0.53,1.171-1.185V5.398c0-0.654-0.524-1.184-1.171-1.184
					h-2.346c-0.646,0-1.17,0.531-1.17,1.184v13.018C10.938,19.07,11.461,19.601,12.107,19.601z M18.751,19.601h2.342
					c0.648,0,1.172-0.53,1.172-1.185v-8.283c0-0.654-0.523-1.184-1.172-1.184h-2.342c-0.646,0-1.174,0.529-1.174,1.184v8.283
					C17.577,19.07,18.103,19.601,18.751,19.601z M23.829,20.782H2.343V3.031c0-0.653-0.524-1.182-1.172-1.182
					C0.524,1.85,0,2.378,0,3.031v18.938c0,0.652,0.524,1.182,1.171,1.182h22.657c0.647,0,1.172-0.529,1.172-1.184
					C24.999,21.312,24.476,20.782,23.829,20.782z M5.469,19.601h2.345c0.646,0,1.17-0.53,1.17-1.185v-2.365
					c0-0.655-0.523-1.184-1.17-1.184H5.469c-0.647,0-1.173,0.528-1.173,1.184v2.365C4.296,19.07,4.821,19.601,5.469,19.601z"/>
			</g>
		</g>
	</g>
</g>
</svg>
