<?xml version="1.0" encoding="iso-8859-1"?>
<!-- Generator: Adobe Illustrator 16.0.0, SVG Export Plug-In . SVG Version: 6.00 Build 0)  -->
<!DOCTYPE svg PUBLIC "-//W3C//DTD SVG 1.1//EN" "http://www.w3.org/Graphics/SVG/1.1/DTD/svg11.dtd">
<svg version="1.1" id="&#x56FE;&#x5C42;_1" xmlns="http://www.w3.org/2000/svg" xmlns:xlink="http://www.w3.org/1999/xlink" x="0px"
	 y="0px" width="22px" height="22px" viewBox="0 0 22 22" style="enable-background:new 0 0 22 22;" xml:space="preserve">
<g id="BAR_GRAPH">
	<g>
		<path style="fill-rule:evenodd;clip-rule:evenodd;fill:#2393D2;" d="M10.325,16.266h1.806c0.498,0,0.902-0.408,0.902-0.912V5.328
			c0-0.503-0.404-0.911-0.902-0.911h-1.806c-0.498,0-0.902,0.408-0.902,0.911v10.026C9.423,15.858,9.827,16.266,10.325,16.266z
			 M15.439,16.266h1.805c0.499,0,0.902-0.408,0.902-0.912V8.975c0-0.504-0.403-0.912-0.902-0.912h-1.805
			c-0.498,0-0.902,0.408-0.902,0.912v6.379C14.537,15.858,14.941,16.266,15.439,16.266z M19.351,17.176H2.805V3.506
			c0-0.504-0.404-0.911-0.902-0.911S1,3.002,1,3.506v14.583C1,18.592,1.404,19,1.902,19h17.448c0.498,0,0.902-0.408,0.902-0.912
			S19.849,17.176,19.351,17.176z M5.212,16.266h1.805c0.498,0,0.902-0.408,0.902-0.912v-1.822c0-0.504-0.404-0.912-0.902-0.912
			H5.212c-0.499,0-0.903,0.408-0.903,0.912v1.822C4.309,15.858,4.713,16.266,5.212,16.266z"/>
	</g>
</g>
</svg>
