<?xml version="1.0" encoding="iso-8859-1"?>
<!-- Generator: Adobe Illustrator 16.0.0, SVG Export Plug-In . SVG Version: 6.00 Build 0)  -->
<!DOCTYPE svg PUBLIC "-//W3C//DTD SVG 1.1//EN" "http://www.w3.org/Graphics/SVG/1.1/DTD/svg11.dtd">
<svg version="1.1" id="&#x56FE;&#x5C42;_1" xmlns="http://www.w3.org/2000/svg" xmlns:xlink="http://www.w3.org/1999/xlink" x="0px"
	 y="0px" width="22px" height="22px" viewBox="0 0 22 22" style="enable-background:new 0 0 22 22;" xml:space="preserve">
<g id="speech_bubble_2">
	<g>
		<path style="fill-rule:evenodd;clip-rule:evenodd;fill:#2393D2;" d="M15.64,9.256c0-3.178-3.382-5.754-7.555-5.754
			c-4.172,0-7.554,2.576-7.554,5.754c0,1.909,1.221,3.602,3.102,4.649C3.628,13.92,2.135,16.7,2.135,16.7s4.559-1.777,4.571-1.787
			c0.447,0.064,0.908,0.098,1.379,0.098C12.258,15.01,15.64,12.434,15.64,9.256z M21.203,11.054c0-3.178-3.185-5.731-6.632-5.754
			c4.941,5.038-0.879,10.406-5.622,10.406c0,0,0.527,1.102,4.699,1.102c0.472,0,0.933-0.033,1.38-0.096
			c0.013,0.008,4.571,1.787,4.571,1.787s-1.493-2.779-1.498-2.797C19.981,14.655,21.203,12.963,21.203,11.054z"/>
	</g>
</g>
</svg>
