<?xml version="1.0" encoding="iso-8859-1"?>
<!-- Generator: Adobe Illustrator 16.0.0, SVG Export Plug-In . SVG Version: 6.00 Build 0)  -->
<!DOCTYPE svg PUBLIC "-//W3C//DTD SVG 1.1//EN" "http://www.w3.org/Graphics/SVG/1.1/DTD/svg11.dtd">
<svg version="1.1" xmlns="http://www.w3.org/2000/svg" xmlns:xlink="http://www.w3.org/1999/xlink" x="0px" y="0px" width="30px"
	 height="22px" viewBox="0 0 30 22" style="enable-background:new 0 0 30 22;" xml:space="preserve">
<g id="&#x56FE;&#x5C42;_2">
</g>
<g id="&#x56FE;&#x5C42;_1">
	<g id="speech_bubble_2">
		<g>
			<path style="fill:#2C8AC3;" d="M21,8.816c0-3.994-4.252-7.232-9.497-7.232c-5.244,0-9.495,3.238-9.495,7.232
				c0,2.4,1.534,4.527,3.898,5.843C5.9,14.68,4.023,18.173,4.023,18.173s5.73-2.234,5.746-2.246
				c0.562,0.081,1.142,0.123,1.733,0.123C16.748,16.05,21,12.811,21,8.816z M27.992,11.077c0-3.995-4.004-7.204-8.337-7.233
				c6.211,6.333-1.105,13.08-7.066,13.08c0,0,0.662,1.388,5.907,1.388c0.593,0,1.172-0.042,1.733-0.123
				c0.017,0.013,5.747,2.246,5.747,2.246s-1.878-3.49-1.883-3.516C26.455,15.603,27.992,13.476,27.992,11.077z"/>
		</g>
	</g>
</g>
</svg>
