<?xml version="1.0" encoding="iso-8859-1"?>
<!-- Generator: Adobe Illustrator 16.0.0, SVG Export Plug-In . SVG Version: 6.00 Build 0)  -->
<!DOCTYPE svg PUBLIC "-//W3C//DTD SVG 1.1//EN" "http://www.w3.org/Graphics/SVG/1.1/DTD/svg11.dtd">
<svg version="1.1" xmlns="http://www.w3.org/2000/svg" xmlns:xlink="http://www.w3.org/1999/xlink" x="0px" y="0px" width="25px"
	 height="25px" viewBox="0 0 25 25" style="enable-background:new 0 0 25 25;" xml:space="preserve">
<g id="&#x56FE;&#x5C42;_2">
</g>
<g id="&#x56FE;&#x5C42;_1">
	<g id="&#x56FE;&#x5C42;_1_1_">
		<g id="speech_bubble_2">
			<g>
				<path style="fill:#2F83B7;" d="M18.272,10.39c0-3.843-4.091-6.958-9.137-6.958C4.09,3.432,0,6.547,0,10.39
					c0,2.309,1.476,4.354,3.751,5.621c-0.006,0.021-1.812,3.381-1.812,3.381s5.513-2.148,5.528-2.161
					c0.541,0.078,1.099,0.118,1.667,0.118C14.182,17.349,18.272,14.232,18.272,10.39z M25,12.565c0-3.844-3.853-6.932-8.022-6.96
					c5.977,6.094-1.063,12.585-6.797,12.585c0,0,0.637,1.336,5.683,1.336c0.57,0,1.128-0.042,1.667-0.119
					c0.017,0.013,5.53,2.161,5.53,2.161s-1.808-3.357-1.813-3.383C23.521,16.92,25,14.873,25,12.565z"/>
			</g>
		</g>
	</g>
</g>
</svg>

