<?xml version="1.0" encoding="iso-8859-1"?>
<!-- Generator: Adobe Illustrator 16.0.0, SVG Export Plug-In . SVG Version: 6.00 Build 0)  -->
<!DOCTYPE svg PUBLIC "-//W3C//DTD SVG 1.1//EN" "http://www.w3.org/Graphics/SVG/1.1/DTD/svg11.dtd">
<svg version="1.1" xmlns="http://www.w3.org/2000/svg" xmlns:xlink="http://www.w3.org/1999/xlink" x="0px" y="0px" width="25px"
	 height="25px" viewBox="0 0 25 25" style="enable-background:new 0 0 25 25;" xml:space="preserve">
<g id="&#x56FE;&#x5C42;_2">
</g>
<g id="&#x56FE;&#x5C42;_1">
	<g id="&#x56FE;&#x5C42;_1_2_">
		<g id="&#x56FE;&#x5C42;_1_1_">
			<g id="&#x5706;&#x89D2;&#x77E9;&#x5F62;_21">
				<g>
					<path style="fill:#2873A5;" d="M18.749,0.001H6.25C2.798,0.001,0,2.799,0,6.251v5h1.377c0,0-0.127-0.822-0.127-1.25v-3.75
						C1.444,2.484,5.103,1.016,6.251,1.25h12.5c2.241,0.273,4.882,2.446,5,5.001v3.75c0,0.428-0.044,0.846-0.129,1.25H25v-5
						C25,2.799,22.2,0.001,18.749,0.001z M18.749,15.002c-1.078,0-2.069,0.35-2.889,0.926l-2.324-2.324l7.709-7.709l-0.894-0.892
						l-7.71,7.71L4.997,5.063L4.114,5.948l7.647,7.649l-2.466,2.465c-0.846-0.654-1.894-1.061-3.047-1.061c-2.76,0-5,2.234-5,4.996
						c0,2.764,2.239,5,5,5c2.762,0,4.999-2.236,4.999-5c0-1.152-0.406-2.199-1.061-3.047l2.466-2.465l2.296,2.297
						c-0.74,0.869-1.203,1.984-1.203,3.215c0,2.764,2.243,5,5,5c2.762,0,5-2.236,5-5C23.746,17.236,21.511,15.002,18.749,15.002z
						 M6.247,23.75c-2.069,0-3.749-1.678-3.749-3.75c0-2.068,1.68-3.75,3.749-3.75c2.071,0,3.751,1.68,3.751,3.75
						C9.998,22.072,8.318,23.75,6.247,23.75z M18.749,23.75c-2.071,0-3.751-1.678-3.751-3.75c0-2.068,1.68-3.75,3.751-3.75
						c2.067,0,3.75,1.68,3.75,3.75C22.499,22.072,20.819,23.75,18.749,23.75z"/>
				</g>
			</g>
		</g>
	</g>
</g>
</svg>
