<?xml version="1.0" encoding="iso-8859-1"?>
<!-- Generator: Adobe Illustrator 16.0.0, SVG Export Plug-In . SVG Version: 6.00 Build 0)  -->
<!DOCTYPE svg PUBLIC "-//W3C//DTD SVG 1.1//EN" "http://www.w3.org/Graphics/SVG/1.1/DTD/svg11.dtd">
<svg version="1.1" xmlns="http://www.w3.org/2000/svg" xmlns:xlink="http://www.w3.org/1999/xlink" x="0px" y="0px" width="30px"
	 height="22px" viewBox="0 0 30 22" style="enable-background:new 0 0 30 22;" xml:space="preserve">
<g id="&#x56FE;&#x5C42;_2">
</g>
<g id="&#x56FE;&#x5C42;_1">
	<g id="&#x56FE;&#x5C42;_1_1_">
		<g id="&#x5706;&#x89D2;&#x77E9;&#x5F62;_21">
			<g>
				<path style="fill:#2578AF;" d="M19.729,1.542h-9.458c-2.612,0-4.729,2.117-4.729,4.729v3.783h1.042c0,0-0.096-0.621-0.096-0.945
					V6.271c0.147-2.85,2.915-3.961,3.784-3.784h9.459c1.695,0.207,3.693,1.851,3.783,3.784v2.838c0,0.324-0.033,0.64-0.098,0.945
					h1.043V6.271C24.459,3.659,22.34,1.542,19.729,1.542z M19.729,12.893c-0.816,0-1.566,0.264-2.186,0.7l-1.759-1.758l5.833-5.834
					l-0.676-0.675l-5.833,5.834L9.323,5.372l-0.668,0.67l5.787,5.788l-1.866,1.865c-0.64-0.495-1.433-0.803-2.306-0.803
					c-2.088,0-3.783,1.692-3.783,3.782c0,2.089,1.694,3.783,3.783,3.783c2.09,0,3.783-1.694,3.783-3.783
					c0-0.872-0.308-1.665-0.803-2.306l1.866-1.866l1.738,1.738c-0.561,0.659-0.911,1.502-0.911,2.434
					c0,2.089,1.698,3.783,3.784,3.783c2.09,0,3.783-1.694,3.783-3.783C23.51,14.584,21.818,12.893,19.729,12.893z M10.269,19.512
					c-1.566,0-2.837-1.269-2.837-2.837c0-1.565,1.271-2.838,2.837-2.838c1.567,0,2.838,1.271,2.838,2.838
					C13.107,18.243,11.836,19.512,10.269,19.512z M19.729,19.512c-1.568,0-2.838-1.269-2.838-2.837c0-1.565,1.27-2.838,2.838-2.838
					c1.564,0,2.838,1.271,2.838,2.838C22.566,18.243,21.295,19.512,19.729,19.512z"/>
			</g>
		</g>
	</g>
</g>
</svg>
