<?xml version="1.0" encoding="iso-8859-1"?>
<!-- Generator: Adobe Illustrator 16.0.0, SVG Export Plug-In . SVG Version: 6.00 Build 0)  -->
<!DOCTYPE svg PUBLIC "-//W3C//DTD SVG 1.1//EN" "http://www.w3.org/Graphics/SVG/1.1/DTD/svg11.dtd">
<svg version="1.1" id="&#x56FE;&#x5C42;_1" xmlns="http://www.w3.org/2000/svg" xmlns:xlink="http://www.w3.org/1999/xlink" x="0px"
	 y="0px" width="22px" height="22px" viewBox="0 0 22 22" style="enable-background:new 0 0 22 22;" xml:space="preserve">
<g id="&#x5706;&#x89D2;&#x77E9;&#x5F62;_21">
	<g>
		<path style="fill-rule:evenodd;clip-rule:evenodd;fill:#1685C8;" d="M16.019,0.972h-10c-2.762,0-5,2.238-5,5v4h1.101
			c0,0-0.101-0.657-0.101-1v-3c0.156-3.012,3.082-4.188,4-4h10c1.793,0.219,3.906,1.957,4,4v3c0,0.343-0.035,0.677-0.102,1h1.102v-4
			C21.019,3.21,18.78,0.972,16.019,0.972z M16.019,12.971c-0.863,0-1.656,0.279-2.309,0.742l-1.86-1.859l6.168-6.168l-0.715-0.714
			l-6.167,6.168L5.018,5.021L4.311,5.729l6.118,6.118l-1.973,1.974c-0.677-0.523-1.516-0.85-2.438-0.85c-2.209,0-4,1.791-4,4
			s1.791,4,4,4s4-1.791,4-4c0-0.922-0.325-1.76-0.849-2.438l1.973-1.973l1.837,1.838c-0.591,0.697-0.961,1.588-0.961,2.572
			c0,2.209,1.792,4,4,4s4-1.791,4-4S18.228,12.971,16.019,12.971z M6.018,19.971c-1.657,0-3-1.342-3-3c0-1.656,1.343-3,3-3
			s3,1.344,3,3C9.018,18.629,7.675,19.971,6.018,19.971z M16.019,19.971c-1.658,0-3-1.342-3-3c0-1.656,1.342-3,3-3
			c1.656,0,3,1.344,3,3C19.019,18.629,17.675,19.971,16.019,19.971z"/>
	</g>
</g>
</svg>
