<?xml version="1.0" encoding="iso-8859-1"?>
<!-- Generator: Adobe Illustrator 16.0.0, SVG Export Plug-In . SVG Version: 6.00 Build 0)  -->
<!DOCTYPE svg PUBLIC "-//W3C//DTD SVG 1.1//EN" "http://www.w3.org/Graphics/SVG/1.1/DTD/svg11.dtd">
<svg version="1.1" xmlns="http://www.w3.org/2000/svg" xmlns:xlink="http://www.w3.org/1999/xlink" x="0px" y="0px" width="25px"
	 height="25px" viewBox="0 0 25 25" style="enable-background:new 0 0 25 25;" xml:space="preserve">
<g id="&#x56FE;&#x5C42;_2">
</g>
<g id="&#x56FE;&#x5C42;_1">
	<g id="&#x5706;&#x89D2;&#x77E9;&#x5F62;_29">
		<g>
			<path style="fill-rule:evenodd;clip-rule:evenodd;fill:#1685C8;" d="M25,4.167h-6.944V0H6.944v4.167H0v1.389h4.552
				c-0.238,0.41-0.385,0.88-0.385,1.389v15.278C4.167,23.756,5.41,25,6.944,25h11.111c1.534,0,2.777-1.244,2.777-2.777V6.944
				c0-0.508-0.146-0.979-0.385-1.389H25V4.167z M8.333,1.389h8.334v2.778H8.333V1.389z M19.444,22.223
				c0,0.768-0.621,1.389-1.389,1.389H6.944c-0.768,0-1.389-0.621-1.389-1.389V6.944c0-0.768,0.621-1.389,1.389-1.389h11.111
				c0.768,0,1.389,0.621,1.389,1.389V22.223z M9.723,22.223h1.389V6.944H9.723V22.223z M13.889,22.223h1.389V6.944h-1.389V22.223z"
				/>
		</g>
	</g>
</g>
</svg>
