<?xml version="1.0" encoding="iso-8859-1"?>
<!-- Generator: Adobe Illustrator 16.0.0, SVG Export Plug-In . SVG Version: 6.00 Build 0)  -->
<!DOCTYPE svg PUBLIC "-//W3C//DTD SVG 1.1//EN" "http://www.w3.org/Graphics/SVG/1.1/DTD/svg11.dtd">
<svg version="1.1" xmlns="http://www.w3.org/2000/svg" xmlns:xlink="http://www.w3.org/1999/xlink" x="0px" y="0px" width="25px"
	 height="25px" viewBox="0 0 25 25" style="enable-background:new 0 0 25 25;" xml:space="preserve">
<g id="&#x56FE;&#x5C42;_2">
</g>
<g id="&#x56FE;&#x5C42;_1">
	<g id="&#x56FE;&#x5C42;_1_1_">
		<g id="&#x5706;&#x89D2;&#x77E9;&#x5F62;_20_&#x62F7;&#x8D1D;">
			<g>
				<path style="fill:#2578AF;" d="M21.667,0H3.333C1.494,0,0,1.494,0,3.333v18.334C0,23.505,1.495,25,3.333,25h18.333
					C23.505,25,25,23.505,25,21.667V3.333C25,1.494,23.505,0,21.667,0z M23.334,20c0,1.839-1.495,3.334-3.336,3.334H5
					c-1.839,0-3.333-1.495-3.333-3.334V5c0-1.841,1.495-3.333,3.333-3.333h15.001c1.838,0,3.333,1.494,3.333,3.333V20L23.334,20z"/>
			</g>
		</g>
		<g id="&#x77E9;&#x5F62;_46">
			<g>
				<path style="fill:#2578AF;" d="M15.001,6.667H6.666v1.667h8.333V6.667H15.001z M6.666,10v1.667h11.666V10H6.666z M6.666,15.001
					h11.666v-1.667H6.666V15.001z M6.666,18.333h11.666v-1.666H6.666V18.333z"/>
			</g>
		</g>
	</g>
</g>
</svg>

