<?xml version="1.0" encoding="iso-8859-1"?>
<!-- Generator: Adobe Illustrator 16.0.0, SVG Export Plug-In . SVG Version: 6.00 Build 0)  -->
<!DOCTYPE svg PUBLIC "-//W3C//DTD SVG 1.1//EN" "http://www.w3.org/Graphics/SVG/1.1/DTD/svg11.dtd">
<svg version="1.1" id="&#x56FE;&#x5C42;_1" xmlns="http://www.w3.org/2000/svg" xmlns:xlink="http://www.w3.org/1999/xlink" x="0px"
	 y="0px" width="22px" height="22px" viewBox="0 0 22 22" style="enable-background:new 0 0 22 22;" xml:space="preserve">
<g id="&#x5706;&#x89D2;&#x77E9;&#x5F62;_20_&#x62F7;&#x8D1D;">
	<g>
		<path style="fill-rule:evenodd;clip-rule:evenodd;fill:#1685C8;" d="M15,4H4C2.896,4,2,4.896,2,6v11c0,1.104,0.896,2,2,2h11
			c1.104,0,2-0.896,2-2V6C17,4.896,16.104,4,15,4z M16,16c0,1.104-0.896,2-2,2H5c-1.104,0-2-0.896-2-2V7c0-1.104,0.896-2,2-2h9
			c1.104,0,2,0.896,2,2V16z"/>
	</g>
</g>
<g id="&#x77E9;&#x5F62;_46">
	<g>
		<path style="fill-rule:evenodd;clip-rule:evenodd;fill:#1685C8;" d="M11,8H6v1h5V8z M6,10v1h7v-1H6z M6,13h7v-1H6V13z M6,15h7v-1
			H6V15z"/>
	</g>
</g>
</svg>
