<?xml version="1.0" encoding="iso-8859-1"?>
<!-- Generator: Adobe Illustrator 16.0.0, SVG Export Plug-In . SVG Version: 6.00 Build 0)  -->
<!DOCTYPE svg PUBLIC "-//W3C//DTD SVG 1.1//EN" "http://www.w3.org/Graphics/SVG/1.1/DTD/svg11.dtd">
<svg version="1.1" xmlns="http://www.w3.org/2000/svg" xmlns:xlink="http://www.w3.org/1999/xlink" x="0px" y="0px" width="25px"
	 height="25px" viewBox="0 0 25 25" style="enable-background:new 0 0 25 25;" xml:space="preserve">
<g id="&#x56FE;&#x5C42;_2">
</g>
<g id="&#x56FE;&#x5C42;_1">
	<g id="&#x56FE;&#x5C42;_1_1_">
		<g id="Shape_33">
			<g>
				<path style="fill:#2578AF;" d="M21.88,3.829H3.129v12.194h18.752L21.88,3.829L21.88,3.829z M22.917,0.739H2.082
					C0.936,0.739,0,1.666,0,2.8v14.252c0,1.13,0.937,2.06,2.082,2.06h8.336v4.122H9.373c-1.039,0-1.039,1.026-1.039,1.026h8.334
					c0-1.026-1.043-1.026-1.043-1.026h-1.04v-4.122h8.334c1.143,0,2.081-0.927,2.081-2.06V2.8C25,1.668,24.062,0.739,22.917,0.739z
					 M22.917,17.053H2.082V2.8h20.835V17.053z"/>
			</g>
		</g>
	</g>
</g>
</svg>
