<?xml version="1.0" encoding="iso-8859-1"?>
<!-- Generator: Adobe Illustrator 16.0.0, SVG Export Plug-In . SVG Version: 6.00 Build 0)  -->
<!DOCTYPE svg PUBLIC "-//W3C//DTD SVG 1.1//EN" "http://www.w3.org/Graphics/SVG/1.1/DTD/svg11.dtd">
<svg version="1.1" xmlns="http://www.w3.org/2000/svg" xmlns:xlink="http://www.w3.org/1999/xlink" x="0px" y="0px" width="30px"
	 height="22px" viewBox="0 0 30 22" style="enable-background:new 0 0 30 22;" xml:space="preserve">
<g id="&#x56FE;&#x5C42;_2">
</g>
<g id="&#x56FE;&#x5C42;_1">
	<g id="Shape_33">
		<g>
			<path style="fill:#1F7EBB;" d="M22.492,4.051H7.515v9.74h14.978V4.051L22.492,4.051z M23.32,1.583H6.679
				c-0.916,0-1.663,0.74-1.663,1.646v11.384c0,0.903,0.748,1.645,1.663,1.645h6.658v3.293h-0.834c-0.83,0-0.83,0.819-0.83,0.819
				h6.656c0-0.819-0.833-0.819-0.833-0.819h-0.831v-3.293h6.657c0.912,0,1.662-0.741,1.662-1.645V3.229
				C24.984,2.325,24.234,1.583,23.32,1.583z M23.32,14.613H6.679V3.229H23.32V14.613z"/>
		</g>
	</g>
</g>
</svg>
