<?xml version="1.0" encoding="iso-8859-1"?>
<!-- Generator: Adobe Illustrator 16.0.0, SVG Export Plug-In . SVG Version: 6.00 Build 0)  -->
<!DOCTYPE svg PUBLIC "-//W3C//DTD SVG 1.1//EN" "http://www.w3.org/Graphics/SVG/1.1/DTD/svg11.dtd">
<svg version="1.1" xmlns="http://www.w3.org/2000/svg" xmlns:xlink="http://www.w3.org/1999/xlink" x="0px" y="0px" width="30px"
	 height="22px" viewBox="0 0 30 22" style="enable-background:new 0 0 30 22;" xml:space="preserve">
<g id="&#x56FE;&#x5C42;_2">
</g>
<g id="&#x56FE;&#x5C42;_1">
	<path style="fill:#2A8DC6;" d="M20.173,1.583H9.828c-2.598,0-4.703,2.104-4.703,4.703v7.537c0,2.598,2.104,4.702,4.703,4.702h1.865
		l-0.488,1.824l6.792-1.824h2.176c2.598,0,4.702-2.104,4.702-4.702V6.286C24.875,3.688,22.771,1.583,20.173,1.583z M9.298,11.938
		c-0.779,0-1.411-0.632-1.411-1.413c0-0.779,0.632-1.411,1.411-1.411c0.778,0,1.411,0.632,1.411,1.411
		C10.709,11.306,10.077,11.938,9.298,11.938z M14.941,11.938c-0.779,0-1.411-0.632-1.411-1.413c0-0.779,0.632-1.411,1.411-1.411
		c0.778,0,1.41,0.632,1.41,1.411C16.352,11.306,15.719,11.938,14.941,11.938z M20.584,11.938c-0.778,0-1.41-0.632-1.41-1.413
		c0-0.779,0.632-1.411,1.41-1.411s1.411,0.632,1.411,1.411C21.995,11.306,21.362,11.938,20.584,11.938z"/>
</g>
</svg>
