<?xml version="1.0" encoding="iso-8859-1"?>
<!-- Generator: Adobe Illustrator 16.0.0, SVG Export Plug-In . SVG Version: 6.00 Build 0)  -->
<!DOCTYPE svg PUBLIC "-//W3C//DTD SVG 1.1//EN" "http://www.w3.org/Graphics/SVG/1.1/DTD/svg11.dtd">
<svg version="1.1" xmlns="http://www.w3.org/2000/svg" xmlns:xlink="http://www.w3.org/1999/xlink" x="0px" y="0px" width="25px"
	 height="25px" viewBox="0 0 25 25" style="enable-background:new 0 0 25 25;" xml:space="preserve">
<g id="&#x56FE;&#x5C42;_2">
</g>
<g id="&#x56FE;&#x5C42;_1">
	<g id="&#x56FE;&#x5C42;_1_1_">
		<path style="fill:#2E86BA;" d="M19.048,0.623H5.953C2.665,0.623,0,3.286,0,6.576v9.542c0,3.287,2.663,5.951,5.953,5.951h2.361
			l-0.618,2.309l8.598-2.309h2.754c3.289,0,5.952-2.664,5.952-5.951V6.576C25,3.287,22.337,0.623,19.048,0.623z M5.282,13.729
			c-0.986,0-1.786-0.797-1.786-1.787c0-0.986,0.8-1.786,1.786-1.786c0.985,0,1.786,0.8,1.786,1.786
			C7.068,12.931,6.269,13.729,5.282,13.729z M12.426,13.729c-0.986,0-1.787-0.797-1.787-1.787c0-0.986,0.801-1.786,1.787-1.786
			c0.984,0,1.785,0.8,1.785,1.786C14.211,12.931,13.41,13.729,12.426,13.729z M19.568,13.729c-0.984,0-1.785-0.797-1.785-1.787
			c0-0.986,0.801-1.786,1.785-1.786s1.786,0.8,1.786,1.786C21.354,12.931,20.553,13.729,19.568,13.729z"/>
	</g>
</g>
</svg>
