<?xml version="1.0" encoding="iso-8859-1"?>
<!-- Generator: Adobe Illustrator 16.0.0, SVG Export Plug-In . SVG Version: 6.00 Build 0)  -->
<!DOCTYPE svg PUBLIC "-//W3C//DTD SVG 1.1//EN" "http://www.w3.org/Graphics/SVG/1.1/DTD/svg11.dtd">
<svg version="1.1" id="&#x56FE;&#x5C42;_1" xmlns="http://www.w3.org/2000/svg" xmlns:xlink="http://www.w3.org/1999/xlink" x="0px"
	 y="0px" width="22px" height="22px" viewBox="0 0 22 22" style="enable-background:new 0 0 22 22;" xml:space="preserve">
<g id="&#x5706;&#x89D2;&#x77E9;&#x5F62;_18">
	<g>
		<path style="fill-rule:evenodd;clip-rule:evenodd;fill:#2096D5;" d="M16.325,1.023h-11c-2.762,0-5,2.238-5,5v8.015
			c0,2.762,2.238,5,5,5h1.983L6.79,20.976l7.222-1.938h2.313c2.762,0,5-2.238,5-5V6.023C21.325,3.262,19.087,1.023,16.325,1.023z"/>
	</g>
</g>
<g id="&#x692D;&#x5706;_20">
	<g>
		<path style="fill-rule:evenodd;clip-rule:evenodd;fill:#FFFFFF;" d="M5.825,9.031c-0.828,0-1.5,0.672-1.5,1.5
			c0,0.83,0.672,1.502,1.5,1.502s1.5-0.672,1.5-1.502C7.325,9.703,6.653,9.031,5.825,9.031z M11.825,9.031
			c-0.828,0-1.5,0.672-1.5,1.5c0,0.83,0.672,1.502,1.5,1.502s1.5-0.672,1.5-1.502C13.325,9.703,12.653,9.031,11.825,9.031z
			 M17.825,9.031c-0.828,0-1.5,0.672-1.5,1.5c0,0.83,0.672,1.502,1.5,1.502s1.5-0.672,1.5-1.502
			C19.325,9.703,18.653,9.031,17.825,9.031z"/>
	</g>
</g>
</svg>
