<?xml version="1.0" encoding="iso-8859-1"?>
<!-- Generator: Adobe Illustrator 16.0.0, SVG Export Plug-In . SVG Version: 6.00 Build 0)  -->
<!DOCTYPE svg PUBLIC "-//W3C//DTD SVG 1.1//EN" "http://www.w3.org/Graphics/SVG/1.1/DTD/svg11.dtd">
<svg version="1.1" xmlns="http://www.w3.org/2000/svg" xmlns:xlink="http://www.w3.org/1999/xlink" x="0px" y="0px" width="25px"
	 height="25px" viewBox="0 0 25 25" style="enable-background:new 0 0 25 25;" xml:space="preserve">
<g id="&#x56FE;&#x5C42;_2">
</g>
<g id="&#x56FE;&#x5C42;_1">
	<g>
		<g id="&#x77E9;&#x5F62;_59">
			<g>
				<path style="fill-rule:evenodd;clip-rule:evenodd;fill:#1685C8;" d="M18.421,17.763v2.632c0,0.728-0.59,1.316-1.315,1.316H2.632
					c-0.728,0-1.316-0.589-1.316-1.316V4.605c0-0.728,0.588-1.316,1.316-1.316h13.157V1.974H1.316C0.588,1.974,0,2.562,0,3.29
					v18.421c0,0.727,0.588,1.315,1.316,1.315h17.105c0.728,0,1.316-0.589,1.316-1.315v-3.948H18.421z"/>
			</g>
		</g>
		<g id="&#x77E9;&#x5F62;_60">
			<g>
				<path style="fill-rule:evenodd;clip-rule:evenodd;fill:#1685C8;" d="M20.276,1.974L8.94,13.31l-1.046,5.77l5.77-1.046L25,6.697
					L20.276,1.974z M9.211,17.763l0.674-1.618l0.944,0.944L9.211,17.763z M13.664,16.145l-2.835-2.835l7.559-7.557l2.833,2.833
					L13.664,16.145z M19.332,4.807l0.944-0.944l2.835,2.834l-0.946,0.944L19.332,4.807z"/>
			</g>
		</g>
	</g>
</g>
</svg>
