<?xml version="1.0" encoding="iso-8859-1"?>
<!-- Generator: Adobe Illustrator 16.0.0, SVG Export Plug-In . SVG Version: 6.00 Build 0)  -->
<!DOCTYPE svg PUBLIC "-//W3C//DTD SVG 1.1//EN" "http://www.w3.org/Graphics/SVG/1.1/DTD/svg11.dtd">
<svg version="1.1" id="&#x56FE;&#x5C42;_1" xmlns="http://www.w3.org/2000/svg" xmlns:xlink="http://www.w3.org/1999/xlink" x="0px"
	 y="0px" width="22px" height="22px" viewBox="0 0 22 22" style="enable-background:new 0 0 22 22;" xml:space="preserve">
<g id="&#x692D;&#x5706;_26">
	<g>
		<path style="fill-rule:evenodd;clip-rule:evenodd;fill:#1685C8;" d="M7,10c0.553,0,1-0.447,1-1S7.553,8,7,8S6,8.447,6,9
			S6.447,10,7,10z M11,1C5.478,1,1,5.478,1,11c0,5.521,4.478,10,10,10s10-4.479,10-10C21,5.478,16.522,1,11,1z M11,20
			c-4.971,0-9-4.029-9-9c0-4.971,4.029-9,9-9s9,4.029,9,9C20,15.971,15.971,20,11,20z M15,8c-0.553,0-1,0.447-1,1s0.447,1,1,1
			s1-0.447,1-1S15.553,8,15,8z M11,16c-2.209,0-4-1.791-4-4H6c0,2.762,2.238,5,5,5s5-2.238,5-5h-1C15,14.209,13.209,16,11,16z"/>
	</g>
</g>
</svg>
