<?xml version="1.0" encoding="iso-8859-1"?>
<!-- Generator: Adobe Illustrator 16.0.0, SVG Export Plug-In . SVG Version: 6.00 Build 0)  -->
<!DOCTYPE svg PUBLIC "-//W3C//DTD SVG 1.1//EN" "http://www.w3.org/Graphics/SVG/1.1/DTD/svg11.dtd">
<svg version="1.1" xmlns="http://www.w3.org/2000/svg" xmlns:xlink="http://www.w3.org/1999/xlink" x="0px" y="0px" width="30px"
	 height="22px" viewBox="0 0 30 22" style="enable-background:new 0 0 30 22;" xml:space="preserve">
<g id="&#x56FE;&#x5C42;_2">
</g>
<g id="&#x56FE;&#x5C42;_1">
	<g id="&#x692D;&#x5706;_26">
		<g>
			<path style="fill:#1F7EBB;" d="M11.225,10.057c0.522,0,0.944-0.423,0.944-0.944s-0.422-0.943-0.944-0.943
				c-0.522,0-0.943,0.422-0.943,0.943S10.703,10.057,11.225,10.057z M15,1.563c-5.211,0-9.438,4.227-9.438,9.438
				S9.789,20.438,15,20.438c5.211,0,9.438-4.227,9.438-9.438S20.211,1.563,15,1.563z M15,19.494c-4.692,0-8.494-3.803-8.494-8.494
				S10.308,2.506,15,2.506c4.691,0,8.494,3.803,8.494,8.494S19.691,19.494,15,19.494z M18.775,8.169
				c-0.521,0-0.943,0.422-0.943,0.943s0.422,0.944,0.943,0.944s0.943-0.423,0.943-0.944S19.297,8.169,18.775,8.169z M15,15.719
				c-2.085,0-3.775-1.689-3.775-3.775h-0.943c0,2.607,2.112,4.719,4.719,4.719c2.605,0,4.719-2.111,4.719-4.719h-0.943
				C18.775,14.029,17.084,15.719,15,15.719z"/>
		</g>
	</g>
</g>
</svg>
