<?xml version="1.0" encoding="iso-8859-1"?>
<!-- Generator: Adobe Illustrator 16.0.0, SVG Export Plug-In . SVG Version: 6.00 Build 0)  -->
<!DOCTYPE svg PUBLIC "-//W3C//DTD SVG 1.1//EN" "http://www.w3.org/Graphics/SVG/1.1/DTD/svg11.dtd">
<svg version="1.1" xmlns="http://www.w3.org/2000/svg" xmlns:xlink="http://www.w3.org/1999/xlink" x="0px" y="0px" width="25px"
	 height="25px" viewBox="0 0 25 25" style="enable-background:new 0 0 25 25;" xml:space="preserve">
<g id="&#x56FE;&#x5C42;_2">
</g>
<g id="&#x56FE;&#x5C42;_1">
	<g id="&#x56FE;&#x5C42;_1_1_">
		<g id="&#x692D;&#x5706;_26">
			<g>
				<path style="fill:#2578AF;" d="M7.5,11.249c0.691,0,1.25-0.56,1.25-1.249c0-0.69-0.559-1.249-1.25-1.249S6.251,9.31,6.251,10
					C6.251,10.689,6.809,11.249,7.5,11.249z M12.5,0C5.598,0,0,5.599,0,12.5C0,19.402,5.598,25,12.5,25C19.401,25,25,19.4,25,12.499
					S19.401,0,12.5,0z M12.5,23.75c-6.214,0-11.25-5.037-11.25-11.251c0-6.213,5.036-11.25,11.25-11.25
					c6.214,0,11.25,5.037,11.25,11.25C23.75,18.713,18.714,23.75,12.5,23.75z M17.5,8.75c-0.69,0-1.249,0.559-1.249,1.248
					c0,0.69,0.559,1.251,1.249,1.251c0.689,0,1.249-0.561,1.249-1.251C18.749,9.309,18.191,8.75,17.5,8.75z M12.5,18.75
					c-2.761,0-5-2.238-5-5.002H6.251c0,3.455,2.797,6.252,6.25,6.252c3.45,0,6.252-2.797,6.252-6.252h-1.25
					C17.5,16.512,15.26,18.75,12.5,18.75z"/>
			</g>
		</g>
	</g>
</g>
</svg>

