<?xml version="1.0" encoding="iso-8859-1"?>
<!-- Generator: Adobe Illustrator 16.0.0, SVG Export Plug-In . SVG Version: 6.00 Build 0)  -->
<!DOCTYPE svg PUBLIC "-//W3C//DTD SVG 1.1//EN" "http://www.w3.org/Graphics/SVG/1.1/DTD/svg11.dtd">
<svg version="1.1" xmlns="http://www.w3.org/2000/svg" xmlns:xlink="http://www.w3.org/1999/xlink" x="0px" y="0px" width="25px"
	 height="22px" viewBox="0 0 25 22" style="enable-background:new 0 0 25 22;" xml:space="preserve">
<g id="&#x56FE;&#x5C42;_2">
</g>
<g id="&#x56FE;&#x5C42;_1">
	<path style="fill:#1584C8;" d="M21.256,9.689c-1.014-0.787-3.352-0.475-5.199-0.107c-0.068,0.014-0.109-0.069-0.059-0.115
		c1.139-1.025,4.256-2.516,4.129-4.456c-0.104-1.59-1.645-2.408-3.646-2.108c-0.473-0.601-1.178-1.32-2.271-1.32
		c-0.275,0-0.575,0.045-0.902,0.149c-1.522,0.485-2.199,3.063-1.609,6.186c0.021,0.114-0.131,0.174-0.194,0.075
		c-1.786-2.811-4.11-4.24-5.514-3.826c-1.323,0.39-1.998,1.608-1.73,3.326C2.957,8.301,2.38,9.85,2.952,10.879
		c0.766,1.378,3.448,1.591,5.983,1.104c0.113-0.022,0.163,0.146,0.057,0.191c-2.115,0.905-3.541,2.267-3.809,3.462
		c-0.241,1.073,0.275,2.39,2.697,2.756c0.971,1.423,2.124,1.703,3.217,1.424c1.271-0.325,2.479-1.397,2.704-5.912
		c0.763,1.642,0.866,4.36,0.149,6.444c-0.012,0.034,0.013,0.069,0.049,0.07c0.178,0.004,0.545-0.072,0.578-0.155
		c0.156-0.39,0.721-3.157-0.141-5.845c-0.025-0.078,0.079-0.13,0.125-0.062c1.385,2.019,3.318,3.386,4.525,3.294
		c1.873-0.143,2.574-1.901,2.127-3.792C22.543,12.712,22.68,10.795,21.256,9.689z"/>
</g>
</svg>
