<?xml version="1.0" encoding="iso-8859-1"?>
<!-- Generator: Adobe Illustrator 16.0.0, SVG Export Plug-In . SVG Version: 6.00 Build 0)  -->
<!DOCTYPE svg PUBLIC "-//W3C//DTD SVG 1.1//EN" "http://www.w3.org/Graphics/SVG/1.1/DTD/svg11.dtd">
<svg version="1.1" id="&#x56FE;&#x5C42;_1" xmlns="http://www.w3.org/2000/svg" xmlns:xlink="http://www.w3.org/1999/xlink" x="0px"
	 y="0px" width="22px" height="22px" viewBox="0 0 22 22" style="enable-background:new 0 0 22 22;" xml:space="preserve">
<g>
	<defs>
		<path id="SVGID_1_" d="M11.158,3.489C9.941,3.877,9.399,5.937,9.871,8.434c0.017,0.092-0.105,0.139-0.155,0.061
			C8.288,6.247,6.43,5.104,5.307,5.435C4.25,5.747,3.71,6.721,3.925,8.094C2.883,8.74,2.422,9.979,2.879,10.802
			c0.612,1.102,2.756,1.271,4.784,0.882c0.09-0.018,0.13,0.118,0.046,0.153c-1.691,0.724-2.831,1.813-3.045,2.768
			c-0.193,0.858,0.22,1.911,2.156,2.203c0.776,1.139,1.698,1.362,2.572,1.139c1.016-0.26,1.981-1.117,2.162-4.727
			c0.609,1.313,0.692,3.486,0.12,5.152c-0.01,0.027,0.009,0.055,0.038,0.056c0.143,0.003,0.437-0.057,0.463-0.123
			c0.125-0.312,0.575-2.524-0.113-4.673c-0.021-0.063,0.063-0.104,0.1-0.049c1.107,1.613,2.653,2.705,3.618,2.633
			c1.498-0.114,2.058-1.521,1.7-3.031c1.063-0.916,1.172-2.449,0.034-3.333c-0.811-0.629-2.681-0.38-4.158-0.085
			c-0.054,0.01-0.087-0.056-0.047-0.092c0.911-0.82,3.402-2.012,3.302-3.563c-0.083-1.271-1.315-1.925-2.915-1.686
			c-0.378-0.48-0.941-1.056-1.817-1.056C11.659,3.369,11.418,3.405,11.158,3.489"/>
	</defs>
	<clipPath id="SVGID_2_">
		<use xlink:href="#SVGID_1_"  style="overflow:visible;"/>
	</clipPath>
	
		<linearGradient id="SVGID_3_" gradientUnits="userSpaceOnUse" x1="-1071.8779" y1="621.7388" x2="-1071.8495" y2="621.7388" gradientTransform="matrix(377.0366 377.0366 377.0366 -377.0366 169723.8594 638561.125)">
		<stop  offset="0" style="stop-color:#4471B7"/>
		<stop  offset="0.7776" style="stop-color:#3B5DAA"/>
		<stop  offset="1" style="stop-color:#3B5DAA"/>
	</linearGradient>
	<polygon style="clip-path:url(#SVGID_2_);fill:url(#SVGID_3_);" points="10.537,-4.746 26.183,10.9 10.537,26.545 -5.109,10.9 	"/>
</g>
</svg>
