<?xml version="1.0" encoding="iso-8859-1"?>
<!-- Generator: Adobe Illustrator 16.0.0, SVG Export Plug-In . SVG Version: 6.00 Build 0)  -->
<!DOCTYPE svg PUBLIC "-//W3C//DTD SVG 1.1//EN" "http://www.w3.org/Graphics/SVG/1.1/DTD/svg11.dtd">
<svg version="1.1" xmlns="http://www.w3.org/2000/svg" xmlns:xlink="http://www.w3.org/1999/xlink" x="0px" y="0px" width="30px"
	 height="22px" viewBox="0 0 30 22" style="enable-background:new 0 0 30 22;" xml:space="preserve">
<g id="&#x56FE;&#x5C42;_2">
</g>
<g id="&#x56FE;&#x5C42;_1">
	<g id="&#x56FE;&#x5C42;_1_1_">
		<path style="fill:#217DBA;" d="M23.756,9.689c-1.014-0.787-3.352-0.476-5.199-0.107c-0.067,0.014-0.108-0.068-0.059-0.115
			c1.139-1.025,4.256-2.516,4.129-4.456c-0.104-1.59-1.645-2.407-3.646-2.108c-0.473-0.601-1.178-1.319-2.271-1.319
			c-0.274,0-0.575,0.045-0.901,0.149c-1.522,0.485-2.199,3.063-1.609,6.186c0.021,0.114-0.131,0.174-0.194,0.075
			c-1.786-2.812-4.11-4.24-5.514-3.826c-1.323,0.39-1.998,1.608-1.73,3.326C5.457,8.3,4.88,9.849,5.452,10.878
			c0.766,1.377,3.448,1.591,5.983,1.104c0.113-0.021,0.163,0.146,0.057,0.191c-2.115,0.905-3.541,2.268-3.809,3.462
			c-0.241,1.073,0.275,2.39,2.697,2.757c0.971,1.422,2.124,1.703,3.218,1.424c1.271-0.325,2.479-1.397,2.703-5.912
			c0.764,1.642,0.866,4.359,0.149,6.443c-0.013,0.034,0.013,0.069,0.049,0.07c0.178,0.004,0.545-0.072,0.578-0.154
			c0.155-0.391,0.721-3.158-0.142-5.846c-0.024-0.078,0.08-0.13,0.125-0.063c1.385,2.02,3.318,3.387,4.525,3.295
			c1.873-0.144,2.574-1.901,2.127-3.793C25.043,12.711,25.18,10.794,23.756,9.689z"/>
	</g>
</g>
</svg>
