<?xml version="1.0" encoding="iso-8859-1"?>
<!-- Generator: Adobe Illustrator 16.0.0, SVG Export Plug-In . SVG Version: 6.00 Build 0)  -->
<!DOCTYPE svg PUBLIC "-//W3C//DTD SVG 1.1//EN" "http://www.w3.org/Graphics/SVG/1.1/DTD/svg11.dtd">
<svg version="1.1" xmlns="http://www.w3.org/2000/svg" xmlns:xlink="http://www.w3.org/1999/xlink" x="0px" y="0px" width="25px"
	 height="25px" viewBox="0 0 25 25" style="enable-background:new 0 0 25 25;" xml:space="preserve">
<g id="&#x56FE;&#x5C42;_2">
</g>
<g id="&#x56FE;&#x5C42;_1">
	<g id="&#x56FE;&#x5C42;_1_2_">
		<g id="&#x56FE;&#x5C42;_1_1_">
			<path style="fill:#2777AF;" d="M23.704,10.822c-1.297-1.008-4.288-0.61-6.652-0.137c-0.085,0.017-0.138-0.088-0.075-0.147
				c1.457-1.312,5.445-3.219,5.283-5.702c-0.133-2.035-2.104-3.08-4.666-2.698c-0.604-0.769-1.507-1.688-2.905-1.688
				c-0.352,0-0.736,0.058-1.153,0.19c-1.947,0.621-2.814,3.919-2.058,7.916c0.026,0.146-0.169,0.223-0.249,0.096
				C8.943,5.055,5.969,3.227,4.173,3.757C2.479,4.256,1.616,5.814,1.959,8.013c-1.67,1.031-2.409,3.014-1.676,4.33
				c0.979,1.762,4.412,2.036,7.656,1.414c0.145-0.027,0.209,0.187,0.073,0.244c-2.707,1.158-4.531,2.902-4.874,4.43
				c-0.309,1.373,0.352,3.06,3.451,3.529c1.243,1.819,2.718,2.179,4.117,1.822c1.628-0.417,3.173-1.789,3.459-7.565
				c0.977,2.101,1.108,5.578,0.19,8.245c-0.016,0.042,0.017,0.087,0.063,0.088c0.228,0.006,0.697-0.091,0.74-0.195
				c0.198-0.502,0.922-4.042-0.182-7.482c-0.031-0.1,0.103-0.166,0.16-0.081c1.772,2.586,4.245,4.335,5.79,4.217
				c2.396-0.184,3.294-2.433,2.722-4.854C25.352,14.689,25.526,12.236,23.704,10.822z"/>
		</g>
	</g>
</g>
</svg>

