<?xml version="1.0" encoding="iso-8859-1"?>
<!-- Generator: Adobe Illustrator 16.0.0, SVG Export Plug-In . SVG Version: 6.00 Build 0)  -->
<!DOCTYPE svg PUBLIC "-//W3C//DTD SVG 1.1//EN" "http://www.w3.org/Graphics/SVG/1.1/DTD/svg11.dtd">
<svg version="1.1" xmlns="http://www.w3.org/2000/svg" xmlns:xlink="http://www.w3.org/1999/xlink" x="0px" y="0px" width="25px"
	 height="25px" viewBox="0 0 25 25" style="enable-background:new 0 0 25 25;" xml:space="preserve">
<g id="&#x56FE;&#x5C42;_2">
</g>
<g id="&#x56FE;&#x5C42;_1">
	<g>
		<g id="&#x77E9;&#x5F62;_56">
			<g>
				<polygon style="fill-rule:evenodd;clip-rule:evenodd;fill:#1685C8;" points="17.647,5.147 17.647,0.735 0,0.735 0,24.265 
					17.647,24.265 17.647,19.854 16.177,19.854 16.177,22.794 1.471,22.794 1.471,2.206 16.177,2.206 16.177,5.147 				"/>
			</g>
		</g>
		<g id="&#x77E9;&#x5F62;_57">
			<g>
				<polygon style="fill-rule:evenodd;clip-rule:evenodd;fill:#1685C8;" points="24.747,11.765 20.588,7.605 19.549,8.646 
					22.668,11.765 13.235,11.765 13.235,13.235 22.668,13.235 19.549,16.354 20.588,17.395 24.747,13.235 25,13.235 25,11.765 				
					"/>
			</g>
		</g>
		<g id="&#x77E9;&#x5F62;_58">
			<g>
				<path style="fill-rule:evenodd;clip-rule:evenodd;fill:#1685C8;" d="M4.412,5.147v1.471h7.353V5.147H4.412z M4.412,11.029h7.353
					V9.559H4.412V11.029z M8.823,13.971H4.412v1.471h4.411V13.971z M4.412,19.854h7.353v-1.471H4.412V19.854z"/>
			</g>
		</g>
	</g>
</g>
</svg>
