<?xml version="1.0" encoding="iso-8859-1"?>
<!-- Generator: Adobe Illustrator 16.0.0, SVG Export Plug-In . SVG Version: 6.00 Build 0)  -->
<!DOCTYPE svg PUBLIC "-//W3C//DTD SVG 1.1//EN" "http://www.w3.org/Graphics/SVG/1.1/DTD/svg11.dtd">
<svg version="1.1" xmlns="http://www.w3.org/2000/svg" xmlns:xlink="http://www.w3.org/1999/xlink" x="0px" y="0px" width="30px"
	 height="22px" viewBox="0 0 30 22" style="enable-background:new 0 0 30 22;" xml:space="preserve">
<g id="&#x56FE;&#x5C42;_2">
</g>
<g id="&#x56FE;&#x5C42;_1">
	<g id="male">
		<g>
			<path style="fill:#D3636F;" d="M23.357,17.424c-0.785-0.605-3.02-2.343-3.998-2.744c-0.279-0.076-1.989-0.993-2.147-1.065
				c-0.188-0.222-0.516-0.506-0.616-0.53c0.015-0.519,0.918-1.359,1.226-2.209c1.268,0,2.101,0,2.101,0s0.368-4.389-0.749-6.346
				C18.405,3.186,17.233,1.583,15,1.583c-2.198,0-3.181,1.216-3.886,2.449c-1.231,2.156-1.034,6.843-1.034,6.843s0.83,0,2.057,0
				c0.245,0.733,0.862,1.82,0.906,2.225c0,0-0.51,0.293-0.699,0.515c-0.158,0.072-1.42,0.989-1.7,1.065
				c-0.98,0.401-2.936,1.578-3.997,2.744c-0.432,0.472-1.406,2.145-1.39,2.976h19.486C24.759,19.568,24.193,18.074,23.357,17.424z"
				/>
		</g>
	</g>
</g>
</svg>
