<?xml version="1.0" encoding="iso-8859-1"?>
<!-- Generator: Adobe Illustrator 16.0.0, SVG Export Plug-In . SVG Version: 6.00 Build 0)  -->
<!DOCTYPE svg PUBLIC "-//W3C//DTD SVG 1.1//EN" "http://www.w3.org/Graphics/SVG/1.1/DTD/svg11.dtd">
<svg version="1.1" id="&#x56FE;&#x5C42;_1" xmlns="http://www.w3.org/2000/svg" xmlns:xlink="http://www.w3.org/1999/xlink" x="0px"
	 y="0px" width="22px" height="22px" viewBox="0 0 22 22" style="enable-background:new 0 0 22 22;" xml:space="preserve">
<g id="male">
	<g>
		<path style="fill-rule:evenodd;clip-rule:evenodd;fill:#DE6673;" d="M18.765,17.258c-0.683-0.528-2.629-2.041-3.482-2.391
			c-0.243-0.066-1.732-0.865-1.87-0.928c-0.164-0.193-0.449-0.441-0.537-0.463c0.013-0.451,0.8-1.183,1.067-1.923
			c1.105,0,1.831,0,1.831,0s0.32-3.823-0.653-5.527c-0.669-1.17-1.69-2.566-3.634-2.566c-1.915,0-2.771,1.06-3.385,2.133
			c-1.073,1.878-0.901,5.96-0.901,5.96s0.723,0,1.791,0c0.214,0.638,0.751,1.586,0.789,1.937c0,0-0.444,0.256-0.608,0.449
			c-0.138,0.063-1.237,0.861-1.481,0.928c-0.854,0.35-2.557,1.374-3.481,2.391C3.835,17.668,2.986,19.124,3,19.85h16.972
			C19.986,19.124,19.494,17.823,18.765,17.258z"/>
	</g>
</g>
</svg>
