<?xml version="1.0" encoding="iso-8859-1"?>
<!-- Generator: Adobe Illustrator 16.0.0, SVG Export Plug-In . SVG Version: 6.00 Build 0)  -->
<!DOCTYPE svg PUBLIC "-//W3C//DTD SVG 1.1//EN" "http://www.w3.org/Graphics/SVG/1.1/DTD/svg11.dtd">
<svg version="1.1" xmlns="http://www.w3.org/2000/svg" xmlns:xlink="http://www.w3.org/1999/xlink" x="0px" y="0px" width="25px"
	 height="25px" viewBox="0 0 25 25" style="enable-background:new 0 0 25 25;" xml:space="preserve">
<g id="&#x56FE;&#x5C42;_2">
</g>
<g id="&#x56FE;&#x5C42;_1">
	<g id="&#x56FE;&#x5C42;_1_1_">
		<g id="male">
			<g>
				<path style="fill:#C9616C;" d="M23.222,20.752c-1.007-0.777-3.875-3.006-5.129-3.521c-0.358-0.098-2.552-1.271-2.755-1.365
					c-0.242-0.285-0.663-0.648-0.791-0.68c0.021-0.666,1.178-1.743,1.574-2.834c1.626,0,2.694,0,2.694,0s0.473-5.63-0.961-8.141
					c-0.987-1.724-2.49-3.781-5.355-3.781c-2.82,0-4.081,1.56-4.985,3.143c-1.58,2.766-1.327,8.778-1.327,8.778s1.065,0,2.639,0
					c0.314,0.939,1.106,2.335,1.162,2.855c0,0-0.654,0.375-0.897,0.66C8.89,15.959,7.27,17.133,6.911,17.23
					c-1.257,0.516-3.767,2.025-5.128,3.521C1.229,21.357-0.02,23.504,0,24.57h25C25.02,23.504,24.294,21.586,23.222,20.752z"/>
			</g>
		</g>
	</g>
</g>
</svg>

