<?xml version="1.0" encoding="iso-8859-1"?>
<!-- Generator: Adobe Illustrator 16.0.0, SVG Export Plug-In . SVG Version: 6.00 Build 0)  -->
<!DOCTYPE svg PUBLIC "-//W3C//DTD SVG 1.1//EN" "http://www.w3.org/Graphics/SVG/1.1/DTD/svg11.dtd">
<svg version="1.1" xmlns="http://www.w3.org/2000/svg" xmlns:xlink="http://www.w3.org/1999/xlink" x="0px" y="0px" width="25px"
	 height="25px" viewBox="0 0 25 25" style="enable-background:new 0 0 25 25;" xml:space="preserve">
<g id="&#x56FE;&#x5C42;_2">
</g>
<g id="&#x56FE;&#x5C42;_1">
	<g id="&#x56FE;&#x5C42;_1_2_">
		<g id="&#x56FE;&#x5C42;_1_1_">
			<g id="&#x77E9;&#x5F62;_31">
				<g>
					<path style="fill:#2578AF;" d="M18,5.753l-5-4.749v4.998h5V5.753z M23.868,12.334l-2.268-2.331l-1.132,1.165l1.464,1.507
						h-3.935V7.001h-6V1.003H0v22.994h17.999v-9.672h3.936l-1.464,1.507l1.133,1.165l2.266-2.33L25,13.499L23.868,12.334z
						 M4.002,10.003h7.999v0.999H4.002V10.003z M15.001,19.998H4.002V19h10.999V19.998z M15.001,17H4.002v-0.997h10.999V17z
						 M15.001,14H4.002v-0.997h10.999V14z"/>
				</g>
			</g>
		</g>
	</g>
</g>
</svg>
