<?xml version="1.0" encoding="iso-8859-1"?>
<!-- Generator: Adobe Illustrator 16.0.0, SVG Export Plug-In . SVG Version: 6.00 Build 0)  -->
<!DOCTYPE svg PUBLIC "-//W3C//DTD SVG 1.1//EN" "http://www.w3.org/Graphics/SVG/1.1/DTD/svg11.dtd">
<svg version="1.1" id="&#x56FE;&#x5C42;_1" xmlns="http://www.w3.org/2000/svg" xmlns:xlink="http://www.w3.org/1999/xlink" x="0px"
	 y="0px" width="22px" height="22px" viewBox="0 0 22 22" style="enable-background:new 0 0 22 22;" xml:space="preserve">
<g id="&#x77E9;&#x5F62;_31">
	<g>
		<path style="fill-rule:evenodd;clip-rule:evenodd;fill:#1685C8;" d="M12.11,1.481v4.026h3.704V5.305L12.11,1.481z M11.37,1.481
			H2.48V20h13.334V6.312H11.37V1.481z M5.443,8.728h5.927v0.805H5.443V8.728z M13.592,16.78H5.443v-0.806h8.148V16.78z
			 M13.592,14.364H5.443v-0.805h8.148V14.364z M13.592,11.143v0.806H5.443v-0.806H13.592z"/>
	</g>
</g>
<g id="&#x77E9;&#x5F62;_32_1_">
	<g>
		<polygon style="fill-rule:evenodd;clip-rule:evenodd;fill:#1685C8;" points="20.161,10.606 20.161,10.606 18.484,8.728 
			17.646,9.667 18.729,10.88 14.333,10.88 14.333,12.209 18.729,12.209 17.646,13.423 18.484,14.364 21,11.546 		"/>
	</g>
</g>
</svg>
