<?xml version="1.0" encoding="iso-8859-1"?>
<!-- Generator: Adobe Illustrator 16.0.0, SVG Export Plug-In . SVG Version: 6.00 Build 0)  -->
<!DOCTYPE svg PUBLIC "-//W3C//DTD SVG 1.1//EN" "http://www.w3.org/Graphics/SVG/1.1/DTD/svg11.dtd">
<svg version="1.1" xmlns="http://www.w3.org/2000/svg" xmlns:xlink="http://www.w3.org/1999/xlink" x="0px" y="0px" width="30px"
	 height="22px" viewBox="0 0 30 22" style="enable-background:new 0 0 30 22;" xml:space="preserve">
<g id="&#x56FE;&#x5C42;_2">
</g>
<g id="&#x56FE;&#x5C42;_1">
	<g id="&#x56FE;&#x5C42;_1_1_">
		<g id="&#x77E9;&#x5F62;_31">
			<g>
				<path style="fill:#1F7EBB;" d="M19.497,5.483L15.409,1.6v4.087h4.088V5.483z M24.295,10.864l-1.853-1.906l-0.926,0.953
					l1.197,1.232h-3.218V6.504h-4.905V1.599H4.78V20.4h14.716v-7.908h3.218l-1.197,1.232l0.926,0.953l1.853-1.906l0.925-0.954
					L24.295,10.864z M8.052,8.958h6.54v0.817h-6.54V8.958z M17.045,17.131H8.052v-0.816h8.993V17.131z M17.045,14.68H8.052v-0.816
					h8.993V14.68z M17.045,12.227H8.052v-0.816h8.993V12.227z"/>
			</g>
		</g>
	</g>
</g>
</svg>
