<?xml version="1.0" encoding="iso-8859-1"?>
<!-- Generator: Adobe Illustrator 16.0.0, SVG Export Plug-In . SVG Version: 6.00 Build 0)  -->
<!DOCTYPE svg PUBLIC "-//W3C//DTD SVG 1.1//EN" "http://www.w3.org/Graphics/SVG/1.1/DTD/svg11.dtd">
<svg version="1.1" id="&#x56FE;&#x5C42;_1" xmlns="http://www.w3.org/2000/svg" xmlns:xlink="http://www.w3.org/1999/xlink" x="0px"
	 y="0px" width="22px" height="22px" viewBox="0 0 22 22" style="enable-background:new 0 0 22 22;" xml:space="preserve">
<g id="&#x692D;&#x5706;_21">
	<g>
		<path style="fill-rule:evenodd;clip-rule:evenodd;fill:#2096D5;" d="M1.031,19.188h11.521c0-2.836-1.777-5.221-4.198-5.954
			c1.129-0.718,1.894-2.025,1.894-3.537c0-2.279-1.719-4.127-3.84-4.127c-2.12,0-3.84,1.848-3.84,4.127
			c0,1.639,0.896,3.042,2.185,3.707C2.579,14.29,1.031,16.542,1.031,19.188z"/>
	</g>
</g>
<g id="&#x692D;&#x5706;_21_&#x62F7;&#x8D1D;">
	<g>
		<path style="fill-rule:evenodd;clip-rule:evenodd;fill:#2096D5;" d="M9.479,16.712H21c0-2.836-1.776-5.221-4.197-5.954
			c1.129-0.718,1.894-2.026,1.894-3.538c0-2.28-1.72-4.127-3.841-4.127c-2.12,0-3.84,1.847-3.84,4.127
			c0,1.639,0.896,3.042,2.185,3.708C11.027,11.814,9.479,14.066,9.479,16.712z"/>
	</g>
</g>
</svg>
