<?xml version="1.0" encoding="iso-8859-1"?>
<!-- Generator: Adobe Illustrator 16.0.0, SVG Export Plug-In . SVG Version: 6.00 Build 0)  -->
<!DOCTYPE svg PUBLIC "-//W3C//DTD SVG 1.1//EN" "http://www.w3.org/Graphics/SVG/1.1/DTD/svg11.dtd">
<svg version="1.1" xmlns="http://www.w3.org/2000/svg" xmlns:xlink="http://www.w3.org/1999/xlink" x="0px" y="0px" width="30px"
	 height="22px" viewBox="0 0 30 22" style="enable-background:new 0 0 30 22;" xml:space="preserve">
<g id="&#x56FE;&#x5C42;_2">
</g>
<g id="&#x56FE;&#x5C42;_1">
	<path style="fill:#2A8DC6;" d="M26.637,17.496c0-3.307-2.068-6.087-4.893-6.941c1.316-0.836,2.209-2.36,2.209-4.123
		c0-2.658-2.006-4.811-4.479-4.811C17.006,1.621,15,3.773,15,6.432c0,1.91,1.045,3.545,2.547,4.321
		c-1.63,0.664-2.948,1.991-3.689,3.671c-0.592-0.432-1.252-0.77-1.96-0.982c1.315-0.838,2.208-2.36,2.208-4.123
		c0-2.656-2.003-4.81-4.476-4.81c-2.471,0-4.476,2.153-4.476,4.81c0,1.91,1.044,3.547,2.547,4.32
		c-2.534,1.033-4.338,3.658-4.338,6.74h13.428c0-1.031-0.221-1.998-0.584-2.883H26.637z"/>
</g>
</svg>

