<?xml version="1.0" encoding="iso-8859-1"?>
<!-- Generator: Adobe Illustrator 16.0.0, SVG Export Plug-In . SVG Version: 6.00 Build 0)  -->
<!DOCTYPE svg PUBLIC "-//W3C//DTD SVG 1.1//EN" "http://www.w3.org/Graphics/SVG/1.1/DTD/svg11.dtd">
<svg version="1.1" xmlns="http://www.w3.org/2000/svg" xmlns:xlink="http://www.w3.org/1999/xlink" x="0px" y="0px" width="25px"
	 height="25px" viewBox="0 0 25 25" style="enable-background:new 0 0 25 25;" xml:space="preserve">
<g id="&#x56FE;&#x5C42;_2">
</g>
<g id="&#x56FE;&#x5C42;_1">
	<g id="&#x56FE;&#x5C42;_1_1_">
		<path style="fill:#2E86BA;" d="M25,19.478c0-3.552-2.222-6.538-5.256-7.456c1.414-0.897,2.373-2.534,2.373-4.428
			c0-2.855-2.154-5.168-4.811-5.168c-2.652,0-4.807,2.312-4.807,5.168c0,2.051,1.122,3.807,2.735,4.641
			c-1.75,0.714-3.165,2.139-3.963,3.943c-0.636-0.464-1.345-0.826-2.104-1.056c1.412-0.899,2.371-2.534,2.371-4.428
			c0-2.853-2.15-5.167-4.808-5.167c-2.653,0-4.808,2.313-4.808,5.167c0,2.051,1.122,3.811,2.736,4.64
			C1.938,16.444,0,19.264,0,22.574h14.424c0-1.107-0.237-2.146-0.627-3.097H25z"/>
	</g>
</g>
</svg>

