<?xml version="1.0" encoding="iso-8859-1"?>
<!-- Generator: Adobe Illustrator 16.0.0, SVG Export Plug-In . SVG Version: 6.00 Build 0)  -->
<!DOCTYPE svg PUBLIC "-//W3C//DTD SVG 1.1//EN" "http://www.w3.org/Graphics/SVG/1.1/DTD/svg11.dtd">
<svg version="1.1" xmlns="http://www.w3.org/2000/svg" xmlns:xlink="http://www.w3.org/1999/xlink" x="0px" y="0px" width="25px"
	 height="25px" viewBox="0 0 25 25" style="enable-background:new 0 0 25 25;" xml:space="preserve">
<g id="&#x56FE;&#x5C42;_2">
</g>
<g id="&#x56FE;&#x5C42;_1">
	<g id="Shape_76_&#x62F7;&#x8D1D;_2">
		<g>
			<path style="fill-rule:evenodd;clip-rule:evenodd;fill:#1584C8;" d="M25,13.612c-0.128-1.189-2.075-5.503-12.149-5.61
				C2.234,7.886-0.006,12.466,0.016,13.665l7.01-0.012c0.003-0.988,1.068-1.187,3.268-1.417c1.452-0.15,3.252-0.199,5.043-0.008
				c1.254,0.132,2.479,0.366,2.478,1.399L25,13.612z M0.001,16.206L0,16.211c-0.001,0.46,0.368,0.784,0.784,0.786L0.786,17
				c0,0,5.465-0.014,5.468-0.014c0.432-0.001,0.775-0.354,0.777-0.788l0.002-2.004l-7.029,0.011
				C0.003,14.205-0.001,16.206,0.001,16.206z M17.81,16.178l0.003,0.002c0,0.46,0.365,0.787,0.777,0.787l0.005,0.004
				c0,0,5.623-0.014,5.624-0.014c0.435,0,0.776-0.356,0.778-0.788v-2.004l-7.184,0.011C17.813,14.176,17.808,16.176,17.81,16.178z"
				/>
		</g>
	</g>
</g>
</svg>
