<?xml version="1.0" encoding="iso-8859-1"?>
<!-- Generator: Adobe Illustrator 16.0.0, SVG Export Plug-In . SVG Version: 6.00 Build 0)  -->
<!DOCTYPE svg PUBLIC "-//W3C//DTD SVG 1.1//EN" "http://www.w3.org/Graphics/SVG/1.1/DTD/svg11.dtd">
<svg version="1.1" xmlns="http://www.w3.org/2000/svg" xmlns:xlink="http://www.w3.org/1999/xlink" x="0px" y="0px" width="30px"
	 height="22px" viewBox="0 0 30 22" style="enable-background:new 0 0 30 22;" xml:space="preserve">
<g id="&#x56FE;&#x5C42;_2">
</g>
<g id="&#x56FE;&#x5C42;_1">
	<g id="handset">
		<g>
			<path style="fill:#2C8AC3;" d="M9.865,15.695h0.685V9.228H9.865V15.695z M24.244,12.462c0-1.807-1.102-2.603-2.055-2.956V7.757
				c0-3.41-3.219-6.174-7.19-6.174S7.811,4.347,7.811,7.757v1.749c-0.954,0.353-2.055,1.149-2.055,2.956
				c0,3.186,3.424,3.233,3.424,3.233v-1.177h0.018c-0.006-0.097-0.018-0.194-0.018-0.293V7.757c0-2.76,2.605-4.998,5.82-4.998
				c3.213,0,5.821,2.237,5.821,4.998v6.468c0,0.099-0.012,0.196-0.018,0.293h0.018v1.177c0,0,0.26-0.006,0.633-0.075l-1.9,1.632
				c-0.268-0.229-0.701-0.229-0.969,0l-1.938,1.662c-0.267,0.229-0.267,0.603,0,0.832l0.486,0.416c0.266,0.229,0.699,0.229,0.967,0
				l1.938-1.663c0.266-0.23,0.266-0.602,0-0.833l2.906-2.494l-0.088-0.073C23.59,14.646,24.244,13.853,24.244,12.462z M20.137,9.228
				h-0.686v6.468h0.686V9.228z"/>
		</g>
	</g>
</g>
</svg>
