<?xml version="1.0" encoding="iso-8859-1"?>
<!-- Generator: Adobe Illustrator 16.0.0, SVG Export Plug-In . SVG Version: 6.00 Build 0)  -->
<!DOCTYPE svg PUBLIC "-//W3C//DTD SVG 1.1//EN" "http://www.w3.org/Graphics/SVG/1.1/DTD/svg11.dtd">
<svg version="1.1" id="&#x56FE;&#x5C42;_1" xmlns="http://www.w3.org/2000/svg" xmlns:xlink="http://www.w3.org/1999/xlink" x="0px"
	 y="0px" width="22px" height="22px" viewBox="0 0 22 22" style="enable-background:new 0 0 22 22;" xml:space="preserve">
<g id="handset">
	<g>
		<path style="fill-rule:evenodd;clip-rule:evenodd;fill:#2393D2;" d="M5.373,16.018h0.729V9.135H5.373V16.018z M20.677,12.577
			c0-1.923-1.172-2.77-2.188-3.145V7.57c0-3.629-3.425-6.57-7.651-6.57C6.612,1,3.187,3.941,3.187,7.57v1.861
			C2.172,9.807,1,10.654,1,12.577c0,3.391,3.644,3.441,3.644,3.441v-1.252h0.019c-0.007-0.104-0.019-0.207-0.019-0.313V7.57
			c0-2.937,2.773-5.318,6.194-5.318c3.42,0,6.195,2.381,6.195,5.318v6.883c0,0.105-0.013,0.209-0.02,0.313h0.02v1.252
			c0,0,0.276-0.006,0.673-0.08l-2.023,1.736c-0.285-0.244-0.746-0.244-1.03,0l-2.062,1.77c-0.285,0.244-0.285,0.641,0,0.885
			l0.516,0.443c0.284,0.244,0.745,0.244,1.03,0l2.062-1.77c0.284-0.246,0.284-0.641,0-0.887l3.092-2.654l-0.093-0.078
			C19.981,14.901,20.677,14.057,20.677,12.577z M16.305,9.135h-0.73v6.883h0.73V9.135z"/>
	</g>
</g>
</svg>
