<?xml version="1.0" encoding="iso-8859-1"?>
<!-- Generator: Adobe Illustrator 16.0.0, SVG Export Plug-In . SVG Version: 6.00 Build 0)  -->
<!DOCTYPE svg PUBLIC "-//W3C//DTD SVG 1.1//EN" "http://www.w3.org/Graphics/SVG/1.1/DTD/svg11.dtd">
<svg version="1.1" xmlns="http://www.w3.org/2000/svg" xmlns:xlink="http://www.w3.org/1999/xlink" x="0px" y="0px" width="25px"
	 height="25px" viewBox="0 0 25 25" style="enable-background:new 0 0 25 25;" xml:space="preserve">
<g id="&#x56FE;&#x5C42;_2">
</g>
<g id="&#x56FE;&#x5C42;_1">
	<g id="&#x56FE;&#x5C42;_1_1_">
		<g id="handset">
			<g>
				<path style="fill:#2F83B7;" d="M5.654,18.815h0.913v-8.622H5.654V18.815z M24.825,14.505c0-2.41-1.469-3.47-2.739-3.941V8.232
					C22.086,3.686,17.794,0,12.499,0S2.915,3.686,2.915,8.232v2.332c-1.272,0.472-2.74,1.531-2.74,3.941
					c0,4.249,4.565,4.311,4.565,4.311v-1.569h0.024c-0.009-0.129-0.024-0.258-0.024-0.391V8.232c0-3.68,3.474-6.664,7.76-6.664
					c4.284,0,7.76,2.982,7.76,6.664v8.624c0,0.133-0.016,0.262-0.022,0.391h0.022v1.569c0,0,0.348-0.008,0.846-0.1l-2.532,2.176
					c-0.358-0.305-0.936-0.305-1.293,0l-2.585,2.216c-0.355,0.305-0.355,0.805,0,1.109l0.648,0.555c0.354,0.305,0.932,0.305,1.289,0
					l2.584-2.217c0.355-0.307,0.355-0.804,0-1.111l3.874-3.325l-0.117-0.096C23.953,17.418,24.825,16.36,24.825,14.505z
					 M19.349,10.193h-0.914v8.622h0.914V10.193z"/>
			</g>
		</g>
	</g>
</g>
</svg>
