<?xml version="1.0" encoding="iso-8859-1"?>
<!-- Generator: Adobe Illustrator 16.0.0, SVG Export Plug-In . SVG Version: 6.00 Build 0)  -->
<!DOCTYPE svg PUBLIC "-//W3C//DTD SVG 1.1//EN" "http://www.w3.org/Graphics/SVG/1.1/DTD/svg11.dtd">
<svg version="1.1" xmlns="http://www.w3.org/2000/svg" xmlns:xlink="http://www.w3.org/1999/xlink" x="0px" y="0px" width="25px"
	 height="25px" viewBox="0 0 25 25" style="enable-background:new 0 0 25 25;" xml:space="preserve">
<g id="&#x56FE;&#x5C42;_2">
</g>
<g id="&#x56FE;&#x5C42;_1">
	<g id="&#x56FE;&#x5C42;_1_1_">
		<g id="Shape_14">
			<g>
				<path style="fill:#2E86BA;" d="M22.184,12.256c-0.801,0-1.453,0.658-1.453,1.471c0,4.594-3.692,8.334-8.232,8.334
					c-4.537,0-8.23-3.74-8.23-8.334c0-4.595,3.692-8.334,8.23-8.334h0.003v2.452l5.812-3.923L12.501,0v2.451H12.5
					c-6.14,0-11.136,5.058-11.136,11.276C1.364,19.941,6.361,25,12.5,25c6.142,0,11.136-5.059,11.136-11.275
					C23.636,12.914,22.986,12.256,22.184,12.256z M12.431,8.907c-0.383,0-0.696,0.313-0.696,0.698v5.293l-2.834,2.878
					c-0.354,0.362-0.354,0.946,0,1.307l0.428,0.438c0.356,0.36,0.933,0.36,1.289,0l3.433-3.488c0.103-0.104,0.167-0.229,0.211-0.356
					c0.036-0.084,0.057-0.178,0.057-0.273V9.604c0-0.385-0.312-0.698-0.695-0.698H12.431z"/>
			</g>
		</g>
	</g>
</g>
</svg>
