<?xml version="1.0" encoding="iso-8859-1"?>
<!-- Generator: Adobe Illustrator 16.0.0, SVG Export Plug-In . SVG Version: 6.00 Build 0)  -->
<!DOCTYPE svg PUBLIC "-//W3C//DTD SVG 1.1//EN" "http://www.w3.org/Graphics/SVG/1.1/DTD/svg11.dtd">
<svg version="1.1" xmlns="http://www.w3.org/2000/svg" xmlns:xlink="http://www.w3.org/1999/xlink" x="0px" y="0px" width="30px"
	 height="22px" viewBox="0 0 30 22" style="enable-background:new 0 0 30 22;" xml:space="preserve">
<g id="&#x56FE;&#x5C42;_2">
</g>
<g id="&#x56FE;&#x5C42;_1">
	<g id="Shape_14">
		<g>
			<path style="fill:#2A8DC6;" d="M22.344,10.753c-0.607,0-1.102,0.499-1.102,1.115c0,3.484-2.801,6.321-6.243,6.321
				c-3.441,0-6.242-2.837-6.242-6.321s2.8-6.32,6.242-6.32h0.002v1.859l4.407-2.975l-4.407-2.974v1.859H15
				c-4.656,0-8.445,3.836-8.445,8.551c0,4.714,3.79,8.55,8.445,8.55c4.657,0,8.446-3.837,8.446-8.551
				C23.445,11.252,22.953,10.753,22.344,10.753z M14.948,8.213c-0.291,0-0.528,0.237-0.528,0.529v4.015l-2.149,2.182
				c-0.269,0.275-0.269,0.718,0,0.991l0.324,0.332c0.271,0.273,0.708,0.273,0.978,0l2.604-2.646c0.077-0.078,0.126-0.172,0.159-0.27
				c0.027-0.064,0.043-0.134,0.043-0.207V8.742c0-0.292-0.236-0.529-0.527-0.529H14.948z"/>
		</g>
	</g>
</g>
</svg>
