<?xml version="1.0" encoding="iso-8859-1"?>
<!-- Generator: Adobe Illustrator 16.0.0, SVG Export Plug-In . SVG Version: 6.00 Build 0)  -->
<!DOCTYPE svg PUBLIC "-//W3C//DTD SVG 1.1//EN" "http://www.w3.org/Graphics/SVG/1.1/DTD/svg11.dtd">
<svg version="1.1" id="&#x56FE;&#x5C42;_1" xmlns="http://www.w3.org/2000/svg" xmlns:xlink="http://www.w3.org/1999/xlink" x="0px"
	 y="0px" width="22px" height="22px" viewBox="0 0 22 22" style="enable-background:new 0 0 22 22;" xml:space="preserve">
<g id="Shape_14">
	<g>
		<path style="fill-rule:evenodd;clip-rule:evenodd;fill:#2096D5;" d="M18.529,11.298c-0.674,0-1.22,0.552-1.22,1.234
			c0,3.858-3.101,6.999-6.912,6.999s-6.912-3.141-6.912-6.999s3.101-6.998,6.912-6.998h0.001v2.059l4.879-3.294l-4.879-3.293v2.059
			h-0.001c-5.156,0-9.352,4.248-9.352,9.468S5.241,22,10.397,22s9.352-4.248,9.352-9.468C19.749,11.85,19.203,11.298,18.529,11.298z
			 M10.34,8.485c-0.323,0-0.585,0.262-0.585,0.585v4.445l-2.38,2.417c-0.298,0.304-0.298,0.795,0,1.098l0.36,0.367
			c0.299,0.303,0.783,0.303,1.082,0l2.883-2.929c0.085-0.087,0.14-0.19,0.176-0.299c0.03-0.071,0.048-0.148,0.048-0.23V9.07
			c0-0.323-0.262-0.585-0.584-0.585H10.34z"/>
	</g>
</g>
</svg>
