<?xml version="1.0" encoding="iso-8859-1"?>
<!-- Generator: Adobe Illustrator 16.0.0, SVG Export Plug-In . SVG Version: 6.00 Build 0)  -->
<!DOCTYPE svg PUBLIC "-//W3C//DTD SVG 1.1//EN" "http://www.w3.org/Graphics/SVG/1.1/DTD/svg11.dtd">
<svg version="1.1" xmlns="http://www.w3.org/2000/svg" xmlns:xlink="http://www.w3.org/1999/xlink" x="0px" y="0px" width="30px"
	 height="22px" viewBox="0 0 30 22" style="enable-background:new 0 0 30 22;" xml:space="preserve">
<g id="&#x56FE;&#x5C42;_2">
</g>
<g id="&#x56FE;&#x5C42;_1">
	<g id="&#x692D;&#x5706;_25">
		<g>
			<path style="fill:#1F7EBB;" d="M16.77,11.937V6.316h-0.937v5.21l-2.787,2.788l0.662,0.663l3.038-3.038h0.023V11.937z
				 M15.833,1.631c-3.931,0-7.269,2.435-8.658,5.865L5.61,4.786L4.799,5.254l2.342,4.057l0.812-0.469l3.245-1.873l-0.468-0.811
				L8.125,7.661c1.296-2.988,4.242-5.093,7.708-5.093c4.657,0,8.431,3.774,8.431,8.432c0,4.657-3.773,8.432-8.431,8.432
				c-4.34,0-7.91-3.28-8.376-7.495H6.512c0.47,4.734,4.463,8.431,9.321,8.431c5.173,0,9.368-4.196,9.368-9.368
				C25.201,5.826,21.007,1.631,15.833,1.631z"/>
		</g>
	</g>
</g>
</svg>
