<?xml version="1.0" encoding="iso-8859-1"?>
<!-- Generator: Adobe Illustrator 16.0.0, SVG Export Plug-In . SVG Version: 6.00 Build 0)  -->
<!DOCTYPE svg PUBLIC "-//W3C//DTD SVG 1.1//EN" "http://www.w3.org/Graphics/SVG/1.1/DTD/svg11.dtd">
<svg version="1.1" xmlns="http://www.w3.org/2000/svg" xmlns:xlink="http://www.w3.org/1999/xlink" x="0px" y="0px" width="25px"
	 height="25px" viewBox="0 0 25 25" style="enable-background:new 0 0 25 25;" xml:space="preserve">
<g id="&#x56FE;&#x5C42;_2">
</g>
<g id="&#x56FE;&#x5C42;_1">
	<g id="&#x56FE;&#x5C42;_1_1_">
		<g id="&#x692D;&#x5706;_25">
			<g>
				<path style="fill:#2578AF;" d="M14.668,13.648V6.761h-1.147v6.383l-3.415,3.418l0.812,0.811l3.723-3.721h0.028V13.648
					L14.668,13.648z M13.521,1.02c-4.817,0-8.907,2.984-10.609,7.187L0.994,4.886L0,5.459l2.87,4.972l0.995-0.575l3.976-2.295
					L7.268,6.568L4.076,8.409c1.588-3.662,5.198-6.241,9.445-6.241c5.707,0,10.331,4.624,10.331,10.332
					c0,5.707-4.623,10.332-10.331,10.332c-5.317,0-9.692-4.018-10.263-9.184H2.1C2.675,19.449,7.568,23.98,13.521,23.98
					C19.859,23.98,25,18.838,25,12.5C25,6.161,19.86,1.02,13.521,1.02z"/>
			</g>
		</g>
	</g>
</g>
</svg>
