<?xml version="1.0" encoding="iso-8859-1"?>
<!-- Generator: Adobe Illustrator 16.0.0, SVG Export Plug-In . SVG Version: 6.00 Build 0)  -->
<!DOCTYPE svg PUBLIC "-//W3C//DTD SVG 1.1//EN" "http://www.w3.org/Graphics/SVG/1.1/DTD/svg11.dtd">
<svg version="1.1" id="&#x56FE;&#x5C42;_1" xmlns="http://www.w3.org/2000/svg" xmlns:xlink="http://www.w3.org/1999/xlink" x="0px"
	 y="0px" width="22px" height="22px" viewBox="0 0 22 22" style="enable-background:new 0 0 22 22;" xml:space="preserve">
<g id="&#x692D;&#x5706;_25">
	<g>
		<path style="fill-rule:evenodd;clip-rule:evenodd;fill:#1685C8;" d="M12.889,12.188v-6h-1v5.561l-2.975,2.975l0.707,0.707
			l3.242-3.242H12.889z M11.889,1.188c-4.195,0-7.758,2.598-9.242,6.26l-1.67-2.893l-0.866,0.5l2.5,4.33l0.866-0.5l3.464-2
			l-0.5-0.866L3.662,7.623c1.383-3.189,4.528-5.436,8.227-5.436c4.971,0,9,4.029,9,9c0,4.971-4.029,9-9,9
			c-4.632,0-8.443-3.502-8.941-8H1.939c0.502,5.053,4.764,9,9.949,9c5.522,0,10-4.479,10-10C21.889,5.665,17.411,1.188,11.889,1.188
			z"/>
	</g>
</g>
</svg>
