<?xml version="1.0" encoding="iso-8859-1"?>
<!-- Generator: Adobe Illustrator 16.0.0, SVG Export Plug-In . SVG Version: 6.00 Build 0)  -->
<!DOCTYPE svg PUBLIC "-//W3C//DTD SVG 1.1//EN" "http://www.w3.org/Graphics/SVG/1.1/DTD/svg11.dtd">
<svg version="1.1" xmlns="http://www.w3.org/2000/svg" xmlns:xlink="http://www.w3.org/1999/xlink" x="0px" y="0px" width="30px"
	 height="22px" viewBox="0 0 30 22" style="enable-background:new 0 0 30 22;" xml:space="preserve">
<g id="&#x56FE;&#x5C42;_2">
</g>
<g id="&#x56FE;&#x5C42;_1">
	<g>
		<path style="fill:#D71718;" d="M6.326,4.903c-0.098,0.093-2.18,2.12-2.029,4.15c0.084,1.574,1.268,2.504,1.268,2.504
			c1.907,1.856,6.523,4.203,7.596,4.734c0.014,0.006,0.069,0.025,0.103-0.018c0,0,0.043-0.033,0.021-0.093l0,0
			C10.391,9.86,6.451,5.046,6.331,4.903H6.326z"/>
		<path style="fill:#D71718;" d="M12.549,17.861c-0.012-0.043-0.05-0.059-0.074-0.064h-0.182l-7.522,0.261v0.011
			c0.834,1.481,2.235,2.63,3.694,2.275c1.009-0.253,3.294-1.847,4.049-2.385l-0.001-0.002C12.57,17.904,12.549,17.861,12.549,17.861
			z"/>
		<path style="fill:#D71718;" d="M12.636,17.057c-3.375-2.273-9.916-5.77-9.916-5.77c-0.594,1.841,0.208,3.322,0.208,3.322
			c0.833,1.762,2.424,2.297,2.424,2.297c0.735,0.301,1.47,0.322,1.47,0.322c0.115,0.021,4.57,0.002,5.764-0.004
			c0.05,0,0.079-0.051,0.079-0.051c0.037-0.062-0.029-0.115-0.029-0.115V17.057z"/>
		<path style="fill:#D71718;" d="M11.938,1.815C9.904,2.342,9.423,4.186,9.423,4.186c-0.372,1.164,0.01,2.439,0.01,2.439
			c0.679,3.013,4.021,7.964,4.738,9.003c0.051,0.051,0.091,0.03,0.091,0.03c0.077-0.021,0.072-0.093,0.072-0.093l0.002,0.001
			C15.44,4.511,13.175,1.582,13.175,1.582C12.841,1.61,11.938,1.815,11.938,1.815z"/>
		<path style="fill:#D71718;" d="M20.565,6.625c0,0,0.368-1.454,0.012-2.439c0,0-0.501-1.874-2.536-2.37
			c0,0-0.588-0.148-1.214-0.234c0,0-2.274,2.93-1.169,13.993h0.002c0.007,0.069,0.062,0.081,0.062,0.081
			c0.072,0.029,0.109-0.041,0.109-0.041v0.003C16.566,14.549,19.889,9.625,20.565,6.625z"/>
		<path style="fill:#D71718;" d="M17.54,17.797c0,0-0.07,0.011-0.087,0.061c0,0-0.016,0.068,0.029,0.104
			c0.733,0.527,2.965,2.086,4.04,2.39c0,0,1.985,0.677,3.71-2.288l-7.692-0.269V17.797z"/>
		<path style="fill:#D71718;" d="M27.278,11.271c0,0-6.532,3.504-9.91,5.783v0.001c0,0-0.059,0.039-0.036,0.11
			c0,0,0.03,0.06,0.077,0.06l0,0c1.208,0.002,5.785,0.006,5.9-0.016c0,0,0.59-0.023,1.324-0.303c0,0,1.627-0.518,2.472-2.368
			C27.105,14.538,27.859,13.031,27.278,11.271z"/>
		<path style="fill:#D71718;" d="M24.433,11.557c0,0,1.201-0.966,1.264-2.515c0.139-2.151-2.025-4.144-2.025-4.144
			s-4.006,4.85-6.943,11.253h0.002c0,0-0.033,0.076,0.021,0.124c0,0,0.053,0.039,0.104,0.007v0.001
			C17.953,15.734,22.538,13.406,24.433,11.557z"/>
	</g>
</g>
</svg>
