<?xml version="1.0" encoding="iso-8859-1"?>
<!-- Generator: Adobe Illustrator 16.0.0, SVG Export Plug-In . SVG Version: 6.00 Build 0)  -->
<!DOCTYPE svg PUBLIC "-//W3C//DTD SVG 1.1//EN" "http://www.w3.org/Graphics/SVG/1.1/DTD/svg11.dtd">
<svg version="1.1" id="&#x56FE;&#x5C42;_1" xmlns="http://www.w3.org/2000/svg" xmlns:xlink="http://www.w3.org/1999/xlink" x="0px"
	 y="0px" width="22px" height="22px" viewBox="0 0 22 22" style="enable-background:new 0 0 22 22;" xml:space="preserve">
<g>
	<path style="fill:#E60012;" d="M4.018,6.607C3.938,6.683,2.236,8.34,2.36,10c0.068,1.286,1.036,2.047,1.036,2.047
		c1.559,1.518,5.332,3.436,6.209,3.87c0.012,0.005,0.057,0.02,0.084-0.014c0,0,0.036-0.028,0.017-0.076h0
		C7.341,10.66,4.12,6.725,4.022,6.607H4.018z"/>
	<path style="fill:#E60012;" d="M9.105,17.201c-0.01-0.035-0.04-0.049-0.06-0.053H8.896l-6.149,0.214v0.008
		c0.682,1.211,1.827,2.149,3.02,1.86c0.825-0.206,2.693-1.509,3.31-1.949l-0.001-0.002C9.122,17.236,9.105,17.201,9.105,17.201z"/>
	<path style="fill:#E60012;" d="M9.177,16.543c-2.759-1.86-8.106-4.717-8.106-4.717c-0.486,1.505,0.169,2.716,0.169,2.716
		c0.682,1.441,1.982,1.878,1.982,1.878c0.601,0.246,1.202,0.264,1.202,0.264C4.518,16.7,8.16,16.685,9.136,16.68
		c0.041,0,0.064-0.042,0.064-0.042c0.031-0.049-0.023-0.093-0.023-0.093L9.177,16.543z"/>
	<path style="fill:#E60012;" d="M8.606,4.083C6.943,4.513,6.55,6.022,6.55,6.022c-0.304,0.95,0.008,1.993,0.008,1.993
		c0.555,2.463,3.287,6.51,3.874,7.36c0.041,0.042,0.074,0.026,0.074,0.026c0.063-0.018,0.059-0.078,0.059-0.078l0.001,0.001
		C11.469,6.287,9.617,3.892,9.617,3.892C9.344,3.916,8.606,4.083,8.606,4.083z"/>
	<path style="fill:#E60012;" d="M15.659,8.015c0,0,0.301-1.188,0.01-1.993c0,0-0.41-1.532-2.074-1.938c0,0-0.48-0.121-0.991-0.192
		c0,0-1.861,2.396-0.957,11.439h0.002c0.006,0.057,0.049,0.068,0.049,0.068c0.059,0.023,0.09-0.034,0.09-0.034v0.001
		C12.391,14.493,15.106,10.468,15.659,8.015z"/>
	<path style="fill:#E60012;" d="M13.185,17.149c0,0-0.057,0.008-0.07,0.048c0,0-0.014,0.057,0.023,0.085
		c0.6,0.432,2.424,1.706,3.303,1.954c0,0,1.623,0.554,3.033-1.87l-6.289-0.219V17.149z"/>
	<path style="fill:#E60012;" d="M21.146,11.812c0,0-5.34,2.865-8.1,4.728v0.001c0,0-0.049,0.032-0.031,0.091
		c0,0,0.025,0.047,0.064,0.047v0.001c0.988,0.002,4.729,0.006,4.824-0.012c0,0,0.482-0.02,1.082-0.248c0,0,1.33-0.424,2.02-1.936
		C21.005,14.484,21.622,13.252,21.146,11.812z"/>
	<path style="fill:#E60012;" d="M18.821,12.047c0,0,0.982-0.79,1.033-2.056c0.113-1.759-1.656-3.387-1.656-3.387
		s-3.275,3.965-5.677,9.199h0.002c0,0-0.027,0.062,0.018,0.101c0,0,0.043,0.032,0.084,0.005v0.001
		C13.524,15.462,17.271,13.558,18.821,12.047z"/>
</g>
</svg>

