<?xml version="1.0" encoding="iso-8859-1"?>
<!-- Generator: Adobe Illustrator 16.0.0, SVG Export Plug-In . SVG Version: 6.00 Build 0)  -->
<!DOCTYPE svg PUBLIC "-//W3C//DTD SVG 1.1//EN" "http://www.w3.org/Graphics/SVG/1.1/DTD/svg11.dtd">
<svg version="1.1" xmlns="http://www.w3.org/2000/svg" xmlns:xlink="http://www.w3.org/1999/xlink" x="0px" y="0px" width="25px"
	 height="25px" viewBox="0 0 25 25" style="enable-background:new 0 0 25 25;" xml:space="preserve">
<g id="&#x56FE;&#x5C42;_2">
</g>
<g id="&#x56FE;&#x5C42;_1">
	<g id="&#x56FE;&#x5C42;_1_1_">
		<g>
			<path style="fill:#CA201D;" d="M3.826,6.402c-0.098,0.093-2.181,2.121-2.03,4.151c0.084,1.574,1.269,2.503,1.269,2.503
				c1.907,1.856,6.523,4.204,7.597,4.735c0.014,0.006,0.069,0.025,0.103-0.018c0,0,0.043-0.033,0.021-0.094l0,0
				C7.891,11.359,3.951,6.545,3.831,6.402H3.826z"/>
			<path style="fill:#CA201D;" d="M10.049,19.362c-0.012-0.043-0.05-0.06-0.074-0.064H9.793L2.27,19.56v0.01
				c0.834,1.481,2.235,2.631,3.694,2.275c1.01-0.253,3.294-1.847,4.05-2.385v-0.002C10.071,19.405,10.049,19.362,10.049,19.362z"/>
			<path style="fill:#CA201D;" d="M10.136,18.558c-3.375-2.273-9.917-5.771-9.917-5.771c-0.594,1.841,0.208,3.322,0.208,3.322
				c0.833,1.763,2.424,2.298,2.424,2.298c0.735,0.301,1.47,0.322,1.47,0.322c0.115,0.021,4.571,0.002,5.765-0.004
				c0.05,0,0.079-0.052,0.079-0.052c0.037-0.062-0.029-0.114-0.029-0.114V18.558z"/>
			<path style="fill:#CA201D;" d="M9.438,3.314C7.404,3.841,6.923,5.685,6.923,5.685C6.55,6.85,6.933,8.125,6.933,8.125
				c0.679,3.014,4.021,7.964,4.738,9.004c0.052,0.052,0.091,0.03,0.091,0.03c0.077-0.021,0.072-0.094,0.072-0.094l0.002,0.002
				C12.94,6.01,10.675,3.081,10.675,3.081C10.341,3.109,9.438,3.314,9.438,3.314z"/>
			<path style="fill:#CA201D;" d="M18.065,8.125c0,0,0.369-1.454,0.013-2.439c0,0-0.501-1.874-2.537-2.37
				c0,0-0.588-0.148-1.214-0.234c0,0-2.274,2.93-1.168,13.995h0.002c0.007,0.069,0.063,0.081,0.063,0.081
				c0.071,0.029,0.108-0.041,0.108-0.041v0.003C14.066,16.049,17.39,11.125,18.065,8.125z"/>
			<path style="fill:#CA201D;" d="M15.04,19.298c0,0-0.069,0.012-0.087,0.061c0,0-0.016,0.068,0.029,0.104
				c0.732,0.527,2.966,2.086,4.04,2.39c0,0,1.985,0.678,3.711-2.287l-7.693-0.27V19.298z"/>
			<path style="fill:#CA201D;" d="M24.779,12.771c0,0-6.532,3.504-9.911,5.784l0,0c0,0-0.06,0.039-0.036,0.11
				c0,0,0.029,0.06,0.077,0.06l0,0c1.208,0.002,5.785,0.006,5.9-0.016c0,0,0.59-0.023,1.324-0.303c0,0,1.627-0.518,2.474-2.369
				C24.607,16.038,25.361,14.531,24.779,12.771z"/>
			<path style="fill:#CA201D;" d="M21.935,13.057c0,0,1.2-0.966,1.264-2.515c0.139-2.151-2.025-4.145-2.025-4.145
				s-4.006,4.851-6.944,11.254h0.002c0,0-0.032,0.076,0.021,0.125c0,0,0.053,0.039,0.104,0.007v0.001
				C15.453,17.235,20.039,14.906,21.935,13.057z"/>
		</g>
	</g>
</g>
</svg>
