<?xml version="1.0" encoding="iso-8859-1"?>
<!-- Generator: Adobe Illustrator 16.0.0, SVG Export Plug-In . SVG Version: 6.00 Build 0)  -->
<!DOCTYPE svg PUBLIC "-//W3C//DTD SVG 1.1//EN" "http://www.w3.org/Graphics/SVG/1.1/DTD/svg11.dtd">
<svg version="1.1" id="&#x56FE;&#x5C42;_1" xmlns="http://www.w3.org/2000/svg" xmlns:xlink="http://www.w3.org/1999/xlink" x="0px"
	 y="0px" width="22px" height="22px" viewBox="0 0 22 22" style="enable-background:new 0 0 22 22;" xml:space="preserve">
<g>
	<defs>
		<path id="SVGID_1_" d="M4.101,5.927C4.022,6.002,2.333,7.648,2.456,9.295c0.068,1.276,1.028,2.031,1.028,2.031
			c1.547,1.507,5.292,3.411,6.163,3.842c0.012,0.005,0.057,0.02,0.083-0.014c0,0,0.036-0.028,0.017-0.074h0
			C7.4,9.951,4.202,6.044,4.106,5.927H4.101z"/>
	</defs>
	<use xlink:href="#SVGID_1_"  style="overflow:visible;fill:#6B6B6B;"/>
	<clipPath id="SVGID_2_">
		<use xlink:href="#SVGID_1_"  style="overflow:visible;"/>
	</clipPath>
	<rect x="2.329" y="5.927" style="clip-path:url(#SVGID_2_);fill:#6B6B6B;" width="7.433" height="9.262"/>
</g>
<g>
	<defs>
		<path id="SVGID_3_" d="M8.943,16.39L2.84,16.604v0.007c0.677,1.202,1.813,2.134,2.998,1.847c0.818-0.204,2.673-1.498,3.285-1.936
			l-0.001-0.001c0.047-0.043,0.03-0.077,0.03-0.077c-0.01-0.036-0.039-0.049-0.06-0.054H8.943z"/>
	</defs>
	<use xlink:href="#SVGID_3_"  style="overflow:visible;fill:#6B6B6B;"/>
	<clipPath id="SVGID_4_">
		<use xlink:href="#SVGID_3_"  style="overflow:visible;"/>
	</clipPath>
	<rect x="2.84" y="16.39" style="clip-path:url(#SVGID_4_);fill:#6B6B6B;" width="6.336" height="2.355"/>
</g>
<g>
	<defs>
		<path id="SVGID_5_" d="M1.343,13.804c0.677,1.431,1.968,1.863,1.968,1.863c0.597,0.245,1.192,0.262,1.192,0.262
			c0.094,0.018,3.708,0.001,4.677-0.003c0.041-0.001,0.063-0.042,0.063-0.042c0.031-0.049-0.023-0.093-0.023-0.093l0-0.002
			c-2.739-1.847-8.046-4.682-8.046-4.682C0.693,12.6,1.343,13.804,1.343,13.804"/>
	</defs>
	<use xlink:href="#SVGID_5_"  style="overflow:visible;fill:#6B6B6B;"/>
	<clipPath id="SVGID_6_">
		<use xlink:href="#SVGID_5_"  style="overflow:visible;"/>
	</clipPath>
	<rect x="0.697" y="11.103" style="clip-path:url(#SVGID_6_);fill:#6B6B6B;" width="8.588" height="4.842"/>
</g>
<g>
	<defs>
		<path id="SVGID_7_" d="M8.655,3.422C7.004,3.848,6.615,5.347,6.615,5.347C6.313,6.29,6.622,7.325,6.622,7.325
			c0.551,2.445,3.263,6.463,3.846,7.306c0.041,0.042,0.074,0.026,0.074,0.026c0.063-0.018,0.058-0.077,0.058-0.077l0.001,0.001
			C11.498,5.609,9.659,3.232,9.659,3.232C9.388,3.255,8.655,3.422,8.655,3.422"/>
	</defs>
	<use xlink:href="#SVGID_7_"  style="overflow:visible;fill:#6B6B6B;"/>
	<clipPath id="SVGID_8_">
		<use xlink:href="#SVGID_7_"  style="overflow:visible;"/>
	</clipPath>
	<rect x="6.318" y="3.227" style="clip-path:url(#SVGID_8_);fill:#6B6B6B;" width="5.179" height="11.441"/>
</g>
<g>
	<defs>
		<path id="SVGID_9_" d="M11.675,14.586L11.675,14.586c0.008,0.057,0.049,0.068,0.049,0.068c0.06,0.024,0.09-0.034,0.09-0.034
			l0,0.001c0.598-0.866,3.294-4.861,3.843-7.297c0,0,0.297-1.18,0.01-1.978c0,0-0.408-1.521-2.061-1.924
			c0,0-0.477-0.121-0.982-0.191C12.624,3.232,10.776,5.61,11.675,14.586"/>
	</defs>
	<use xlink:href="#SVGID_9_"  style="overflow:visible;fill:#6B6B6B;"/>
	<clipPath id="SVGID_10_">
		<use xlink:href="#SVGID_9_"  style="overflow:visible;"/>
	</clipPath>
	<rect x="10.776" y="3.232" style="clip-path:url(#SVGID_10_);fill:#6B6B6B;" width="5.178" height="11.447"/>
</g>
<g>
	<defs>
		<path id="SVGID_11_" d="M13.199,16.392c0,0-0.055,0.007-0.069,0.047c0,0-0.014,0.058,0.023,0.085h-0.001
			c0.597,0.429,2.407,1.693,3.278,1.939c0,0,1.612,0.55,3.012-1.856L13.2,16.39L13.199,16.392z"/>
	</defs>
	<use xlink:href="#SVGID_11_"  style="overflow:visible;fill:#6B6B6B;"/>
	<clipPath id="SVGID_12_">
		<use xlink:href="#SVGID_11_"  style="overflow:visible;"/>
	</clipPath>
	<rect x="13.116" y="16.39" style="clip-path:url(#SVGID_12_);fill:#6B6B6B;" width="6.326" height="2.623"/>
</g>
<g>
	<defs>
		<path id="SVGID_13_" d="M13.062,15.787l0.001,0.002c0,0-0.05,0.031-0.032,0.089c0,0,0.025,0.048,0.064,0.048l0,0
			c0.98,0.002,4.694,0.007,4.789-0.012c0,0,0.479-0.019,1.073-0.246c0,0,1.321-0.419,2.007-1.921c0,0,0.612-1.223,0.139-2.652
			C21.103,11.094,15.802,13.938,13.062,15.787"/>
	</defs>
	<use xlink:href="#SVGID_13_"  style="overflow:visible;fill:#6B6B6B;"/>
	<clipPath id="SVGID_14_">
		<use xlink:href="#SVGID_13_"  style="overflow:visible;"/>
	</clipPath>
	<rect x="13.013" y="11.094" style="clip-path:url(#SVGID_14_);fill:#6B6B6B;" width="8.563" height="4.838"/>
</g>
<g>
	<defs>
		<path id="SVGID_15_" d="M12.542,15.055h0.002c0,0-0.028,0.061,0.018,0.1c0,0,0.043,0.032,0.084,0.005v0.002
			c0.893-0.444,4.609-2.335,6.148-3.835c0,0,0.976-0.783,1.026-2.04c0.112-1.746-1.645-3.362-1.645-3.362S14.925,9.86,12.542,15.055
			"/>
	</defs>
	<use xlink:href="#SVGID_15_"  style="overflow:visible;fill:#6B6B6B;"/>
	<clipPath id="SVGID_16_">
		<use xlink:href="#SVGID_15_"  style="overflow:visible;"/>
	</clipPath>
	<rect x="12.516" y="5.924" style="clip-path:url(#SVGID_16_);fill:#6B6B6B;" width="7.417" height="9.263"/>
</g>
</svg>
