<?xml version="1.0" encoding="iso-8859-1"?>
<!-- Generator: Adobe Illustrator 16.0.0, SVG Export Plug-In . SVG Version: 6.00 Build 0)  -->
<!DOCTYPE svg PUBLIC "-//W3C//DTD SVG 1.1//EN" "http://www.w3.org/Graphics/SVG/1.1/DTD/svg11.dtd">
<svg version="1.1" id="&#x56FE;&#x5C42;_1" xmlns="http://www.w3.org/2000/svg" xmlns:xlink="http://www.w3.org/1999/xlink" x="0px"
	 y="0px" width="22px" height="22px" viewBox="0 0 22 22" style="enable-background:new 0 0 22 22;" xml:space="preserve">
<g id="&#x5706;&#x89D2;&#x77E9;&#x5F62;_22">
	<g>
		<path style="fill-rule:evenodd;clip-rule:evenodd;fill:#1685C8;" d="M16.563,1.625h-10c-2.762,0-5,2.238-5,5v10
			c0,2.762,2.238,5,5,5h10c2.762,0,5-2.238,5-5v-10C21.563,3.863,19.324,1.625,16.563,1.625z M20.563,16.625c0,2.209-1.791,4-4,4
			h-10c-2.209,0-4-1.791-4-4v-10c0-2.209,1.791-4,4-4h10c2.209,0,4,1.791,4,4V16.625z M11.563,4.625c-1.104,0-2,0.896-2,2
			s0.896,2,2,2s2-0.896,2-2S12.667,4.625,11.563,4.625z M11.563,7.625c-0.553,0-1-0.447-1-1s0.447-1,1-1s1,0.447,1,1
			S12.115,7.625,11.563,7.625z"/>
	</g>
</g>
<g id="&#x77E9;&#x5F62;_49">
	<g>
		<path style="fill-rule:evenodd;clip-rule:evenodd;fill:#1685C8;" d="M15.777,11.649c-1.927,0.026-3.052,4.418-4.215,4.474
			c-1.247,0.06-1.772-6.486-4.56-6.486c-2.714,0-3.44,7.988-3.44,7.988h1c0,0,0.895-7.132,2.5-7c1.733,0.143,2.663,6.811,4.5,6.686
			c1.809-0.123,3.197-4.756,4.191-4.658c0.972,0.096,3.003,4.973,3.003,4.973h1C19.757,17.625,17.569,11.625,15.777,11.649z"/>
	</g>
</g>
</svg>
