<?xml version="1.0" encoding="iso-8859-1"?>
<!-- Generator: Adobe Illustrator 16.0.0, SVG Export Plug-In . SVG Version: 6.00 Build 0)  -->
<!DOCTYPE svg PUBLIC "-//W3C//DTD SVG 1.1//EN" "http://www.w3.org/Graphics/SVG/1.1/DTD/svg11.dtd">
<svg version="1.1" xmlns="http://www.w3.org/2000/svg" xmlns:xlink="http://www.w3.org/1999/xlink" x="0px" y="0px" width="30px"
	 height="22px" viewBox="0 0 30 22" style="enable-background:new 0 0 30 22;" xml:space="preserve">
<g id="&#x56FE;&#x5C42;_2">
</g>
<g id="&#x56FE;&#x5C42;_1">
	<g id="&#x5706;&#x89D2;&#x77E9;&#x5F62;_22">
		<g>
			<path style="fill:#1F7EBB;" d="M19.688,1.625h-9.375c-2.589,0-4.688,2.099-4.688,4.688v9.375c0,2.589,2.099,4.688,4.688,4.688
				h9.375c2.59,0,4.688-2.099,4.688-4.688V6.313C24.375,3.724,22.276,1.625,19.688,1.625z M23.438,15.688
				c0,2.071-1.679,3.75-3.75,3.75h-9.375c-2.071,0-3.75-1.679-3.75-3.75V6.313c0-2.071,1.679-3.75,3.75-3.75h9.375
				c2.071,0,3.75,1.679,3.75,3.75V15.688z M15,4.438c-1.035,0-1.875,0.84-1.875,1.875S13.965,8.188,15,8.188
				c1.035,0,1.875-0.84,1.875-1.875S16.035,4.438,15,4.438z M15,7.25c-0.518,0-0.938-0.419-0.938-0.938S14.482,5.375,15,5.375
				c0.519,0,0.938,0.419,0.938,0.938S15.518,7.25,15,7.25z"/>
		</g>
	</g>
	<g id="&#x77E9;&#x5F62;_49">
		<g>
			<path style="fill:#1F7EBB;" d="M18.86,9.142c-1.807,0.024-2.861,4.142-3.951,4.194c-1.17,0.059-1.662-6.081-4.275-6.081
				c-2.544,0-3.225,7.489-3.225,7.489h0.938c0,0,0.839-6.686,2.344-6.562c1.625,0.134,2.496,6.384,4.219,6.267
				c1.695-0.115,2.997-4.458,3.929-4.367c0.911,0.091,2.815,4.662,2.815,4.662h0.938C22.592,14.744,20.54,9.12,18.86,9.142z"/>
		</g>
	</g>
</g>
</svg>
