<?xml version="1.0" encoding="iso-8859-1"?>
<!-- Generator: Adobe Illustrator 16.0.0, SVG Export Plug-In . SVG Version: 6.00 Build 0)  -->
<!DOCTYPE svg PUBLIC "-//W3C//DTD SVG 1.1//EN" "http://www.w3.org/Graphics/SVG/1.1/DTD/svg11.dtd">
<svg version="1.1" xmlns="http://www.w3.org/2000/svg" xmlns:xlink="http://www.w3.org/1999/xlink" x="0px" y="0px" width="25px"
	 height="25px" viewBox="0 0 25 25" style="enable-background:new 0 0 25 25;" xml:space="preserve">
<g id="&#x56FE;&#x5C42;_2">
</g>
<g id="&#x56FE;&#x5C42;_1">
	<g>
		<path style="fill:#2578AF;" d="M18.75,0H6.251C2.799,0,0,2.799,0,6.251V18.75C0,22.202,2.799,25,6.251,25H18.75
			c3.452,0,6.25-2.798,6.25-6.25V6.251C24.999,2.799,22.2,0,18.75,0z M23.749,18.75c0,2.761-2.238,4.999-4.999,4.999H6.251
			c-2.762,0-5-2.238-5-4.999V6.251c0-2.762,2.238-5,5-5H18.75c2.761,0,4.999,2.238,4.999,5V18.75z M12.5,5.751
			c-1.38,0-2.5,1.119-2.5,2.5c0,1.38,1.12,2.499,2.5,2.499S15,9.631,15,8.251C15,6.87,13.88,5.751,12.5,5.751z M12.5,9.5
			c-0.69,0-1.25-0.559-1.25-1.251C11.25,7.558,11.81,7,12.5,7c0.692,0,1.25,0.559,1.25,1.251C13.75,8.942,13.189,9.5,12.5,9.5z"/>
		<path style="fill:#2578AF;" d="M17.646,16.022c-2.409,0.032-3.813,5.522-5.267,5.592c-1.56,0.078-2.216-8.107-5.7-8.107
			c-3.393,0-4.3,9.985-4.3,9.985H3.63c0,0,1.118-8.915,3.125-8.75c2.166,0.179,3.328,8.513,5.625,8.356
			c2.261-0.153,3.996-5.943,5.238-5.822c1.215,0.121,3.754,6.216,3.754,6.216h1.25C22.622,23.492,19.886,15.993,17.646,16.022z"/>
	</g>
</g>
</svg>

