<?xml version="1.0" encoding="iso-8859-1"?>
<!-- Generator: Adobe Illustrator 16.0.0, SVG Export Plug-In . SVG Version: 6.00 Build 0)  -->
<!DOCTYPE svg PUBLIC "-//W3C//DTD SVG 1.1//EN" "http://www.w3.org/Graphics/SVG/1.1/DTD/svg11.dtd">
<svg version="1.1" xmlns="http://www.w3.org/2000/svg" xmlns:xlink="http://www.w3.org/1999/xlink" x="0px" y="0px" width="25px"
	 height="25px" viewBox="0 0 25 25" style="enable-background:new 0 0 25 25;" xml:space="preserve">
<g id="&#x56FE;&#x5C42;_2">
</g>
<g id="&#x56FE;&#x5C42;_1">
	<g>
		<g id="&#x77E9;&#x5F62;_56">
			<g>
				<polygon style="fill-rule:evenodd;clip-rule:evenodd;fill:#1685C8;" points="7.353,0.735 7.353,5.147 8.823,5.147 8.823,2.206 
					23.529,2.206 23.529,22.794 8.823,22.794 8.823,19.854 7.353,19.854 7.353,24.265 25,24.265 25,0.735 				"/>
			</g>
		</g>
		<g id="&#x77E9;&#x5F62;_57">
			<g>
				<polygon style="fill-rule:evenodd;clip-rule:evenodd;fill:#1685C8;" points="11.512,11.765 7.353,7.605 6.313,8.646 
					9.433,11.765 0,11.765 0,13.235 9.433,13.235 6.313,16.354 7.353,17.395 11.512,13.235 11.765,13.235 11.765,11.765 				"/>
			</g>
		</g>
		<g id="&#x77E9;&#x5F62;_58">
			<g>
				<path style="fill-rule:evenodd;clip-rule:evenodd;fill:#1685C8;" d="M13.235,5.147v1.471h7.353V5.147H13.235z M13.235,11.029
					h7.353V9.559h-7.353V11.029z M16.177,15.441h4.411v-1.471h-4.411V15.441z M13.235,19.854h7.353v-1.471h-7.353V19.854z"/>
			</g>
		</g>
	</g>
</g>
</svg>
