<?xml version="1.0" encoding="iso-8859-1"?>
<!-- Generator: Adobe Illustrator 16.0.0, SVG Export Plug-In . SVG Version: 6.00 Build 0)  -->
<!DOCTYPE svg PUBLIC "-//W3C//DTD SVG 1.1//EN" "http://www.w3.org/Graphics/SVG/1.1/DTD/svg11.dtd">
<svg version="1.1" xmlns="http://www.w3.org/2000/svg" xmlns:xlink="http://www.w3.org/1999/xlink" x="0px" y="0px" width="25px"
	 height="25px" viewBox="0 0 25 25" style="enable-background:new 0 0 25 25;" xml:space="preserve">
<g id="&#x56FE;&#x5C42;_2">
</g>
<g id="&#x56FE;&#x5C42;_1">
	<g id="&#x56FE;&#x5C42;_1_1_">
		<g id="famale">
			<g>
				<path style="fill:#2578AF;" d="M24.939,20.262c-0.415-1.203-1.788-1.376-2.936-1.859c-1.262-0.531-2.658-1.146-3.915-1.662
					c-0.357-0.097-0.717-0.195-1.076-0.295c-0.43-0.294-0.85-1.271-1.074-1.761c-0.231-0.03-0.458-0.063-0.688-0.097
					c0.035-0.755,0.502-0.795,0.688-1.37c0.16-0.507,0.018-1.168,0.273-1.636c0.176-0.329,0.581-0.329,0.781-0.608
					c0.18-0.253,0.301-0.697,0.359-1.008c0.101-0.571,0.19-1.347-0.079-1.91c-0.153-0.323-0.254-0.353-0.296-0.749
					c-0.052-0.478,0.141-2.029,0.149-2.368c0.023-0.871-0.004-0.942-0.215-1.791c0,0-0.256-0.77-0.657-1.003l-0.799-0.139
					L14.962,1.55c-1.996-1.226-4.132-0.367-5.275,0.095C8.033,2.186,6.988,3.8,7.718,7.25c0.124,0.589-0.324,0.852-0.295,1.173
					c0.065,0.705,0.079,2.395,0.743,2.812c0.062,0.036,0.533,0.154,0.529,0.126c0.066,0.684,0.131,1.368,0.197,2.053
					c0.163,0.456,0.563,0.506,0.679,1.148l-0.51,0.123c-0.228,0.489-0.646,1.468-1.076,1.764c-0.359,0.097-0.718,0.195-1.077,0.292
					c-1.257,0.516-2.653,1.131-3.912,1.662c-1.148,0.484-2.521,0.656-2.936,1.861c0,0.816-0.077,2.745-0.056,3.816h24.992
					C25.017,23.008,24.939,21.077,24.939,20.262z"/>
			</g>
		</g>
	</g>
</g>
</svg>

