<?xml version="1.0" encoding="iso-8859-1"?>
<!-- Generator: Adobe Illustrator 16.0.0, SVG Export Plug-In . SVG Version: 6.00 Build 0)  -->
<!DOCTYPE svg PUBLIC "-//W3C//DTD SVG 1.1//EN" "http://www.w3.org/Graphics/SVG/1.1/DTD/svg11.dtd">
<svg version="1.1" id="&#x56FE;&#x5C42;_1" xmlns="http://www.w3.org/2000/svg" xmlns:xlink="http://www.w3.org/1999/xlink" x="0px"
	 y="0px" width="22px" height="22px" viewBox="0 0 22 22" style="enable-background:new 0 0 22 22;" xml:space="preserve">
<g id="famale">
	<g>
		<path style="fill-rule:evenodd;clip-rule:evenodd;fill:#1685C8;" d="M19.937,17.409c-0.281-0.816-1.215-0.934-1.994-1.262
			c-0.855-0.361-1.805-0.779-2.658-1.129c-0.242-0.066-0.486-0.133-0.73-0.199c-0.291-0.201-0.576-0.865-0.73-1.197
			c-0.156-0.021-0.311-0.043-0.465-0.066c0.023-0.512,0.34-0.539,0.465-0.93c0.109-0.344,0.012-0.793,0.186-1.111
			c0.119-0.223,0.393-0.223,0.529-0.414c0.123-0.172,0.205-0.473,0.244-0.684c0.07-0.387,0.131-0.914-0.053-1.297
			c-0.105-0.219-0.172-0.24-0.201-0.508c-0.035-0.324,0.096-1.378,0.102-1.607c0.014-0.592-0.002-0.64-0.145-1.217
			c0,0-0.174-0.522-0.447-0.68l-0.543-0.094l-0.336-0.311c-1.355-0.833-2.806-0.249-3.583,0.065C8.456,5.134,7.747,6.23,8.242,8.573
			c0.084,0.4-0.22,0.58-0.2,0.797c0.044,0.479,0.053,1.627,0.504,1.91c0.042,0.025,0.362,0.105,0.36,0.084
			c0.044,0.465,0.089,0.93,0.133,1.395c0.112,0.309,0.383,0.344,0.462,0.779l-0.346,0.084c-0.156,0.332-0.44,0.996-0.731,1.197
			c-0.244,0.066-0.487,0.133-0.731,0.199c-0.854,0.35-1.802,0.768-2.657,1.129c-0.779,0.328-1.712,0.445-1.994,1.262
			c0,0.555-0.052,1.865-0.038,2.592h16.971C19.989,19.274,19.937,17.963,19.937,17.409z"/>
	</g>
</g>
</svg>
