<?xml version="1.0" encoding="iso-8859-1"?>
<!-- Generator: Adobe Illustrator 16.0.0, SVG Export Plug-In . SVG Version: 6.00 Build 0)  -->
<!DOCTYPE svg PUBLIC "-//W3C//DTD SVG 1.1//EN" "http://www.w3.org/Graphics/SVG/1.1/DTD/svg11.dtd">
<svg version="1.1" xmlns="http://www.w3.org/2000/svg" xmlns:xlink="http://www.w3.org/1999/xlink" x="0px" y="0px" width="25px"
	 height="25px" viewBox="0 0 25 25" style="enable-background:new 0 0 25 25;" xml:space="preserve">
<g id="&#x56FE;&#x5C42;_2">
</g>
<g id="&#x56FE;&#x5C42;_1">
	<g id="&#x56FE;&#x5C42;_1_1_">
		<g id="MICROPHONE" style="opacity:0.502;">
			<g>
				<path style="fill:#666969;" d="M9.377,15.624c2.589,0,4.687-2.101,4.687-4.688V4.687C14.063,2.1,11.966,0,9.377,0
					C6.789,0,4.69,2.099,4.69,4.687v6.25C4.69,13.523,6.789,15.624,9.377,15.624z M23.719,17.028l-3.971-3.699
					c-0.309-0.287-0.736-0.467-1.205-0.467c-0.943,0-1.702,0.709-1.702,1.585c0,0.439,0.191,0.833,0.497,1.125
					c0,0,2.629,1.606,2.629,2.541c0,0.977-2.629,2.615-2.629,2.615c-0.306,0.289-0.497,0.688-0.497,1.122
					c0,0.875,0.759,1.586,1.702,1.586c0.47,0,0.896-0.177,1.205-0.464l3.971-3.701c0.309-0.288,0.498-0.687,0.498-1.12
					C24.219,17.711,24.029,17.313,23.719,17.028z M16.853,15.528c-0.724-0.571-1.375-0.992-1.375-0.992
					c-0.18-0.177-0.319-0.391-0.427-0.622c-0.987,2.153-3.148,3.659-5.672,3.661c-3.451-0.002-6.247-2.799-6.25-6.25
					c0-0.647-0.525-1.172-1.171-1.172c-0.645,0-1.174,0.526-1.174,1.173c0,0,0,0,0,0.003c0,0,0,0.004,0,0.006
					c0,4.345,3.23,7.925,7.42,8.496v2.824H4.299c-0.645,0-1.172,0.526-1.172,1.172S3.654,25,4.299,25h10.155
					c0.446,0,0.82-0.258,1.021-0.625c-0.388-0.382-0.63-0.906-0.63-1.483c0-0.055,0.028-0.098,0.032-0.149
					c-0.134-0.052-0.273-0.085-0.423-0.085h-3.905v-2.824C13.265,19.464,15.56,17.817,16.853,15.528z"/>
			</g>
		</g>
	</g>
</g>
</svg>
