<?xml version="1.0" encoding="iso-8859-1"?>
<!-- Generator: Adobe Illustrator 16.0.0, SVG Export Plug-In . SVG Version: 6.00 Build 0)  -->
<!DOCTYPE svg PUBLIC "-//W3C//DTD SVG 1.1//EN" "http://www.w3.org/Graphics/SVG/1.1/DTD/svg11.dtd">
<svg version="1.1" id="&#x56FE;&#x5C42;_1" xmlns="http://www.w3.org/2000/svg" xmlns:xlink="http://www.w3.org/1999/xlink" x="0px"
	 y="0px" width="22px" height="22px" viewBox="0 0 22 22" style="enable-background:new 0 0 22 22;" xml:space="preserve">
<g id="MICROPHONE" style="opacity:0.502;">
	<g>
		<path style="fill-rule:evenodd;clip-rule:evenodd;fill:#666767;" d="M9.469,13.938c1.657,0,3-1.344,3-3v-4c0-1.657-1.343-3-3-3
			s-3,1.343-3,3v4C6.469,12.594,7.812,13.938,9.469,13.938z M18.649,14.836l-2.542-2.367c-0.197-0.184-0.47-0.299-0.771-0.299
			c-0.603,0-1.09,0.455-1.09,1.016c0,0.281,0.122,0.533,0.319,0.719c0,0,1.682,1.029,1.682,1.627c0,0.625-1.682,1.674-1.682,1.674
			c-0.197,0.184-0.319,0.438-0.319,0.717c0,0.561,0.487,1.016,1.09,1.016c0.301,0,0.573-0.113,0.771-0.297l2.542-2.369
			c0.197-0.184,0.319-0.438,0.319-0.717C18.969,15.274,18.847,15.02,18.649,14.836z M14.253,13.877
			c-0.463-0.365-0.879-0.635-0.879-0.635c-0.116-0.113-0.205-0.25-0.274-0.398c-0.632,1.379-2.015,2.342-3.631,2.344
			c-2.209-0.002-3.999-1.791-4-4c0-0.414-0.336-0.75-0.75-0.75s-0.75,0.336-0.75,0.75c0,0,0,0,0,0.002c0,0,0,0.002,0,0.004
			c0,2.781,2.068,5.072,4.75,5.438v1.807h-2.5c-0.414,0-0.75,0.336-0.75,0.75s0.336,0.75,0.75,0.75h6.5
			c0.286,0,0.525-0.166,0.652-0.4c-0.248-0.244-0.402-0.58-0.402-0.949c0-0.035,0.018-0.063,0.02-0.096
			c-0.084-0.033-0.174-0.055-0.27-0.055h-2.5v-1.807C11.957,16.395,13.427,15.342,14.253,13.877z"/>
	</g>
</g>
</svg>
