<?xml version="1.0" encoding="iso-8859-1"?>
<!-- Generator: Adobe Illustrator 16.0.0, SVG Export Plug-In . SVG Version: 6.00 Build 0)  -->
<!DOCTYPE svg PUBLIC "-//W3C//DTD SVG 1.1//EN" "http://www.w3.org/Graphics/SVG/1.1/DTD/svg11.dtd">
<svg version="1.1" xmlns="http://www.w3.org/2000/svg" xmlns:xlink="http://www.w3.org/1999/xlink" x="0px" y="0px" width="30px"
	 height="22px" viewBox="0 0 30 22" style="enable-background:new 0 0 30 22;" xml:space="preserve">
<g id="&#x56FE;&#x5C42;_2">
</g>
<g id="&#x56FE;&#x5C42;_1">
	<g id="MICROPHONE" style="opacity:0.502;">
		<g>
			<path style="fill:#666868;" d="M12.657,13.343c1.942,0,3.515-1.575,3.515-3.516V5.14c0-1.94-1.573-3.515-3.515-3.515
				c-1.941,0-3.515,1.574-3.515,3.515v4.688C9.142,11.768,10.716,13.343,12.657,13.343z M23.413,14.396l-2.978-2.774
				c-0.231-0.215-0.552-0.35-0.904-0.35c-0.707,0-1.276,0.533-1.276,1.189c0,0.33,0.143,0.625,0.373,0.843
				c0,0,1.972,1.206,1.972,1.907c0,0.732-1.972,1.961-1.972,1.961c-0.23,0.217-0.373,0.515-0.373,0.841
				c0,0.657,0.569,1.19,1.276,1.19c0.353,0,0.672-0.133,0.904-0.348l2.978-2.776c0.231-0.216,0.374-0.514,0.374-0.84
				C23.788,14.908,23.646,14.61,23.413,14.396z M18.263,13.271c-0.543-0.428-1.03-0.744-1.03-0.744
				c-0.136-0.133-0.24-0.293-0.321-0.467c-0.74,1.616-2.36,2.744-4.254,2.746c-2.588-0.002-4.685-2.099-4.687-4.687
				c0-0.485-0.394-0.879-0.878-0.879S6.212,9.635,6.212,10.12c0,0,0,0,0,0.002c0,0,0,0.003,0,0.005c0,3.259,2.423,5.943,5.565,6.372
				v2.118H8.849c-0.484,0-0.879,0.395-0.879,0.879c0,0.485,0.395,0.879,0.879,0.879h7.616c0.335,0,0.615-0.194,0.765-0.469
				c-0.291-0.286-0.472-0.68-0.472-1.112c0-0.041,0.021-0.073,0.024-0.112c-0.1-0.039-0.205-0.064-0.317-0.064h-2.929v-2.118
				C15.573,16.222,17.294,14.988,18.263,13.271z"/>
		</g>
	</g>
</g>
</svg>
