<?xml version="1.0" encoding="iso-8859-1"?>
<!-- Generator: Adobe Illustrator 16.0.0, SVG Export Plug-In . SVG Version: 6.00 Build 0)  -->
<!DOCTYPE svg PUBLIC "-//W3C//DTD SVG 1.1//EN" "http://www.w3.org/Graphics/SVG/1.1/DTD/svg11.dtd">
<svg version="1.1" xmlns="http://www.w3.org/2000/svg" xmlns:xlink="http://www.w3.org/1999/xlink" x="0px" y="0px" width="25px"
	 height="25px" viewBox="0 0 25 25" style="enable-background:new 0 0 25 25;" xml:space="preserve">
<g id="&#x56FE;&#x5C42;_2">
</g>
<g id="&#x56FE;&#x5C42;_1">
	<g>
		<g id="Shape_76_&#x62F7;&#x8D1D;">
			<g>
				<path style="fill-rule:evenodd;clip-rule:evenodd;fill:#1584C8;" d="M12.413,16.393c-1.374-1.129-2.962-2.647-4.334-4.362
					C7.113,10.83,6.261,9.568,7.141,8.681L0.963,2.472c-0.9,1.131-2.896,6.519,5.656,15.34c9.011,9.295,14.823,7.305,15.825,6.258
					l-6.025-6.063C15.577,18.853,14.494,18.1,12.413,16.393z M24.618,20.546v-0.005c0,0-4.7-4.723-4.702-4.724
					c-0.372-0.375-0.968-0.368-1.339,0.001l-1.704,1.718l6.04,6.081c0,0,1.707-1.713,1.705-1.714l0.004-0.005
					C25.012,21.505,24.973,20.906,24.618,20.546z M9.312,6.5V6.495c0.391-0.396,0.355-0.994,0-1.35V5.139c0,0-4.835-4.86-4.838-4.86
					c-0.372-0.376-0.967-0.368-1.335,0l-1.705,1.72l6.173,6.215C7.607,8.213,9.312,6.502,9.312,6.5z"/>
			</g>
		</g>
	</g>
</g>
</svg>
