<?xml version="1.0" encoding="iso-8859-1"?>
<!-- Generator: Adobe Illustrator 16.0.0, SVG Export Plug-In . SVG Version: 6.00 Build 0)  -->
<!DOCTYPE svg PUBLIC "-//W3C//DTD SVG 1.1//EN" "http://www.w3.org/Graphics/SVG/1.1/DTD/svg11.dtd">
<svg version="1.1" xmlns="http://www.w3.org/2000/svg" xmlns:xlink="http://www.w3.org/1999/xlink" x="0px" y="0px" width="25px"
	 height="25px" viewBox="0 0 25 25" style="enable-background:new 0 0 25 25;" xml:space="preserve">
<g id="&#x56FE;&#x5C42;_2">
</g>
<g id="&#x56FE;&#x5C42;_1">
	<g id="&#x5706;&#x89D2;&#x77E9;&#x5F62;_27">
		<g>
			<path style="fill-rule:evenodd;clip-rule:evenodd;fill:#1685C8;" d="M22.223,0H2.777C1.244,0,0,1.244,0,2.778v19.445
				C0,23.756,1.244,25,2.777,25h19.445C23.756,25,25,23.756,25,22.223V2.778C25,1.244,23.756,0,22.223,0z M4.167,1.389h16.666v9.723
				H5.556c-0.768,0-1.389-0.622-1.389-1.389V1.389z M19.444,23.611H5.556v-6.945h13.889V23.611z M23.611,22.223
				c0,0.768-0.621,1.389-1.389,1.389h-1.39v-8.334H4.167v8.334h-1.39c-0.768,0-1.389-0.621-1.389-1.389V2.778
				c0-0.768,0.621-1.389,1.389-1.389v8.333c0,1.534,1.244,2.778,2.778,2.778h16.667V1.389c0.768,0,1.389,0.622,1.389,1.389V22.223z"
				/>
		</g>
	</g>
</g>
</svg>
