<?xml version="1.0" encoding="iso-8859-1"?>
<!-- Generator: Adobe Illustrator 16.0.0, SVG Export Plug-In . SVG Version: 6.00 Build 0)  -->
<!DOCTYPE svg PUBLIC "-//W3C//DTD SVG 1.1//EN" "http://www.w3.org/Graphics/SVG/1.1/DTD/svg11.dtd">
<svg version="1.1" xmlns="http://www.w3.org/2000/svg" xmlns:xlink="http://www.w3.org/1999/xlink" x="0px" y="0px" width="25px"
	 height="25px" viewBox="0 0 25 25" style="enable-background:new 0 0 25 25;" xml:space="preserve">
<g id="&#x56FE;&#x5C42;_2">
</g>
<g id="&#x56FE;&#x5C42;_1">
	<g id="&#x692D;&#x5706;_1_2_">
		<g>
			<path style="fill-rule:evenodd;clip-rule:evenodd;fill:#DF610F;" d="M12.5,0C5.598,0,0,5.598,0,12.5S5.598,25,12.5,25
				S25,19.402,25,12.5S19.402,0,12.5,0z M3.196,12.354c0-5.056,4.102-9.155,9.157-9.155c2.026,0,3.897,0.659,5.415,1.773
				L4.972,17.77C3.857,16.251,3.196,14.38,3.196,12.354z M12.354,21.511c-1.875,0-3.618-0.563-5.069-1.533L19.979,7.282
				c0.968,1.454,1.531,3.196,1.531,5.071C21.511,17.412,17.412,21.511,12.354,21.511z"/>
		</g>
	</g>
</g>
</svg>
