<?xml version="1.0" encoding="iso-8859-1"?>
<!-- Generator: Adobe Illustrator 16.0.0, SVG Export Plug-In . SVG Version: 6.00 Build 0)  -->
<!DOCTYPE svg PUBLIC "-//W3C//DTD SVG 1.1//EN" "http://www.w3.org/Graphics/SVG/1.1/DTD/svg11.dtd">
<svg version="1.1" xmlns="http://www.w3.org/2000/svg" xmlns:xlink="http://www.w3.org/1999/xlink" x="0px" y="0px" width="30px"
	 height="22px" viewBox="0 0 30 22" style="enable-background:new 0 0 30 22;" xml:space="preserve">
<g id="&#x56FE;&#x5C42;_2">
</g>
<g id="&#x56FE;&#x5C42;_1">
	<g>
		<path style="fill:#2C8AC3;" d="M11.792,4.649h4.019c0.353,0,0.639-0.285,0.639-0.638V3.171c0-0.353-0.286-0.639-0.639-0.639
			h-1.127v-0.3c0-0.335-0.272-0.607-0.608-0.607h-0.844c-0.335,0-0.607,0.272-0.607,0.607v0.3h-0.832
			c-0.354,0-0.641,0.286-0.641,0.639v0.84C11.151,4.364,11.438,4.649,11.792,4.649z M13.213,1.948c0-0.012,0.01-0.02,0.019-0.02
			h0.844c0.012,0,0.021,0.008,0.021,0.02v0.867c0,0.012-0.009,0.021-0.021,0.021h-0.844c-0.011,0-0.019-0.009-0.019-0.021V1.948z"/>
		<path style="fill:#2C8AC3;" d="M15.075,18.325H8.502V6.768h10.599v3.916c0.11-0.009,0.221-0.019,0.333-0.019
			c0.498,0,0.978,0.077,1.433,0.216V4.952c0-0.835-0.659-1.513-1.473-1.513h-2.062v0.15c0,0.92-0.724,1.664-1.618,1.664h-3.826
			c-0.894,0-1.619-0.744-1.619-1.664v-0.15H8.208c-0.813,0-1.472,0.678-1.472,1.513v13.911c0,0.834,0.658,1.512,1.472,1.512h8.941
			C16.277,19.915,15.556,19.201,15.075,18.325z"/>
		<path style="fill:#2C8AC3;" d="M19.436,11.874c-0.887,0-1.692,0.322-2.342,0.842h-4.485c-0.049,0-0.09,0.042-0.09,0.092v0.839
			c0,0.052,0.04,0.092,0.09,0.092h3.583c-0.359,0.595-0.576,1.289-0.581,2.04h-3.002c-0.049,0-0.09,0.042-0.09,0.091v0.841
			c0,0.049,0.04,0.09,0.09,0.09h3.138c0.432,1.687,1.913,2.936,3.689,2.936c2.113,0,3.828-1.758,3.828-3.931
			C23.264,13.635,21.549,11.874,19.436,11.874z M19.438,17.474c-0.133,0.136-0.328,0.165-0.489,0.094
			c-0.115,0.002-0.233-0.039-0.324-0.13l-1.455-1.498c-0.175-0.176-0.175-0.465,0-0.641l0.207-0.214
			c0.173-0.177,0.451-0.177,0.625,0l1.049,1.077l2.261-2.323c0.173-0.177,0.45-0.177,0.624,0l0.21,0.214
			c0.171,0.177,0.171,0.464,0,0.642L19.438,17.474z"/>
		<path style="fill:#2C8AC3;" d="M12.608,9.652c-0.049,0-0.09,0.042-0.09,0.091v0.841c0,0.05,0.04,0.09,0.09,0.09h4.96
			c0.05,0,0.091-0.04,0.091-0.09v-0.84c0-0.05-0.041-0.092-0.091-0.092H12.608z"/>
		<path style="fill:#2C8AC3;" d="M11.894,15.326c-0.065-0.065-0.17-0.065-0.234,0l-1.173,1.198l-0.53-0.543
			c-0.064-0.066-0.17-0.066-0.234,0l-0.235,0.241c-0.065,0.066-0.065,0.174,0,0.24l0.939,0.962c0.065,0.067,0.171,0.067,0.235,0
			l0.235-0.239c0.04-0.043,0.047-0.099,0.036-0.152l1.197-1.225c0.064-0.066,0.064-0.175,0-0.241L11.894,15.326z"/>
		<path style="fill:#2C8AC3;" d="M10.426,10.96c0.065,0.065,0.171,0.065,0.235,0l0.235-0.241c0.041-0.042,0.047-0.098,0.035-0.151
			l1.197-1.225c0.064-0.066,0.064-0.175,0-0.24l-0.235-0.241c-0.065-0.066-0.17-0.066-0.234,0l-1.173,1.199l-0.53-0.545
			c-0.064-0.065-0.17-0.065-0.234,0l-0.235,0.24c-0.065,0.066-0.065,0.175,0,0.241L10.426,10.96z"/>
		<path style="fill:#2C8AC3;" d="M12.13,12.505l-0.236-0.241c-0.065-0.066-0.17-0.066-0.234,0l-1.172,1.199l-0.531-0.544
			c-0.064-0.066-0.17-0.066-0.234,0L9.486,13.16c-0.065,0.065-0.065,0.174,0,0.239l0.939,0.963c0.065,0.065,0.171,0.065,0.235,0
			l0.235-0.24c0.041-0.042,0.047-0.097,0.036-0.152l1.197-1.224C12.194,12.68,12.194,12.571,12.13,12.505z"/>
	</g>
</g>
</svg>
