<?xml version="1.0" encoding="iso-8859-1"?>
<!-- Generator: Adobe Illustrator 16.0.0, SVG Export Plug-In . SVG Version: 6.00 Build 0)  -->
<!DOCTYPE svg PUBLIC "-//W3C//DTD SVG 1.1//EN" "http://www.w3.org/Graphics/SVG/1.1/DTD/svg11.dtd">
<svg version="1.1" id="&#x56FE;&#x5C42;_1" xmlns="http://www.w3.org/2000/svg" xmlns:xlink="http://www.w3.org/1999/xlink" x="0px"
	 y="0px" width="22px" height="22px" viewBox="0 0 22 22" style="enable-background:new 0 0 22 22;" xml:space="preserve">
<g id="&#x5706;&#x89D2;&#x77E9;&#x5F62;_3">
	<g>
		<path style="fill-rule:evenodd;clip-rule:evenodd;fill:#2393D2;" d="M7.352,4.422h4.333c0.382,0,0.69-0.308,0.69-0.688V2.827
			c0-0.38-0.309-0.688-0.69-0.688h-1.214V1.815c0-0.362-0.294-0.655-0.657-0.655H8.905c-0.362,0-0.656,0.293-0.656,0.655v0.324
			H7.352c-0.382,0-0.691,0.308-0.691,0.688v0.906C6.661,4.114,6.97,4.422,7.352,4.422z M8.884,1.508c0-0.012,0.01-0.021,0.021-0.021
			h0.909c0.012,0,0.022,0.009,0.022,0.021v0.936c0,0.012-0.01,0.022-0.022,0.022H8.905c-0.012,0-0.021-0.01-0.021-0.022V1.508z
			 M15.595,12.214c-2.278,0-4.128,1.898-4.128,4.24c0,2.343,1.85,4.24,4.128,4.24c2.28,0,4.129-1.897,4.129-4.24
			C19.724,14.113,17.875,12.214,15.595,12.214z M15.597,18.254c-0.143,0.146-0.353,0.178-0.526,0.101
			c-0.126,0.003-0.253-0.042-0.35-0.14l-1.571-1.616c-0.187-0.19-0.187-0.501,0-0.691l0.224-0.23c0.187-0.191,0.488-0.191,0.675,0
			l1.13,1.161l2.439-2.506c0.187-0.191,0.486-0.191,0.673,0l0.226,0.231c0.185,0.191,0.185,0.501,0,0.692L15.597,18.254z
			 M10.893,19.172H3.803V6.706h11.431v4.223c0.12-0.008,0.238-0.019,0.36-0.019c0.537,0,1.055,0.083,1.545,0.233V4.748
			c0-0.9-0.711-1.631-1.588-1.631h-2.224V3.28c0,0.991-0.781,1.794-1.746,1.794H7.455c-0.964,0-1.747-0.803-1.747-1.794V3.117H3.486
			c-0.877,0-1.587,0.73-1.587,1.631v15.005c0,0.9,0.71,1.631,1.587,1.631h9.644C12.189,20.887,11.411,20.117,10.893,19.172z"/>
	</g>
</g>
<g id="&#x5706;&#x89D2;&#x77E9;&#x5F62;_4">
	<g>
		<path style="fill-rule:evenodd;clip-rule:evenodd;fill:#2393D2;" d="M13.582,9.819H8.233c-0.054,0-0.098,0.044-0.098,0.097v0.906
			c0,0.054,0.043,0.098,0.098,0.098h5.349c0.054,0,0.098-0.044,0.098-0.098V9.917C13.68,9.863,13.636,9.819,13.582,9.819z
			 M13.582,13.122H8.233c-0.054,0-0.098,0.045-0.098,0.098v0.906c0,0.055,0.043,0.099,0.098,0.099h5.349
			c0.054,0,0.098-0.044,0.098-0.099v-0.906C13.68,13.167,13.636,13.122,13.582,13.122z M12.34,16.426H8.233
			c-0.054,0-0.098,0.044-0.098,0.097v0.906c0,0.054,0.043,0.098,0.098,0.098h4.107c0.054,0,0.099-0.044,0.099-0.098v-0.906
			C12.438,16.47,12.394,16.426,12.34,16.426z"/>
	</g>
</g>
<g id="&#x5706;&#x89D2;&#x77E9;&#x5F62;_5">
	<g>
		<path style="fill-rule:evenodd;clip-rule:evenodd;fill:#2393D2;" d="M5.878,11.228c0.07,0.071,0.184,0.071,0.254,0l0.254-0.26
			c0.044-0.045,0.05-0.105,0.038-0.164l1.291-1.32c0.069-0.072,0.069-0.188,0-0.259l-0.254-0.26c-0.07-0.072-0.184-0.072-0.253,0
			l-1.264,1.293L5.371,9.67c-0.069-0.071-0.183-0.071-0.253,0l-0.254,0.26c-0.07,0.071-0.07,0.188,0,0.259L5.878,11.228z
			 M7.461,12.635c-0.07-0.072-0.184-0.072-0.253,0l-1.263,1.293l-0.574-0.587c-0.069-0.072-0.183-0.072-0.253,0l-0.254,0.26
			c-0.07,0.071-0.07,0.188,0,0.259l1.014,1.039c0.07,0.07,0.184,0.07,0.254,0l0.254-0.261c0.044-0.044,0.05-0.104,0.039-0.163
			l1.291-1.321c0.069-0.071,0.069-0.188,0-0.259L7.461,12.635z M7.461,15.937c-0.07-0.07-0.184-0.07-0.253,0l-1.264,1.294
			l-0.573-0.587c-0.069-0.071-0.183-0.071-0.253,0l-0.254,0.26c-0.07,0.072-0.07,0.188,0,0.26l1.014,1.037
			c0.07,0.073,0.184,0.073,0.254,0l0.254-0.258c0.043-0.046,0.05-0.106,0.039-0.164l1.291-1.321c0.069-0.072,0.069-0.188,0-0.26
			L7.461,15.937z"/>
	</g>
</g>
</svg>
