<?xml version="1.0" encoding="iso-8859-1"?>
<!-- Generator: Adobe Illustrator 16.0.0, SVG Export Plug-In . SVG Version: 6.00 Build 0)  -->
<!DOCTYPE svg PUBLIC "-//W3C//DTD SVG 1.1//EN" "http://www.w3.org/Graphics/SVG/1.1/DTD/svg11.dtd">
<svg version="1.1" xmlns="http://www.w3.org/2000/svg" xmlns:xlink="http://www.w3.org/1999/xlink" x="0px" y="0px" width="30px"
	 height="22px" viewBox="0 0 30 22" style="enable-background:new 0 0 30 22;" xml:space="preserve">
<g id="&#x56FE;&#x5C42;_2">
</g>
<g id="&#x56FE;&#x5C42;_1">
	<g id="NOTEPAD">
		<g>
			<path style="fill:#2C8AC3;" d="M15.001,5.14c0.487,0,0.883-0.394,0.883-0.878V2.503c0-0.485-0.396-0.878-0.883-0.878
				c-0.489,0-0.885,0.393-0.885,0.878v1.759C14.116,4.746,14.512,5.14,15.001,5.14z M19.419,5.14c0.489,0,0.885-0.394,0.885-0.878
				V2.503c0-0.485-0.396-0.878-0.885-0.878c-0.488,0-0.884,0.393-0.884,0.878v1.759C18.535,4.746,18.931,5.14,19.419,5.14z
				 M10.581,5.14c0.488,0,0.883-0.394,0.883-0.878V2.503c0-0.485-0.396-0.878-0.883-0.878c-0.489,0-0.884,0.393-0.884,0.878v1.759
				C9.697,4.746,10.092,5.14,10.581,5.14z M22.661,3.382h-1.475v0.88c0,0.971-0.791,1.758-1.768,1.758
				c-0.976,0-1.767-0.787-1.767-1.758v-0.88h-0.885v0.88c0,0.971-0.791,1.758-1.767,1.758c-0.978,0-1.769-0.787-1.769-1.758v-0.88
				h-0.885v0.88c0,0.971-0.791,1.758-1.767,1.758c-0.977,0-1.768-0.787-1.768-1.758v-0.88H7.339c-0.488,0-0.883,0.394-0.883,0.88
				v15.233c0,0.486,0.396,0.88,0.883,0.88h15.322c0.487,0,0.883-0.394,0.883-0.88V4.262C23.544,3.775,23.148,3.382,22.661,3.382z
				 M13.701,17.444H9.549c-0.407,0-0.736-0.327-0.736-0.732c0-0.404,0.329-0.732,0.736-0.732h4.153c0.407,0,0.737,0.328,0.737,0.732
				C14.439,17.117,14.108,17.444,13.701,17.444z M13.555,13.929H9.697c-0.489,0-0.884-0.393-0.884-0.878
				c0-0.487,0.395-0.88,0.884-0.88h3.858c0.487,0,0.883,0.393,0.883,0.88C14.438,13.536,14.042,13.929,13.555,13.929z M13.555,10.12
				H9.697c-0.489,0-0.884-0.394-0.884-0.88c0-0.484,0.395-0.878,0.884-0.878h3.858c0.487,0,0.883,0.394,0.883,0.878
				C14.438,9.727,14.042,10.12,13.555,10.12z M18.805,17.748c-0.432,0-0.781-0.367-0.781-0.821s0.35-0.823,0.781-0.823
				c0.434,0,0.783,0.369,0.783,0.823S19.238,17.748,18.805,17.748z M20.113,13.308c-0.399,0.275-0.548,0.593-0.548,0.931v1.242
				h-1.52v-1.844c0-0.55,0.171-0.924,0.67-1.259l0.857-0.612c0.544-0.395,0.542-1.188,0.199-1.537
				c-0.299-0.309-0.804-0.485-1.343-0.37c-0.986,0.209-1.067,0.973-1.067,1.698v0.316h-1.518c0-1.359,0.141-1.978,0.821-2.754
				c0.757-0.872,1.822-1.013,2.808-0.799c0.983,0.214,2.155,1.222,2.155,2.688S20.515,13.034,20.113,13.308z"/>
		</g>
	</g>
</g>
</svg>

