<?xml version="1.0" encoding="iso-8859-1"?>
<!-- Generator: Adobe Illustrator 16.0.0, SVG Export Plug-In . SVG Version: 6.00 Build 0)  -->
<!DOCTYPE svg PUBLIC "-//W3C//DTD SVG 1.1//EN" "http://www.w3.org/Graphics/SVG/1.1/DTD/svg11.dtd">
<svg version="1.1" id="&#x56FE;&#x5C42;_1" xmlns="http://www.w3.org/2000/svg" xmlns:xlink="http://www.w3.org/1999/xlink" x="0px"
	 y="0px" width="22px" height="22px" viewBox="0 0 22 22" style="enable-background:new 0 0 22 22;" xml:space="preserve">
<g id="NOTEPAD">
	<g>
		<path style="fill-rule:evenodd;clip-rule:evenodd;fill:#2393D2;" d="M11.14,5.202c0.506,0,0.916-0.408,0.916-0.911V2.467
			c0-0.503-0.41-0.911-0.916-0.911c-0.507,0-0.917,0.408-0.917,0.911v1.824C10.223,4.794,10.633,5.202,11.14,5.202z M15.723,5.202
			c0.508,0,0.918-0.408,0.918-0.911V2.467c0-0.503-0.41-0.911-0.918-0.911c-0.506,0-0.916,0.408-0.916,0.911v1.824
			C14.807,4.794,15.217,5.202,15.723,5.202z M6.556,5.202c0.506,0,0.916-0.408,0.916-0.911V2.467c0-0.503-0.41-0.911-0.916-0.911
			c-0.507,0-0.917,0.408-0.917,0.911v1.824C5.639,4.794,6.049,5.202,6.556,5.202z M19.086,3.379h-1.529v0.912
			c0,1.007-0.82,1.823-1.834,1.823c-1.012,0-1.832-0.816-1.832-1.823V3.379h-0.918v0.912c0,1.007-0.821,1.823-1.833,1.823
			c-1.013,0-1.834-0.816-1.834-1.823V3.379H8.389v0.912c0,1.007-0.82,1.823-1.833,1.823S4.722,5.298,4.722,4.291V3.379H3.194
			c-0.506,0-0.916,0.408-0.916,0.912v15.801c0,0.504,0.41,0.912,0.916,0.912h15.892c0.506,0,0.916-0.408,0.916-0.912V4.291
			C20.002,3.787,19.592,3.379,19.086,3.379z M9.793,17.965H5.486c-0.422,0-0.764-0.34-0.764-0.76s0.342-0.76,0.764-0.76h4.308
			c0.422,0,0.764,0.34,0.764,0.76S10.215,17.965,9.793,17.965z M9.64,14.319H5.639c-0.507,0-0.917-0.408-0.917-0.912
			s0.41-0.912,0.917-0.912H9.64c0.507,0,0.917,0.408,0.917,0.912S10.147,14.319,9.64,14.319z M9.64,10.367H5.639
			c-0.507,0-0.917-0.408-0.917-0.912c0-0.502,0.41-0.911,0.917-0.911H9.64c0.507,0,0.917,0.408,0.917,0.911
			C10.557,9.959,10.147,10.367,9.64,10.367z M15.086,18.28c-0.447,0-0.811-0.381-0.811-0.852s0.363-0.854,0.811-0.854
			c0.449,0,0.813,0.383,0.813,0.854S15.535,18.28,15.086,18.28z M16.443,13.674c-0.414,0.285-0.568,0.615-0.568,0.965v1.289h-1.576
			v-1.912c0-0.57,0.178-0.959,0.695-1.307l0.889-0.635c0.564-0.409,0.563-1.231,0.207-1.594c-0.311-0.32-0.834-0.503-1.393-0.384
			c-1.023,0.216-1.107,1.009-1.107,1.762v0.328h-1.575c0-1.411,0.147-2.051,0.852-2.857c0.785-0.904,1.891-1.049,2.912-0.828
			s2.236,1.267,2.236,2.788C18.016,12.811,16.859,13.391,16.443,13.674z"/>
	</g>
</g>
</svg>
