<?xml version="1.0" encoding="iso-8859-1"?>
<!-- Generator: Adobe Illustrator 16.0.0, SVG Export Plug-In . SVG Version: 6.00 Build 0)  -->
<!DOCTYPE svg PUBLIC "-//W3C//DTD SVG 1.1//EN" "http://www.w3.org/Graphics/SVG/1.1/DTD/svg11.dtd">
<svg version="1.1" xmlns="http://www.w3.org/2000/svg" xmlns:xlink="http://www.w3.org/1999/xlink" x="0px" y="0px" width="25px"
	 height="25px" viewBox="0 0 25 25" style="enable-background:new 0 0 25 25;" xml:space="preserve">
<g id="&#x56FE;&#x5C42;_2">
</g>
<g id="&#x56FE;&#x5C42;_1">
	<g id="&#x56FE;&#x5C42;_1_2_">
		<g id="&#x56FE;&#x5C42;_1_1_">
			<g id="NOTEPAD">
				<g>
					<path style="fill:#327DAD;" d="M12.501,4.687c0.649,0,1.179-0.525,1.179-1.171V1.17c0-0.646-0.527-1.17-1.179-1.17
						c-0.652,0-1.181,0.524-1.181,1.17v2.346C11.32,4.162,11.849,4.687,12.501,4.687z M18.393,4.687
						c0.651,0,1.182-0.525,1.182-1.171V1.17c0-0.646-0.529-1.17-1.182-1.17c-0.649,0-1.179,0.524-1.179,1.17v2.346
						C17.214,4.162,17.742,4.687,18.393,4.687z M6.607,4.687c0.65,0,1.178-0.525,1.178-1.171V1.17C7.785,0.524,7.258,0,6.607,0
						C5.956,0,5.43,0.524,5.43,1.17v2.346C5.43,4.162,5.956,4.687,6.607,4.687z M22.715,2.342h-1.968v1.174
						c0,1.294-1.056,2.344-2.356,2.344s-2.355-1.049-2.355-2.344V2.342h-1.18v1.174c0,1.294-1.056,2.344-2.355,2.344
						c-1.305,0-2.358-1.049-2.358-2.344V2.342h-1.18v1.174c0,1.294-1.055,2.344-2.356,2.344c-1.303,0-2.356-1.049-2.356-2.344V2.342
						H2.285c-0.65,0-1.178,0.525-1.178,1.174v20.311C1.107,24.475,1.637,25,2.285,25h20.43c0.649,0,1.178-0.525,1.178-1.173V3.516
						C23.893,2.867,23.364,2.342,22.715,2.342z M10.769,21.091H5.231c-0.543,0-0.98-0.435-0.98-0.975
						c0-0.538,0.438-0.976,0.98-0.976h5.537c0.543,0,0.983,0.438,0.983,0.976C11.753,20.656,11.31,21.091,10.769,21.091z
						 M10.573,16.406H5.43c-0.652,0-1.179-0.524-1.179-1.172c0-0.648,0.525-1.174,1.179-1.174h5.145
						c0.648,0,1.177,0.524,1.177,1.174C11.75,15.882,11.223,16.406,10.573,16.406z M10.573,11.327H5.43
						c-0.652,0-1.179-0.525-1.179-1.173c0-0.646,0.525-1.171,1.179-1.171h5.145c0.648,0,1.177,0.525,1.177,1.171
						C11.75,10.802,11.223,11.327,10.573,11.327z M17.573,21.497c-0.576,0-1.042-0.489-1.042-1.095c0-0.606,0.468-1.098,1.042-1.098
						c0.579,0,1.044,0.491,1.044,1.098C18.617,21.008,18.15,21.497,17.573,21.497z M19.316,15.578
						c-0.531,0.365-0.73,0.789-0.73,1.24v1.654h-2.025v-2.457c0-0.733,0.229-1.231,0.894-1.68l1.144-0.816
						c0.726-0.524,0.723-1.583,0.267-2.048c-0.398-0.412-1.073-0.646-1.792-0.493c-1.315,0.279-1.422,1.297-1.422,2.263v0.422
						h-2.024c0-1.813,0.188-2.638,1.095-3.672c1.01-1.163,2.43-1.351,3.745-1.066c1.31,0.286,2.872,1.63,2.872,3.584
						C21.336,14.466,19.854,15.212,19.316,15.578z"/>
				</g>
			</g>
		</g>
	</g>
</g>
</svg>


