<?xml version="1.0" encoding="iso-8859-1"?>
<!-- Generator: Adobe Illustrator 16.0.0, SVG Export Plug-In . SVG Version: 6.00 Build 0)  -->
<!DOCTYPE svg PUBLIC "-//W3C//DTD SVG 1.1//EN" "http://www.w3.org/Graphics/SVG/1.1/DTD/svg11.dtd">
<svg version="1.1" xmlns="http://www.w3.org/2000/svg" xmlns:xlink="http://www.w3.org/1999/xlink" x="0px" y="0px" width="25px"
	 height="25px" viewBox="0 0 25 25" style="enable-background:new 0 0 25 25;" xml:space="preserve">
<g id="&#x56FE;&#x5C42;_2">
</g>
<g id="&#x56FE;&#x5C42;_1">
	<g id="PLAY">
		<g>
			<path style="fill-rule:evenodd;clip-rule:evenodd;fill:#1584C8;" d="M21.963,10.483L5.369,0.342
				C5.364,0.338,5.356,0.334,5.353,0.33l-0.01-0.003C5.005,0.118,4.61,0,4.189,0C2.937,0,1.923,1.05,1.923,2.344v20.313
				C1.923,23.95,2.937,25,4.189,25c0.421,0,0.815-0.12,1.153-0.326l0.01-0.005c0.004-0.003,0.012-0.007,0.017-0.011l16.594-10.141
				c0.667-0.408,1.114-1.16,1.114-2.018C23.077,11.642,22.63,10.891,21.963,10.483z"/>
		</g>
	</g>
</g>
</svg>
