<?xml version="1.0" encoding="iso-8859-1"?>
<!-- Generator: Adobe Illustrator 16.0.0, SVG Export Plug-In . SVG Version: 6.00 Build 0)  -->
<!DOCTYPE svg PUBLIC "-//W3C//DTD SVG 1.1//EN" "http://www.w3.org/Graphics/SVG/1.1/DTD/svg11.dtd">
<svg version="1.1" xmlns="http://www.w3.org/2000/svg" xmlns:xlink="http://www.w3.org/1999/xlink" x="0px" y="0px" width="25px"
	 height="25px" viewBox="0 0 25 25" style="enable-background:new 0 0 25 25;" xml:space="preserve">
<g id="&#x56FE;&#x5C42;_2">
</g>
<g id="&#x56FE;&#x5C42;_1">
	<g id="&#x692D;&#x5706;_29">
		<g>
			<path style="fill-rule:evenodd;clip-rule:evenodd;fill:#1685C8;" d="M19.506,19.506c-3.945,3.945-10.279,4.007-14.148,0.138
				c-0.884-0.884-1.543-1.902-2.015-2.985l3.864-0.001v-1.739l-5.372,0.001v-0.001H0.035v0.001H0.011v1.739h0.024l0.001,5.218h1.799
				l-0.001-4.509c0.547,1.257,1.307,2.44,2.332,3.466c4.514,4.517,11.908,4.444,16.509-0.16c1.447-1.447,2.445-3.172,2.994-4.996
				l-1.765,0.025C21.412,17.087,20.619,18.393,19.506,19.506z M24.953,8.508V3.29h-1.797v4.309
				c-0.547-1.245-1.305-2.415-2.322-3.432C16.318-0.349,8.928-0.276,4.326,4.325C2.877,5.773,1.879,7.499,1.33,9.323l1.764-0.025
				c0.494-1.385,1.287-2.692,2.4-3.805c3.945-3.945,10.28-4.006,14.147-0.135c0.93,0.928,1.61,2.005,2.085,3.151L17.783,8.51v1.74
				l5.373-0.001v0.001h1.797v-0.001h0.027v-1.74H24.953z"/>
		</g>
	</g>
</g>
</svg>
