<?xml version="1.0" encoding="iso-8859-1"?>
<!-- Generator: Adobe Illustrator 16.0.0, SVG Export Plug-In . SVG Version: 6.00 Build 0)  -->
<!DOCTYPE svg PUBLIC "-//W3C//DTD SVG 1.1//EN" "http://www.w3.org/Graphics/SVG/1.1/DTD/svg11.dtd">
<svg version="1.1" xmlns="http://www.w3.org/2000/svg" xmlns:xlink="http://www.w3.org/1999/xlink" x="0px" y="0px" width="25px"
	 height="25px" viewBox="0 0 25 25" style="enable-background:new 0 0 25 25;" xml:space="preserve">
<g id="&#x56FE;&#x5C42;_2">
</g>
<g id="&#x56FE;&#x5C42;_1">
	<g id="&#x77E9;&#x5F62;_2">
		<g>
			<path style="fill-rule:evenodd;clip-rule:evenodd;fill:#6DBB58;" d="M0,18.592c0,1.813,1.485,3.283,3.316,3.283H20.72
				c1.831,0,3.312-1.471,3.312-3.283v-0.139H0V18.592z M19.89,3.125H4.143c-0.381,0-0.69,0.307-0.69,0.684v10.266
				c0,1.512,1.237,2.736,2.764,2.736h9.944c1.525,0,2.763-1.225,2.763-2.736v-0.685h0.967c2.823,0,5.11-2.267,5.11-5.064V8.189
				C25,5.392,22.713,3.125,19.89,3.125z M22.514,8.325c0,1.437-1.176,2.6-2.624,2.6h-0.967V5.589h0.967
				c1.448,0,2.624,1.164,2.624,2.6V8.325z"/>
		</g>
	</g>
</g>
</svg>
