<?xml version="1.0" encoding="iso-8859-1"?>
<!-- Generator: Adobe Illustrator 16.0.0, SVG Export Plug-In . SVG Version: 6.00 Build 0)  -->
<!DOCTYPE svg PUBLIC "-//W3C//DTD SVG 1.1//EN" "http://www.w3.org/Graphics/SVG/1.1/DTD/svg11.dtd">
<svg version="1.1" xmlns="http://www.w3.org/2000/svg" xmlns:xlink="http://www.w3.org/1999/xlink" x="0px" y="0px" width="25px"
	 height="25px" viewBox="0 0 25 25" style="enable-background:new 0 0 25 25;" xml:space="preserve">
<g id="&#x56FE;&#x5C42;_2">
</g>
<g id="&#x56FE;&#x5C42;_1">
	<g id="&#x56FE;&#x5C42;_1_2_">
		<g id="&#x56FE;&#x5C42;_1_1_">
			<g id="Shape_3">
				<g>
					<path style="fill:#538AB5;" d="M24.293,21.443l-5.933-5.982c-0.069-0.068-0.144-0.124-0.219-0.182
						c1.002-1.549,1.588-3.396,1.588-5.386C19.729,4.428,15.338,0,9.916,0C4.498,0,0.102,4.428,0.102,9.893
						c0,5.466,4.396,9.896,9.814,9.896c1.973,0,3.808-0.591,5.349-1.602c0.057,0.076,0.106,0.148,0.176,0.219l5.932,5.984
						C21.778,24.8,22.304,25,22.834,25c0.529,0,1.058-0.2,1.462-0.609C25.099,23.578,25.099,22.258,24.293,21.443z M9.916,16.664
						c-3.703,0-6.717-3.036-6.717-6.771c0-3.731,3.014-6.768,6.717-6.768c3.7,0,6.713,3.038,6.713,6.768
						C16.629,13.628,13.615,16.664,9.916,16.664z"/>
				</g>
			</g>
		</g>
	</g>
</g>
</svg>


