<?xml version="1.0" encoding="iso-8859-1"?>
<!-- Generator: Adobe Illustrator 16.0.0, SVG Export Plug-In . SVG Version: 6.00 Build 0)  -->
<!DOCTYPE svg PUBLIC "-//W3C//DTD SVG 1.1//EN" "http://www.w3.org/Graphics/SVG/1.1/DTD/svg11.dtd">
<svg version="1.1" id="&#x56FE;&#x5C42;_1" xmlns="http://www.w3.org/2000/svg" xmlns:xlink="http://www.w3.org/1999/xlink" x="0px"
	 y="0px" width="22px" height="22px" viewBox="0 0 22 22" style="enable-background:new 0 0 22 22;" xml:space="preserve">
<g id="Shape_3">
	<g>
		<path style="fill-rule:evenodd;clip-rule:evenodd;fill:#559FD7;" d="M19.326,17.752l-4.271-4.309
			c-0.05-0.049-0.104-0.088-0.157-0.129c0.722-1.115,1.144-2.446,1.144-3.878c0-3.935-3.163-7.124-7.067-7.124
			c-3.902,0-7.067,3.189-7.067,7.124c0,3.935,3.165,7.125,7.067,7.125c1.42,0,2.741-0.426,3.85-1.154
			c0.04,0.055,0.077,0.109,0.126,0.158l4.272,4.309c0.292,0.293,0.671,0.439,1.052,0.439s0.761-0.146,1.053-0.439
			C19.906,19.288,19.906,18.338,19.326,17.752z M8.974,14.311c-2.666,0-4.836-2.188-4.836-4.875c0-2.687,2.17-4.874,4.836-4.874
			c2.665,0,4.835,2.188,4.835,4.874C13.809,12.124,11.639,14.311,8.974,14.311z"/>
	</g>
</g>
</svg>
