<?xml version="1.0" encoding="iso-8859-1"?>
<!-- Generator: Adobe Illustrator 16.0.0, SVG Export Plug-In . SVG Version: 6.00 Build 0)  -->
<!DOCTYPE svg PUBLIC "-//W3C//DTD SVG 1.1//EN" "http://www.w3.org/Graphics/SVG/1.1/DTD/svg11.dtd">
<svg version="1.1" xmlns="http://www.w3.org/2000/svg" xmlns:xlink="http://www.w3.org/1999/xlink" x="0px" y="0px" width="30px"
	 height="22px" viewBox="0 0 30 22" style="enable-background:new 0 0 30 22;" xml:space="preserve">
<g id="&#x56FE;&#x5C42;_2">
</g>
<g id="&#x56FE;&#x5C42;_1">
	<g id="Shape_3">
		<g>
			<path style="fill:#5597CB;" d="M23.845,17.708l-4.449-4.488c-0.052-0.051-0.107-0.092-0.163-0.135
				c0.752-1.161,1.191-2.548,1.191-4.04c0-4.099-3.295-7.42-7.361-7.42c-4.064,0-7.361,3.321-7.361,7.42
				c0,4.1,3.297,7.422,7.361,7.422c1.479,0,2.855-0.443,4.011-1.201c0.042,0.057,0.08,0.112,0.131,0.163l4.449,4.489
				c0.306,0.306,0.7,0.457,1.097,0.457s0.793-0.151,1.097-0.457C24.449,19.308,24.449,18.318,23.845,17.708z M13.063,14.123
				c-2.778,0-5.038-2.278-5.038-5.078c0-2.799,2.26-5.076,5.038-5.076c2.774,0,5.035,2.278,5.035,5.076
				C18.098,11.846,15.837,14.123,13.063,14.123z"/>
		</g>
	</g>
</g>
</svg>

