<?xml version="1.0" encoding="iso-8859-1"?>
<!-- Generator: Adobe Illustrator 16.0.0, SVG Export Plug-In . SVG Version: 6.00 Build 0)  -->
<!DOCTYPE svg PUBLIC "-//W3C//DTD SVG 1.1//EN" "http://www.w3.org/Graphics/SVG/1.1/DTD/svg11.dtd">
<svg version="1.1" id="&#x56FE;&#x5C42;_1" xmlns="http://www.w3.org/2000/svg" xmlns:xlink="http://www.w3.org/1999/xlink" x="0px"
	 y="0px" width="22px" height="22px" viewBox="0 0 22 22" style="enable-background:new 0 0 22 22;" xml:space="preserve">
<g id="COG">
	<g>
		<path style="fill-rule:evenodd;clip-rule:evenodd;fill:#1685C8;" d="M18.471,9.062c-0.167-0.581-0.41-1.131-0.715-1.644
			c0.348-0.447,1.542-2.121,0.681-2.947l-0.441-0.447c-0.736-0.706-2.617,0.396-3.074,0.683c-0.54-0.294-1.12-0.527-1.733-0.687
			C13.089,3.459,12.66,1.5,11.448,1.5h-0.485c-1.04,0-1.637,2.026-1.771,2.534C8.588,4.195,8.016,4.43,7.483,4.723
			c-0.421-0.3-2.223-1.494-3.102-0.65L3.915,4.448c-0.767,0.735,0.507,2.674,0.74,3.013C4.36,7.965,4.124,8.505,3.962,9.075
			c-0.509,0.077-2.678,0.479-2.678,1.676v0.465c0,1.037,2.275,1.613,2.69,1.71c0.165,0.564,0.402,1.102,0.697,1.602
			c-0.245,0.367-1.469,2.297-0.709,3.025l0.441,0.354c1,0.957,3.088-0.617,3.088-0.617l-0.098-0.1
			c0.554,0.314,1.153,0.564,1.787,0.734c0.104,0.408,0.704,2.576,1.781,2.576h0.485c1.413,0,1.764-2.529,1.764-2.529l-0.13-0.004
			c0.641-0.158,1.248-0.395,1.812-0.697c0.441,0.283,2.291,1.393,3.029,0.686l0.491-0.473c0.985-0.945-0.618-2.879-0.663-2.932
			c0.305-0.512,0.549-1.061,0.717-1.641c0.551-0.135,2.626-0.705,2.626-1.695v-0.465C21.094,9.438,18.625,9.082,18.471,9.062z
			 M11.191,16.346c-3.077,0-5.571-2.393-5.571-5.343c0-2.952,2.494-5.345,5.571-5.345s5.572,2.393,5.572,5.345
			C16.764,13.954,14.269,16.346,11.191,16.346z M11.191,7.439c-2.052,0-3.714,1.596-3.714,3.563c0,1.968,1.662,3.562,3.714,3.562
			s3.715-1.594,3.715-3.562C14.906,9.035,13.243,7.439,11.191,7.439z M11.191,12.784c-1.025,0-1.857-0.797-1.857-1.781
			c0-0.984,0.832-1.781,1.857-1.781c1.026,0,1.857,0.797,1.857,1.781C13.049,11.987,12.218,12.784,11.191,12.784z"/>
	</g>
</g>
</svg>
