<?xml version="1.0" encoding="iso-8859-1"?>
<!-- Generator: Adobe Illustrator 16.0.0, SVG Export Plug-In . SVG Version: 6.00 Build 0)  -->
<!DOCTYPE svg PUBLIC "-//W3C//DTD SVG 1.1//EN" "http://www.w3.org/Graphics/SVG/1.1/DTD/svg11.dtd">
<svg version="1.1" xmlns="http://www.w3.org/2000/svg" xmlns:xlink="http://www.w3.org/1999/xlink" x="0px" y="0px" width="25px"
	 height="25px" viewBox="0 0 25 25" style="enable-background:new 0 0 25 25;" xml:space="preserve">
<g id="&#x56FE;&#x5C42;_2">
</g>
<g id="&#x56FE;&#x5C42;_1">
	<g id="&#x56FE;&#x5C42;_1_2_">
		<g id="&#x56FE;&#x5C42;_1_1_">
			<g id="COG">
				<g>
					<path style="fill:#2873A5;" d="M21.691,10.053c-0.209-0.734-0.519-1.427-0.9-2.076c0.438-0.564,1.943-2.677,0.859-3.719
						l-0.56-0.564c-0.93-0.889-3.303,0.501-3.878,0.863c-0.682-0.371-1.414-0.666-2.188-0.869c-0.127-0.707-0.668-3.179-2.198-3.179
						h-0.612c-1.313,0-2.065,2.557-2.235,3.199c-0.762,0.204-1.483,0.5-2.157,0.87c-0.53-0.38-2.806-1.888-3.915-0.823L3.321,4.229
						c-0.968,0.928,0.64,3.375,0.934,3.803C3.883,8.668,3.584,9.35,3.38,10.07C2.738,10.167,0,10.675,0,12.184v0.588
						c0,1.309,2.871,2.035,3.394,2.158c0.208,0.713,0.507,1.391,0.88,2.021c-0.309,0.465-1.854,2.902-0.895,3.818l0.556,0.447
						c1.262,1.207,3.898-0.777,3.898-0.777l-0.125-0.127c0.698,0.396,1.456,0.713,2.256,0.928c0.132,0.515,0.888,3.251,2.248,3.251
						h0.612c1.783,0,2.227-3.192,2.227-3.192l-0.164-0.005c0.809-0.198,1.574-0.499,2.286-0.881
						c0.558,0.356,2.894,1.759,3.821,0.866l0.621-0.598c1.242-1.192-0.78-3.634-0.836-3.701c0.385-0.646,0.691-1.338,0.904-2.07
						C22.382,14.739,25,14.02,25,12.77v-0.587C25.002,10.527,21.886,10.078,21.691,10.053z M12.504,19.246
						c-3.884,0-7.032-3.021-7.032-6.743c0-3.726,3.147-6.746,7.032-6.746c3.883,0,7.033,3.02,7.033,6.746
						C19.537,16.227,16.389,19.246,12.504,19.246z M12.504,8.004c-2.589,0-4.689,2.013-4.689,4.497c0,2.483,2.097,4.496,4.689,4.496
						c2.589,0,4.688-2.011,4.688-4.496C17.191,10.019,15.093,8.004,12.504,8.004z M12.504,14.751c-1.294,0-2.345-1.006-2.345-2.248
						s1.051-2.248,2.345-2.248c1.295,0,2.344,1.005,2.344,2.248C14.848,13.745,13.799,14.751,12.504,14.751z"/>
				</g>
			</g>
		</g>
	</g>
</g>
</svg>

