<?xml version="1.0" encoding="iso-8859-1"?>
<!-- Generator: Adobe Illustrator 16.0.0, SVG Export Plug-In . SVG Version: 6.00 Build 0)  -->
<!DOCTYPE svg PUBLIC "-//W3C//DTD SVG 1.1//EN" "http://www.w3.org/Graphics/SVG/1.1/DTD/svg11.dtd">
<svg version="1.1" xmlns="http://www.w3.org/2000/svg" xmlns:xlink="http://www.w3.org/1999/xlink" x="0px" y="0px" width="30px"
	 height="22px" viewBox="0 0 30 22" style="enable-background:new 0 0 30 22;" xml:space="preserve">
<g id="&#x56FE;&#x5C42;_2">
</g>
<g id="&#x56FE;&#x5C42;_1">
	<g id="COG">
		<g>
			<path style="fill:#1F7EBB;" d="M22.187,9.088c-0.164-0.574-0.405-1.116-0.705-1.623c0.343-0.441,1.521-2.093,0.672-2.908
				l-0.436-0.441c-0.727-0.695-2.582,0.392-3.033,0.675c-0.533-0.29-1.105-0.521-1.71-0.679c-0.1-0.553-0.522-2.486-1.719-2.486
				h-0.479c-1.026,0-1.615,1.999-1.748,2.501c-0.596,0.159-1.16,0.391-1.686,0.68C10.928,4.51,9.149,3.331,8.282,4.164l-0.459,0.37
				c-0.757,0.726,0.5,2.639,0.73,2.974c-0.291,0.497-0.524,1.03-0.684,1.593c-0.502,0.076-2.643,0.473-2.643,1.653v0.459
				c0,1.023,2.245,1.592,2.654,1.688c0.163,0.557,0.397,1.087,0.688,1.58c-0.242,0.363-1.45,2.269-0.7,2.986l0.435,0.35
				c0.987,0.944,3.048-0.609,3.048-0.609l-0.097-0.099c0.546,0.31,1.138,0.557,1.763,0.725c0.104,0.402,0.695,2.542,1.758,2.542
				h0.479c1.395,0,1.741-2.496,1.741-2.496l-0.128-0.004c0.632-0.156,1.231-0.39,1.788-0.688c0.435,0.279,2.261,1.375,2.988,0.677
				l0.485-0.467c0.971-0.933-0.61-2.842-0.654-2.894c0.301-0.505,0.541-1.047,0.707-1.619c0.545-0.133,2.592-0.695,2.592-1.673
				v-0.459C24.775,9.458,22.339,9.107,22.187,9.088z M15.003,16.275c-3.037,0-5.498-2.361-5.498-5.272
				c0-2.913,2.461-5.274,5.498-5.274c3.036,0,5.499,2.361,5.499,5.274C20.502,13.915,18.04,16.275,15.003,16.275z M15.003,7.486
				c-2.025,0-3.666,1.574-3.666,3.516c0,1.942,1.64,3.516,3.666,3.516c2.024,0,3.666-1.573,3.666-3.516
				C18.669,9.061,17.027,7.486,15.003,7.486z M15.003,12.761c-1.012,0-1.833-0.787-1.833-1.758s0.821-1.757,1.833-1.757
				s1.832,0.786,1.832,1.757C16.836,11.974,16.016,12.761,15.003,12.761z"/>
		</g>
	</g>
</g>
</svg>
