<?xml version="1.0" encoding="iso-8859-1"?>
<!-- Generator: Adobe Illustrator 16.0.0, SVG Export Plug-In . SVG Version: 6.00 Build 0)  -->
<!DOCTYPE svg PUBLIC "-//W3C//DTD SVG 1.1//EN" "http://www.w3.org/Graphics/SVG/1.1/DTD/svg11.dtd">
<svg version="1.1" xmlns="http://www.w3.org/2000/svg" xmlns:xlink="http://www.w3.org/1999/xlink" x="0px" y="0px" width="25px"
	 height="25px" viewBox="0 0 25 25" style="enable-background:new 0 0 25 25;" xml:space="preserve">
<g id="&#x56FE;&#x5C42;_2">
</g>
<g id="&#x56FE;&#x5C42;_1">
	<g id="&#x56FE;&#x5C42;_1_1_">
		<g id="&#x5706;&#x89D2;&#x77E9;&#x5F62;_24">
			<g>
				<path style="fill:#2578AF;" d="M22.499,1.25h-20C1.121,1.25,0,2.371,0,3.75v17.5c0,1.379,1.121,2.5,2.5,2.5h20
					c1.38,0,2.501-1.121,2.501-2.5V3.75C25,2.371,23.879,1.25,22.499,1.25z M23.75,21.251c0,0.69-0.56,1.249-1.251,1.249h-20
					c-0.691,0-1.249-0.559-1.249-1.249V6.252h22.5V21.251z M23.75,5H1.25V3.75C1.25,3.06,1.808,2.5,2.5,2.5h20
					c0.691,0,1.251,0.56,1.251,1.25V5z"/>
			</g>
		</g>
	</g>
</g>
</svg>
