<?xml version="1.0" encoding="iso-8859-1"?>
<!-- Generator: Adobe Illustrator 16.0.0, SVG Export Plug-In . SVG Version: 6.00 Build 0)  -->
<!DOCTYPE svg PUBLIC "-//W3C//DTD SVG 1.1//EN" "http://www.w3.org/Graphics/SVG/1.1/DTD/svg11.dtd">
<svg version="1.1" xmlns="http://www.w3.org/2000/svg" xmlns:xlink="http://www.w3.org/1999/xlink" x="0px" y="0px" width="30px"
	 height="22px" viewBox="0 0 30 22" style="enable-background:new 0 0 30 22;" xml:space="preserve">
<g id="&#x56FE;&#x5C42;_2">
</g>
<g id="&#x56FE;&#x5C42;_1">
	<g id="&#x5706;&#x89D2;&#x77E9;&#x5F62;_24">
		<g>
			<path style="fill:#1F7EBB;" d="M23.333,1.625H6.666c-1.149,0-2.083,0.934-2.083,2.083v14.584c0,1.149,0.934,2.083,2.083,2.083
				h16.667c1.149,0,2.084-0.934,2.084-2.083V3.708C25.417,2.559,24.482,1.625,23.333,1.625z M24.375,18.293
				c0,0.575-0.466,1.041-1.042,1.041H6.666c-0.576,0-1.041-0.466-1.041-1.041v-12.5h18.75V18.293z M24.375,4.75H5.625V3.708
				c0-0.575,0.465-1.041,1.041-1.041h16.667c0.576,0,1.042,0.466,1.042,1.041V4.75z"/>
		</g>
	</g>
</g>
</svg>
