<?xml version="1.0" encoding="iso-8859-1"?>
<!-- Generator: Adobe Illustrator 16.0.0, SVG Export Plug-In . SVG Version: 6.00 Build 0)  -->
<!DOCTYPE svg PUBLIC "-//W3C//DTD SVG 1.1//EN" "http://www.w3.org/Graphics/SVG/1.1/DTD/svg11.dtd">
<svg version="1.1" xmlns="http://www.w3.org/2000/svg" xmlns:xlink="http://www.w3.org/1999/xlink" x="0px" y="0px" width="30px"
	 height="22px" viewBox="0 0 30 22" style="enable-background:new 0 0 30 22;" xml:space="preserve">
<g id="&#x56FE;&#x5C42;_2">
</g>
<g id="&#x56FE;&#x5C42;_1">
	<g id="LOGOUT">
		<g>
			<path style="fill:#1F7EBB;" d="M12.948,18.21H8.843V3.787h4.105c0.567,0,1.027-0.484,1.027-1.082c0-0.599-0.459-1.08-1.027-1.08
				H7.816c-0.566,0-1.028,0.483-1.028,1.08v16.59c0,0.598,0.461,1.08,1.028,1.08h5.132c0.567,0,1.027-0.484,1.027-1.08
				C13.976,18.698,13.516,18.21,12.948,18.21z M23.212,10.998c0-0.318-0.131-0.604-0.34-0.805h0.001l-3.422-3.244
				C19.27,6.776,19.029,6.67,18.765,6.67c-0.567,0-1.027,0.486-1.027,1.083c0,0.318,0.132,0.604,0.341,0.805l1.434,1.359H13.29
				c-0.566,0-1.027,0.483-1.027,1.079s0.46,1.085,1.027,1.085h6.222l-1.434,1.359c-0.209,0.196-0.341,0.483-0.341,0.804
				c0,0.598,0.459,1.08,1.027,1.08c0.265,0,0.505-0.104,0.687-0.276l3.422-3.248h-0.001C23.081,11.604,23.212,11.318,23.212,10.998z
				"/>
		</g>
	</g>
</g>
</svg>
