<?xml version="1.0" encoding="iso-8859-1"?>
<!-- Generator: Adobe Illustrator 16.0.0, SVG Export Plug-In . SVG Version: 6.00 Build 0)  -->
<!DOCTYPE svg PUBLIC "-//W3C//DTD SVG 1.1//EN" "http://www.w3.org/Graphics/SVG/1.1/DTD/svg11.dtd">
<svg version="1.1" xmlns="http://www.w3.org/2000/svg" xmlns:xlink="http://www.w3.org/1999/xlink" x="0px" y="0px" width="25px"
	 height="25px" viewBox="0 0 25 25" style="enable-background:new 0 0 25 25;" xml:space="preserve">
<g id="&#x56FE;&#x5C42;_2">
</g>
<g id="&#x56FE;&#x5C42;_1">
	<g id="&#x56FE;&#x5C42;_1_1_">
		<g id="LOGOUT">
			<g>
				<path style="fill:#2578AF;" d="M9.764,22.113H4.291V2.883h5.474c0.756,0,1.369-0.645,1.369-1.443c0-0.799-0.612-1.44-1.369-1.44
					H2.921C2.167,0,1.551,0.644,1.551,1.44v22.121C1.551,24.357,2.166,25,2.921,25h6.843c0.756,0,1.369-0.646,1.369-1.439
					C11.136,22.764,10.521,22.113,9.764,22.113z M23.449,12.498c0-0.424-0.175-0.806-0.453-1.074h0.001l-4.563-4.325
					c-0.242-0.231-0.563-0.373-0.914-0.373c-0.756,0-1.369,0.648-1.369,1.444c0,0.424,0.176,0.806,0.454,1.074l1.913,1.812H10.22
					c-0.753,0-1.369,0.644-1.369,1.438c0,0.794,0.612,1.447,1.369,1.447h8.296l-1.911,1.811c-0.279,0.262-0.456,0.645-0.456,1.074
					c0,0.797,0.612,1.439,1.37,1.439c0.354,0,0.674-0.139,0.916-0.369l4.563-4.33h-0.001C23.274,13.305,23.449,12.924,23.449,12.498
					z"/>
			</g>
		</g>
	</g>
</g>
</svg>
