<?xml version="1.0" encoding="iso-8859-1"?>
<!-- Generator: Adobe Illustrator 16.0.0, SVG Export Plug-In . SVG Version: 6.00 Build 0)  -->
<!DOCTYPE svg PUBLIC "-//W3C//DTD SVG 1.1//EN" "http://www.w3.org/Graphics/SVG/1.1/DTD/svg11.dtd">
<svg version="1.1" id="&#x56FE;&#x5C42;_1" xmlns="http://www.w3.org/2000/svg" xmlns:xlink="http://www.w3.org/1999/xlink" x="0px"
	 y="0px" width="22px" height="22px" viewBox="0 0 22 22" style="enable-background:new 0 0 22 22;" xml:space="preserve">
<g id="LOGOUT">
	<g>
		<path style="fill-rule:evenodd;clip-rule:evenodd;fill:#1685C8;" d="M13.741,11.038c0.166-0.157,0.27-0.384,0.27-0.637
			s-0.104-0.479-0.27-0.637h0.001l-2.709-2.569c-0.144-0.137-0.334-0.22-0.543-0.22c-0.449,0-0.813,0.384-0.813,0.856
			c0,0.253,0.104,0.479,0.269,0.637l1.135,1.076H6.156c-0.448,0-0.813,0.384-0.813,0.856s0.364,0.856,0.813,0.856h4.925
			l-1.135,1.077c-0.165,0.156-0.269,0.383-0.269,0.637c0,0.473,0.363,0.855,0.813,0.855c0.209,0,0.399-0.082,0.543-0.219
			L13.741,11.038L13.741,11.038z M17.531,2.979h-4.063c-0.449,0-0.813,0.383-0.813,0.856c0,0.473,0.363,0.856,0.813,0.856h3.25
			V16.11h-3.25c-0.449,0-0.813,0.385-0.813,0.857s0.363,0.855,0.813,0.855h4.063c0.448,0,0.813-0.383,0.813-0.855V3.836
			C18.344,3.362,17.979,2.979,17.531,2.979z"/>
	</g>
</g>
</svg>
