<?xml version="1.0" encoding="iso-8859-1"?>
<!-- Generator: Adobe Illustrator 16.0.0, SVG Export Plug-In . SVG Version: 6.00 Build 0)  -->
<!DOCTYPE svg PUBLIC "-//W3C//DTD SVG 1.1//EN" "http://www.w3.org/Graphics/SVG/1.1/DTD/svg11.dtd">
<svg version="1.1" xmlns="http://www.w3.org/2000/svg" xmlns:xlink="http://www.w3.org/1999/xlink" x="0px" y="0px" width="30px"
	 height="22px" viewBox="0 0 30 22" style="enable-background:new 0 0 30 22;" xml:space="preserve">
<g id="&#x56FE;&#x5C42;_2">
</g>
<g id="&#x56FE;&#x5C42;_1">
	<g id="LOGOUT">
		<g>
			<path style="fill:#1F7EBB;" d="M17.398,11.806c0.209-0.199,0.34-0.485,0.34-0.806c0-0.318-0.131-0.604-0.34-0.805l0,0
				l-3.421-3.244c-0.183-0.173-0.422-0.278-0.687-0.278c-0.567,0-1.027,0.485-1.027,1.081c0,0.32,0.132,0.606,0.339,0.805
				l1.436,1.359H7.816c-0.566,0-1.028,0.485-1.028,1.082c0,0.596,0.46,1.08,1.028,1.08h6.221l-1.436,1.361
				c-0.207,0.197-0.339,0.483-0.339,0.806c0,0.597,0.459,1.079,1.027,1.079c0.265,0,0.504-0.104,0.687-0.277L17.398,11.806
				L17.398,11.806z M22.186,1.625h-5.133c-0.566,0-1.027,0.483-1.027,1.081c0,0.599,0.457,1.082,1.027,1.082h4.105v14.424h-4.105
				c-0.566,0-1.027,0.487-1.027,1.083c0,0.597,0.457,1.08,1.027,1.08h5.133c0.564,0,1.025-0.483,1.025-1.08V2.708
				C23.211,2.108,22.75,1.625,22.186,1.625z"/>
		</g>
	</g>
</g>
</svg>
