<?xml version="1.0" encoding="iso-8859-1"?>
<!-- Generator: Adobe Illustrator 16.0.0, SVG Export Plug-In . SVG Version: 6.00 Build 0)  -->
<!DOCTYPE svg PUBLIC "-//W3C//DTD SVG 1.1//EN" "http://www.w3.org/Graphics/SVG/1.1/DTD/svg11.dtd">
<svg version="1.1" xmlns="http://www.w3.org/2000/svg" xmlns:xlink="http://www.w3.org/1999/xlink" x="0px" y="0px" width="30px"
	 height="22px" viewBox="0 0 30 22" style="enable-background:new 0 0 30 22;" xml:space="preserve">
<g id="&#x56FE;&#x5C42;_2">
</g>
<g id="&#x56FE;&#x5C42;_1">
	<g id="&#x77E9;&#x5F62;_45">
		<g>
			<path style="fill:#1F7EBB;" d="M14.375,7.875h-3.75v-2.5h3.75v-1.25h-5v5h3.75v2.5h-3.75v1.25h5V7.875z M16.875,9.125h2.5v-1.25
				h-2.5v-2.5h2.5v2.5h1.25v-3.75h-5v8.75h1.25V9.125z M20.625,12.875v-3.75h-1.25v3.75H20.625z M8.125,14.125v1.25h13.75v-1.25
				H8.125z M8.125,17.875h13.75v-1.25H8.125V17.875z"/>
		</g>
	</g>
	<g id="&#x5706;&#x89D2;&#x77E9;&#x5F62;_20">
		<g>
			<path style="fill:#1F7EBB;" d="M21.875,1.625H8.125c-1.38,0-2.5,1.121-2.5,2.5v13.75c0,1.379,1.12,2.5,2.5,2.5h13.75
				c1.379,0,2.5-1.121,2.5-2.5V4.125C24.375,2.746,23.254,1.625,21.875,1.625z M23.125,16.625c0,1.379-1.121,2.5-2.5,2.5H9.375
				c-1.38,0-2.5-1.121-2.5-2.5V5.375c0-1.379,1.12-2.5,2.5-2.5h11.25c1.379,0,2.5,1.121,2.5,2.5V16.625z"/>
		</g>
	</g>
</g>
</svg>
