<?xml version="1.0" encoding="iso-8859-1"?>
<!-- Generator: Adobe Illustrator 16.0.0, SVG Export Plug-In . SVG Version: 6.00 Build 0)  -->
<!DOCTYPE svg PUBLIC "-//W3C//DTD SVG 1.1//EN" "http://www.w3.org/Graphics/SVG/1.1/DTD/svg11.dtd">
<svg version="1.1" id="&#x56FE;&#x5C42;_1" xmlns="http://www.w3.org/2000/svg" xmlns:xlink="http://www.w3.org/1999/xlink" x="0px"
	 y="0px" width="22px" height="22px" viewBox="0 0 22 22" style="enable-background:new 0 0 22 22;" xml:space="preserve">
<g id="&#x77E9;&#x5F62;_45">
	<g>
		<path style="fill-rule:evenodd;clip-rule:evenodd;fill:#1685C8;" d="M9,7H6V5h3V4H5v4h3v2H5v1h4V7z M11,8h2V7h-2V5h2v2h1V4h-4v7h1
			V8z M14,11V8h-1v3H14z M4,12v1h11v-1H4z M4,15h11v-1H4V15z"/>
	</g>
</g>
<g id="&#x5706;&#x89D2;&#x77E9;&#x5F62;_20">
	<g>
		<path style="fill-rule:evenodd;clip-rule:evenodd;fill:#1685C8;" d="M15,2H4C2.896,2,2,2.896,2,4v11c0,1.104,0.896,2,2,2h11
			c1.104,0,2-0.896,2-2V4C17,2.896,16.104,2,15,2z M16,14c0,1.104-0.896,2-2,2H5c-1.104,0-2-0.896-2-2V5c0-1.104,0.896-2,2-2h9
			c1.104,0,2,0.896,2,2V14z"/>
	</g>
</g>
</svg>
