<?xml version="1.0" encoding="iso-8859-1"?>
<!-- Generator: Adobe Illustrator 16.0.0, SVG Export Plug-In . SVG Version: 6.00 Build 0)  -->
<!DOCTYPE svg PUBLIC "-//W3C//DTD SVG 1.1//EN" "http://www.w3.org/Graphics/SVG/1.1/DTD/svg11.dtd">
<svg version="1.1" xmlns="http://www.w3.org/2000/svg" xmlns:xlink="http://www.w3.org/1999/xlink" x="0px" y="0px" width="25px"
	 height="25px" viewBox="0 0 25 25" style="enable-background:new 0 0 25 25;" xml:space="preserve">
<g id="&#x56FE;&#x5C42;_2">
</g>
<g id="&#x56FE;&#x5C42;_1">
	<g id="&#x56FE;&#x5C42;_1_1_">
		<g id="&#x77E9;&#x5F62;_45">
			<g>
				<path style="fill:#2578AF;" d="M11.667,8.333h-5V5h5V3.333H5V10h5v3.333H5V15h6.667V8.333z M15,10h3.333V8.333H15V5h3.333v3.333
					H20v-5h-6.667V15H15V10z M20,15v-5h-1.667v5H20z M3.333,16.667v1.666h18.333v-1.666H3.333z M3.333,21.667h18.333V20H3.333
					V21.667z"/>
			</g>
		</g>
		<g id="&#x5706;&#x89D2;&#x77E9;&#x5F62;_20">
			<g>
				<path style="fill:#2578AF;" d="M21.667,0H3.333C1.494,0,0,1.495,0,3.333v18.333C0,23.505,1.494,25,3.333,25h18.333
					C23.505,25,25,23.505,25,21.667V3.333C25,1.495,23.505,0,21.667,0z M23.333,20c0,1.839-1.494,3.333-3.333,3.333H5
					c-1.84,0-3.333-1.494-3.333-3.333V5C1.667,3.162,3.16,1.667,5,1.667h15c1.839,0,3.333,1.495,3.333,3.333V20z"/>
			</g>
		</g>
	</g>
</g>
</svg>
