<?xml version="1.0" encoding="iso-8859-1"?>
<!-- Generator: Adobe Illustrator 16.0.0, SVG Export Plug-In . SVG Version: 6.00 Build 0)  -->
<!DOCTYPE svg PUBLIC "-//W3C//DTD SVG 1.1//EN" "http://www.w3.org/Graphics/SVG/1.1/DTD/svg11.dtd">
<svg version="1.1" xmlns="http://www.w3.org/2000/svg" xmlns:xlink="http://www.w3.org/1999/xlink" x="0px" y="0px" width="25px"
	 height="25px" viewBox="0 0 25 25" style="enable-background:new 0 0 25 25;" xml:space="preserve">
<g id="&#x56FE;&#x5C42;_2">
</g>
<g id="&#x56FE;&#x5C42;_1">
	<g id="&#x56FE;&#x5C42;_1_1_">
		<g id="&#x692D;&#x5706;_23">
			<g>
				<path style="fill:#2578AF;" d="M24.75,23.334c-0.909-4.464-4.203-8.026-8.48-9.386c2.221-1.3,3.731-3.688,3.731-6.45
					c0-4.14-3.361-7.499-7.501-7.499c-4.142,0-7.501,3.359-7.501,7.499c0,2.761,1.508,5.15,3.73,6.45
					c-4.278,1.359-7.573,4.922-8.479,9.386L0,25.001h1.666l0.319-1.667c1.132-4.771,5.396-8.332,10.516-8.332
					c5.119,0,9.381,3.562,10.514,8.332l0.319,1.667H25L24.75,23.334z M6.666,7.502c0-3.223,2.612-5.834,5.833-5.834
					c3.223,0,5.834,2.611,5.834,5.834c0,3.221-2.611,5.833-5.834,5.833C9.278,13.335,6.666,10.722,6.666,7.502z"/>
			</g>
		</g>
	</g>
</g>
</svg>

