<!-- Generator: Adobe Illustrator 16.0.0, SVG Export Plug-In . SVG Version: 6.00 Build 0)  -->
<!DOCTYPE svg PUBLIC "-//W3C//DTD SVG 1.1//EN" "http://www.w3.org/Graphics/SVG/1.1/DTD/svg11.dtd">
<svg version="1.1" xmlns="http://www.w3.org/2000/svg" xmlns:xlink="http://www.w3.org/1999/xlink" x="0px" y="0px" width="30px"
	 height="22px" viewBox="0 0 30 22" style="enable-background:new 0 0 30 22;" xml:space="preserve">
<g id="&#x56FE;&#x5C42;_2">
</g>
<g id="&#x56FE;&#x5C42;_1">
	<g id="Shape_279_1_">
		<g>
			<path style="fill:#1F7EBB;" d="M29.363,16.886c-0.244-0.675-1.048-0.771-1.721-1.041c-0.737-0.299-1.556-0.645-2.293-0.932
				c-0.212-0.054-0.42-0.109-0.633-0.166c-0.248-0.162-0.492-0.712-0.627-0.984c-0.136-0.019-0.269-0.036-0.402-0.054
				c0.022-0.422,0.295-0.444,0.402-0.77c0.092-0.282,0.008-0.651,0.16-0.914c0.101-0.184,0.337-0.185,0.455-0.341
				c0.107-0.142,0.176-0.39,0.209-0.563c0.059-0.318,0.112-0.754-0.043-1.069c-0.09-0.182-0.146-0.201-0.174-0.419
				c-0.028-0.267,0.084-1.136,0.087-1.325c0.015-0.489,0-0.929-0.126-1.403c0,0-0.146-0.431-0.384-0.561l-0.469-0.077l-0.29-0.258
				c-1.17-0.687-2.423-0.205-3.092,0.054c-0.371,0.115-0.691,0.384-0.923,0.777c-0.006,0.129-0.009,0.236-0.003,0.292
				c0.003,0.028,0.009,0.043,0.012,0.054c0.006,0.014,0.017,0.028,0.028,0.043c0.031,0.056,0.078,0.132,0.131,0.239
				c0.33,0.654,0.231,1.439,0.132,1.976c-0.054,0.263-0.174,0.761-0.438,1.106c-0.066,0.092-0.143,0.166-0.217,0.227
				c0.04,0.418,0.13,0.896,0.392,1.054c0.035,0.021,0.313,0.087,0.313,0.071c0.036,0.382,0.075,0.767,0.112,1.149
				c0.096,0.257,0.328,0.282,0.399,0.643l-0.302,0.069c-0.023,0.047-0.051,0.104-0.08,0.164c0.614,0.244,1.266,0.508,1.898,0.77
				c0.431,0.176,0.853,0.35,1.258,0.515c0.188,0.073,0.386,0.14,0.599,0.209c0.835,0.276,1.876,0.619,2.272,1.714l0.046,0.126v0.131
				c0,0.243,0.008,0.634,0.019,1.049c0.003,0.19,0.012,0.386,0.015,0.581h3.312C29.409,18.422,29.363,17.343,29.363,16.886z
				 M6.876,15.211c0.406-0.165,0.829-0.339,1.256-0.515c0.629-0.259,1.277-0.523,1.886-0.765c-0.031-0.063-0.059-0.12-0.082-0.169
				c-0.136-0.019-0.268-0.036-0.402-0.054c0.021-0.422,0.295-0.444,0.402-0.77c0.094-0.282,0.008-0.651,0.158-0.914
				c0.104-0.184,0.34-0.185,0.457-0.341c0.107-0.142,0.178-0.39,0.21-0.563c0.018-0.093,0.035-0.197,0.045-0.306
				c-0.638-0.563-0.718-1.655-0.772-2.4c-0.007-0.093-0.012-0.178-0.019-0.248c-0.032-0.34,0.115-0.597,0.204-0.751
				c0.018-0.03,0.039-0.069,0.051-0.092c-0.076-0.342-0.13-0.669-0.164-0.983L9.652,6.267L9.362,6.01
				C8.193,5.324,6.94,5.805,6.271,6.063C5.304,6.364,4.693,7.67,5.12,9.602c0.072,0.33-0.189,0.476-0.171,0.657
				c0.037,0.394,0.045,1.338,0.434,1.574c0.036,0.02,0.313,0.085,0.311,0.069c0.038,0.381,0.075,0.767,0.114,1.15
				c0.096,0.255,0.331,0.281,0.397,0.642l-0.298,0.071c-0.134,0.271-0.378,0.82-0.63,0.984c-0.21,0.056-0.42,0.109-0.63,0.163
				C3.91,15.2,3.091,15.549,2.354,15.847c-0.673,0.268-1.478,0.365-1.719,1.04c0,0.457-0.046,1.536-0.033,2.137h3.326
				c0.004-0.197,0.008-0.394,0.014-0.583c0.01-0.414,0.021-0.806,0.021-1.048V17.26l0.044-0.126
				c0.396-1.095,1.437-1.438,2.274-1.714C6.488,15.349,6.691,15.284,6.876,15.211z M22.817,15.92
				c-1.038-0.418-2.183-0.902-3.218-1.307c-0.295-0.077-0.59-0.153-0.885-0.23c-0.352-0.231-0.697-1.001-0.885-1.381
				c-0.189-0.027-0.375-0.053-0.563-0.078c0.027-0.593,0.413-0.623,0.563-1.076c0.132-0.397,0.014-0.916,0.226-1.286
				c0.144-0.258,0.475-0.258,0.638-0.478c0.148-0.201,0.249-0.547,0.295-0.793c0.086-0.445,0.161-1.056-0.062-1.499
				c-0.126-0.252-0.206-0.279-0.244-0.587c-0.043-0.374,0.118-1.596,0.123-1.86c0.017-0.685,0-1.304-0.174-1.969
				c0,0-0.212-0.604-0.543-0.787L17.431,2.48l-0.407-0.36c-1.639-0.963-3.396-0.287-4.336,0.077
				c-1.354,0.423-2.211,2.257-1.611,4.966c0.101,0.461-0.267,0.666-0.243,0.921c0.053,0.553,0.063,1.88,0.611,2.207
				c0.051,0.029,0.436,0.123,0.436,0.097c0.054,0.538,0.107,1.075,0.161,1.613c0.134,0.358,0.461,0.397,0.558,0.901L12.181,13
				c-0.188,0.38-0.533,1.15-0.886,1.381c-0.295,0.079-0.59,0.154-0.885,0.23c-1.033,0.406-2.182,0.89-3.218,1.308
				c-0.943,0.378-2.071,0.515-2.412,1.458c0,0.643-0.064,2.156-0.046,2.998h20.542c0.017-0.839-0.045-2.355-0.045-2.998
				C24.889,16.435,23.76,16.301,22.817,15.92z"/>
		</g>
	</g>
</g>
</svg>
