<?xml version="1.0" encoding="iso-8859-1"?>
<!-- Generator: Adobe Illustrator 16.0.0, SVG Export Plug-In . SVG Version: 6.00 Build 0)  -->
<!DOCTYPE svg PUBLIC "-//W3C//DTD SVG 1.1//EN" "http://www.w3.org/Graphics/SVG/1.1/DTD/svg11.dtd">
<svg version="1.1" xmlns="http://www.w3.org/2000/svg" xmlns:xlink="http://www.w3.org/1999/xlink" x="0px" y="0px" width="25px"
	 height="25px" viewBox="0 0 25 25" style="enable-background:new 0 0 25 25;" xml:space="preserve">
<g id="&#x56FE;&#x5C42;_2">
</g>
<g id="&#x56FE;&#x5C42;_1">
	<g id="huaweiuser">
		<g>
			<path style="fill-rule:evenodd;clip-rule:evenodd;fill:#1685C8;" d="M15.561,10.828c-1.233,0.293-1.525,1.317-1.525,1.317
				c-0.227,0.647,0.006,1.356,0.006,1.356c0.411,1.675,2.439,4.425,2.873,5.003c0.033,0.029,0.057,0.018,0.057,0.018
				c0.047-0.012,0.043-0.053,0.043-0.053l0.001,0.001c0.67-6.145-0.703-7.771-0.703-7.771
				C16.107,10.714,15.561,10.828,15.561,10.828z M12.156,12.543c-0.023,0.02-0.221,0.198-0.452,0.471l-0.003-0.334
				c0,0,0.698-0.513,0.916-2.132c0.434,0.122,0.582-0.495,0.605-0.888c0.025-0.382,0.258-1.567-0.274-1.461
				c0.107-0.791,0.194-1.508,0.154-1.887c-0.133-1.33-1.083-2.719-3.481-2.819c-2.038,0.101-3.361,1.49-3.495,2.82
				c-0.039,0.379,0.04,1.095,0.149,1.888c-0.534-0.107-0.304,1.08-0.28,1.461c0.026,0.393,0.17,1.011,0.607,0.889
				c0.216,1.62,0.914,2.137,0.914,2.137l-0.018,1.721c0,0-0.441,0.262-2.303,1.008c-1.864,0.748-1.28,0.154-2.797,0.885
				C0,17.456,0,20.634,0,20.634h0.001c0,0-0.001,0.001-0.001,0.002c0,0.48,0.404,0.871,0.901,0.871h14.101
				c-0.177-0.284-0.277-0.609-0.321-0.951c0.501-0.285,0.991-0.6,1.23-0.755V19.8c0.034-0.029,0.021-0.055,0.021-0.055
				c-0.007-0.023-0.03-0.032-0.045-0.035h-0.11l-4.565,0.146v0.006c0.323,0.524,0.785,0.972,1.305,1.178
				c-0.098,0.038-0.188,0.069-0.265,0.087c-0.886,0.198-1.735-0.441-2.241-1.265v-0.006l4.435-0.142
				c-0.04-0.072-0.079-0.174-0.116-0.316c0.663-0.002,1.32-0.005,1.625-0.006c0.03,0,0.048-0.028,0.048-0.028
				c0.022-0.034-0.018-0.063-0.018-0.063c-1.449-0.895-3.854-2.126-5.139-2.771c-0.129-0.098-0.248-0.192-0.353-0.286
				c0,0-0.719-0.517-0.77-1.392c-0.091-1.129,1.172-2.255,1.231-2.308h0.004c0.021,0.023,0.243,0.274,0.577,0.685
				c-0.331,0.437-0.659,1.027-0.611,1.623c0.05,0.875,0.771,1.392,0.771,1.392c1.156,1.031,3.957,2.335,4.609,2.631
				c0.008,0.004,0.041,0.014,0.062-0.01c0,0,0.026-0.019,0.013-0.053c-1.755-3.513-4.146-6.188-4.219-6.268H12.156z M9.854,16.633
				c-0.076,0.756,0.239,1.306,0.239,1.306c0.507,0.979,1.471,1.277,1.471,1.277c0.447,0.166,0.893,0.178,0.893,0.178
				c0.014,0.002,0.135,0.004,0.322,0.005c-0.782,0.001-1.488,0.001-1.523-0.005c0,0-0.447-0.012-0.893-0.178
				c0,0-0.964-0.298-1.471-1.277c0,0-0.485-0.823-0.124-1.847C8.768,16.092,9.202,16.305,9.854,16.633z M23.142,16.242
				c0,0,0.728-0.537,0.768-1.397c0.084-1.195-1.229-2.304-1.229-2.304s-2.43,2.696-4.213,6.253h0.003c0,0-0.021,0.043,0.012,0.071
				c0,0,0.032,0.021,0.063,0.003v0.001C19.209,18.563,21.991,17.27,23.142,16.242z M24.867,16.083c0,0-3.963,1.948-6.013,3.215
				c0,0-0.035,0.021-0.021,0.061c0,0,0.018,0.033,0.047,0.033c0.731,0.001,3.509,0.003,3.578-0.009c0,0,0.357-0.013,0.804-0.169
				c0,0,0.987-0.287,1.501-1.315C24.763,17.898,25.22,17.061,24.867,16.083z M18.96,19.71c0,0-0.043,0.008-0.055,0.034
				c0,0-0.009,0.038,0.02,0.058c0.443,0.293,1.799,1.16,2.448,1.329c0,0,1.206,0.376,2.252-1.271L18.96,19.71L18.96,19.71z
				 M20.794,13.502c0,0,0.223-0.809,0.008-1.356c0,0-0.304-1.041-1.54-1.316c0,0-0.356-0.082-0.736-0.13
				c0,0-1.379,1.628-0.708,7.777h0.002c0.004,0.039,0.038,0.045,0.038,0.045c0.042,0.016,0.065-0.022,0.065-0.022V18.5
				C18.368,17.904,20.385,15.168,20.794,13.502z"/>
		</g>
	</g>
</g>
</svg>
