<?xml version="1.0" encoding="iso-8859-1"?>
<!-- Generator: Adobe Illustrator 16.0.0, SVG Export Plug-In . SVG Version: 6.00 Build 0)  -->
<!DOCTYPE svg PUBLIC "-//W3C//DTD SVG 1.1//EN" "http://www.w3.org/Graphics/SVG/1.1/DTD/svg11.dtd">
<svg version="1.1" xmlns="http://www.w3.org/2000/svg" xmlns:xlink="http://www.w3.org/1999/xlink" x="0px" y="0px" width="25px"
	 height="25px" viewBox="0 0 25 25" style="enable-background:new 0 0 25 25;" xml:space="preserve">
<g id="&#x56FE;&#x5C42;_2">
</g>
<g id="&#x56FE;&#x5C42;_1">
	<g id="&#x56FE;&#x5C42;_1_1_">
		<g id="Shape_279_1_">
			<g>
				<path style="fill:#2578AF;" d="M24.97,17.609c-0.212-0.586-0.911-0.669-1.494-0.903c-0.641-0.26-1.352-0.56-1.99-0.81
					c-0.185-0.046-0.364-0.094-0.551-0.144c-0.215-0.141-0.426-0.618-0.544-0.854c-0.118-0.018-0.233-0.032-0.349-0.048
					c0.019-0.366,0.257-0.385,0.349-0.668c0.081-0.245,0.008-0.565,0.14-0.793c0.087-0.161,0.292-0.161,0.395-0.297
					c0.093-0.123,0.152-0.338,0.182-0.489c0.052-0.276,0.098-0.654-0.037-0.928c-0.079-0.158-0.127-0.174-0.152-0.364
					c-0.023-0.231,0.073-0.986,0.076-1.15c0.013-0.425,0-0.807-0.109-1.218c0,0-0.127-0.374-0.333-0.487l-0.406-0.066l-0.253-0.225
					c-1.016-0.596-2.104-0.177-2.685,0.047c-0.321,0.1-0.6,0.333-0.801,0.674C16.401,9,16.398,9.093,16.404,9.142
					c0.002,0.024,0.007,0.037,0.01,0.047c0.005,0.013,0.016,0.024,0.024,0.038c0.026,0.049,0.068,0.114,0.113,0.207
					c0.287,0.568,0.201,1.25,0.115,1.715c-0.047,0.229-0.151,0.661-0.38,0.96c-0.058,0.08-0.125,0.144-0.188,0.197
					c0.034,0.363,0.112,0.778,0.34,0.916c0.03,0.018,0.272,0.075,0.272,0.062c0.03,0.333,0.064,0.667,0.097,0.998
					c0.083,0.224,0.284,0.245,0.346,0.558l-0.261,0.062c-0.021,0.04-0.045,0.09-0.07,0.142c0.533,0.212,1.099,0.441,1.647,0.669
					c0.374,0.152,0.74,0.303,1.092,0.446c0.164,0.063,0.335,0.121,0.52,0.182c0.726,0.24,1.63,0.537,1.973,1.487l0.04,0.109v0.114
					c0,0.211,0.007,0.55,0.017,0.911c0.003,0.164,0.011,0.335,0.014,0.503h2.874C25.009,18.942,24.97,18.006,24.97,17.609z
					 M5.449,16.155c0.353-0.144,0.72-0.294,1.09-0.447c0.546-0.224,1.109-0.454,1.638-0.663c-0.027-0.055-0.051-0.105-0.071-0.147
					c-0.118-0.017-0.233-0.03-0.349-0.047c0.019-0.366,0.256-0.386,0.349-0.669c0.082-0.244,0.007-0.564,0.137-0.793
					c0.091-0.159,0.295-0.16,0.397-0.295c0.093-0.124,0.155-0.339,0.182-0.489c0.016-0.081,0.031-0.171,0.04-0.266
					c-0.554-0.489-0.624-1.437-0.67-2.083C8.184,10.174,8.18,10.1,8.174,10.04c-0.028-0.295,0.1-0.519,0.176-0.652
					c0.016-0.026,0.034-0.06,0.045-0.08C8.329,9.011,8.282,8.727,8.252,8.454L7.858,8.391L7.606,8.167
					C6.592,7.572,5.504,7.99,4.923,8.214c-0.839,0.261-1.37,1.395-0.999,3.072c0.063,0.287-0.164,0.413-0.148,0.57
					c0.032,0.342,0.039,1.162,0.376,1.366c0.031,0.019,0.271,0.074,0.27,0.061c0.033,0.332,0.065,0.667,0.099,0.999
					c0.083,0.221,0.288,0.244,0.345,0.557L4.607,14.9c-0.116,0.235-0.328,0.712-0.547,0.854c-0.183,0.048-0.365,0.094-0.547,0.142
					c-0.64,0.25-1.351,0.553-1.991,0.812C0.939,16.94,0.24,17.024,0.031,17.61c0,0.396-0.04,1.333-0.028,1.854H2.89
					c0.003-0.17,0.007-0.342,0.012-0.505c0.009-0.359,0.019-0.7,0.019-0.911v-0.115l0.038-0.109c0.344-0.95,1.247-1.248,1.974-1.487
					C5.111,16.275,5.288,16.219,5.449,16.155z M19.286,16.771c-0.9-0.362-1.895-0.783-2.792-1.134
					c-0.257-0.067-0.514-0.133-0.77-0.2c-0.306-0.2-0.604-0.869-0.768-1.198c-0.164-0.024-0.326-0.046-0.489-0.068
					c0.023-0.515,0.359-0.541,0.489-0.934c0.114-0.345,0.012-0.795,0.195-1.117c0.126-0.224,0.412-0.224,0.555-0.415
					c0.128-0.175,0.215-0.475,0.256-0.688c0.075-0.386,0.14-0.917-0.054-1.301c-0.109-0.219-0.179-0.242-0.212-0.51
					C15.659,8.88,15.8,7.82,15.804,7.591c0.016-0.595,0-1.132-0.151-1.709c0,0-0.184-0.524-0.471-0.684l-0.57-0.094l-0.354-0.313
					c-1.423-0.836-2.948-0.249-3.764,0.066C9.318,5.225,8.575,6.817,9.096,9.169c0.087,0.4-0.232,0.578-0.211,0.799
					c0.046,0.48,0.055,1.632,0.53,1.916c0.044,0.025,0.378,0.106,0.378,0.084c0.047,0.467,0.093,0.933,0.14,1.4
					c0.116,0.311,0.4,0.345,0.484,0.783l-0.364,0.085c-0.163,0.33-0.463,0.998-0.769,1.198c-0.256,0.069-0.512,0.134-0.768,0.2
					c-0.897,0.353-1.895,0.772-2.794,1.136c-0.818,0.328-1.797,0.446-2.094,1.266c0,0.558-0.056,1.871-0.04,2.603h17.832
					c0.016-0.729-0.039-2.045-0.039-2.603C21.085,17.219,20.105,17.102,19.286,16.771z"/>
			</g>
		</g>
	</g>
</g>
</svg>

