<?xml version="1.0" encoding="iso-8859-1"?>
<!-- Generator: Adobe Illustrator 16.0.0, SVG Export Plug-In . SVG Version: 6.00 Build 0)  -->
<!DOCTYPE svg PUBLIC "-//W3C//DTD SVG 1.1//EN" "http://www.w3.org/Graphics/SVG/1.1/DTD/svg11.dtd">
<svg version="1.1" xmlns="http://www.w3.org/2000/svg" xmlns:xlink="http://www.w3.org/1999/xlink" x="0px" y="0px" width="25px"
	 height="25px" viewBox="0 0 25 25" style="enable-background:new 0 0 25 25;" xml:space="preserve">
<g id="&#x56FE;&#x5C42;_2">
</g>
<g id="&#x56FE;&#x5C42;_1">
	<g id="&#x56FE;&#x5C42;_1_1_">
		<g id="FOLLOWING">
			<g>
				<path style="fill:#2578AF;" d="M16.981,21.036c0,0-0.598,0.314-0.598-2.819c0-1.356,0.114-1.154-1.105-2.245
					c-0.306-0.099,0.063,0.009-0.393-0.182c-0.614-0.254-1.333-1.104-1.333-1.104l-0.02-1.979c0,0,0.808-0.591,1.057-2.466
					c0.505,0.143,0.673-0.573,0.701-1.024c0.032-0.441,0.3-1.813-0.316-1.69c0.126-0.914,0.226-1.741,0.18-2.182
					c-0.155-1.538-1.253-3.144-4.026-3.262C8.771,2.199,7.24,3.806,7.087,5.345C7.04,5.784,7.132,6.611,7.259,7.527
					c-0.616-0.126-0.353,1.246-0.325,1.69c0.029,0.451,0.197,1.17,0.701,1.027c0.252,1.874,1.058,2.471,1.058,2.471l-0.02,1.989
					c0,0-0.51,0.304-2.665,1.168c-2.155,0.863-1.479,0.178-3.234,1.021C0,18.231,0,21.905,0,21.905h0.001v0.002
					c0,0.557,0.466,1.009,1.042,1.009H17.35c-0.261-0.418-0.42-0.896-0.42-1.41C16.93,21.345,16.953,21.19,16.981,21.036z
					 M24.56,17.219l-3.534-3.287c-0.273-0.256-0.651-0.413-1.069-0.413c-0.837,0-1.516,0.629-1.516,1.408
					c0,0.392,0.172,0.744,0.445,0.998c0,0,2.335,1.43,2.335,2.261c0,0.867-2.335,2.324-2.335,2.324
					c-0.273,0.258-0.445,0.61-0.445,0.996c0,0.778,0.679,1.412,1.516,1.412c0.418,0,0.796-0.158,1.069-0.412l3.534-3.29
					C24.831,18.959,25,18.606,25,18.22C25,17.826,24.831,17.475,24.56,17.219z"/>
			</g>
		</g>
	</g>
</g>
</svg>

