<?xml version="1.0" encoding="iso-8859-1"?>
<!-- Generator: Adobe Illustrator 16.0.0, SVG Export Plug-In . SVG Version: 6.00 Build 0)  -->
<!DOCTYPE svg PUBLIC "-//W3C//DTD SVG 1.1//EN" "http://www.w3.org/Graphics/SVG/1.1/DTD/svg11.dtd">
<svg version="1.1" xmlns="http://www.w3.org/2000/svg" xmlns:xlink="http://www.w3.org/1999/xlink" x="0px" y="0px" width="30px"
	 height="22px" viewBox="0 0 30 22" style="enable-background:new 0 0 30 22;" xml:space="preserve">
<g id="&#x56FE;&#x5C42;_2">
</g>
<g id="&#x56FE;&#x5C42;_1">
	<g id="&#x692D;&#x5706;_27">
		<g>
			<path style="fill-rule:evenodd;clip-rule:evenodd;fill:#C5E2F5;" d="M15,1.625c-5.178,0-9.375,4.197-9.375,9.375
				S9.822,20.375,15,20.375s9.375-4.197,9.375-9.375S20.178,1.625,15,1.625z M21.776,15.039c-0.227-0.655-0.975-0.749-1.6-1.013
				c-0.686-0.289-1.447-0.625-2.132-0.905c-0.195-0.054-0.391-0.106-0.586-0.16c-0.233-0.16-0.462-0.693-0.586-0.959
				c-0.125-0.018-0.249-0.036-0.374-0.053c0.02-0.411,0.273-0.433,0.374-0.746c0.087-0.276,0.009-0.636,0.147-0.892
				c0.097-0.178,0.315-0.179,0.426-0.331c0.099-0.138,0.164-0.379,0.194-0.549c0.057-0.31,0.105-0.732-0.041-1.04
				c-0.084-0.176-0.138-0.194-0.161-0.408c-0.029-0.26,0.077-1.105,0.081-1.289c0.011-0.475-0.001-0.514-0.116-0.976
				c0,0-0.14-0.419-0.358-0.545l-0.437-0.076l-0.27-0.25c-1.086-0.667-2.25-0.199-2.874,0.054c-0.899,0.292-1.467,1.171-1.07,3.05
				c0.068,0.321-0.176,0.464-0.16,0.639c0.035,0.383,0.042,1.304,0.404,1.53c0.033,0.022,0.291,0.086,0.289,0.068
				c0.035,0.373,0.071,0.746,0.107,1.119c0.09,0.248,0.307,0.274,0.37,0.625l-0.278,0.067c-0.125,0.266-0.353,0.799-0.586,0.959
				c-0.196,0.054-0.391,0.106-0.587,0.16c-0.685,0.28-1.446,0.616-2.131,0.905c-0.625,0.264-1.374,0.357-1.6,1.013
				c0,0.241-0.012,0.66-0.021,1.086C7.124,14.698,6.477,12.927,6.477,11c0-4.707,3.816-8.523,8.523-8.523
				c4.707,0,8.522,3.816,8.522,8.523c0,1.927-0.646,3.698-1.725,5.125C21.788,15.699,21.776,15.28,21.776,15.039z"/>
		</g>
	</g>
</g>
</svg>
