<?xml version="1.0" encoding="iso-8859-1"?>
<!-- Generator: Adobe Illustrator 16.0.0, SVG Export Plug-In . SVG Version: 6.00 Build 0)  -->
<!DOCTYPE svg PUBLIC "-//W3C//DTD SVG 1.1//EN" "http://www.w3.org/Graphics/SVG/1.1/DTD/svg11.dtd">
<svg version="1.1" xmlns="http://www.w3.org/2000/svg" xmlns:xlink="http://www.w3.org/1999/xlink" x="0px" y="0px" width="30px"
	 height="22px" viewBox="0 0 30 22" style="enable-background:new 0 0 30 22;" xml:space="preserve">
<g id="&#x56FE;&#x5C42;_2">
</g>
<g id="&#x56FE;&#x5C42;_1">
	<g>
		<path style="fill:#1F7EBB;" d="M21.014,15.78c-1.065-0.431-2.247-0.928-3.31-1.347c-0.303-0.078-0.607-0.158-0.912-0.236
			c-0.359-0.238-0.714-1.03-0.909-1.427c-0.192-0.025-0.385-0.053-0.579-0.077c0.029-0.61,0.424-0.645,0.579-1.11
			c0.137-0.411,0.014-0.945,0.231-1.326c0.151-0.265,0.49-0.265,0.66-0.491c0.153-0.207,0.254-0.563,0.302-0.815
			c0.09-0.46,0.167-1.09-0.063-1.546c-0.131-0.263-0.214-0.289-0.25-0.607c-0.044-0.386,0.119-1.645,0.126-1.916
			c0.016-0.707-0.002-0.762-0.181-1.451c0,0-0.218-0.623-0.557-0.811l-0.678-0.11l-0.417-0.373
			c-1.687-0.995-3.494-0.299-4.462,0.077C9.199,2.646,8.316,3.955,8.932,6.749c0.105,0.478-0.272,0.689-0.247,0.95
			c0.054,0.569,0.064,1.938,0.627,2.276c0.052,0.032,0.452,0.128,0.45,0.102c0.055,0.554,0.11,1.107,0.165,1.662
			c0.14,0.37,0.477,0.411,0.575,0.931l-0.432,0.101c-0.195,0.394-0.549,1.187-0.91,1.425c-0.304,0.079-0.607,0.159-0.91,0.238
			c-1.064,0.418-2.245,0.915-3.311,1.346c-0.971,0.392-2.132,0.531-2.482,1.506c0,0.659-0.066,2.222-0.048,3.09h21.137
			c0.019-0.868-0.048-2.428-0.048-3.089C23.146,16.312,21.985,16.172,21.014,15.78z"/>
		<polygon style="fill:#1F7EBB;" points="26.454,10.116 26.454,10.117 24.17,7.874 23.029,8.995 24.502,10.446 18.521,10.446 
			18.521,12.032 24.502,12.032 23.029,13.482 24.17,14.606 27.595,11.239 		"/>
	</g>
</g>
</svg>
