<?xml version="1.0" encoding="iso-8859-1"?>
<!-- Generator: Adobe Illustrator 16.0.0, SVG Export Plug-In . SVG Version: 6.00 Build 0)  -->
<!DOCTYPE svg PUBLIC "-//W3C//DTD SVG 1.1//EN" "http://www.w3.org/Graphics/SVG/1.1/DTD/svg11.dtd">
<svg version="1.1" xmlns="http://www.w3.org/2000/svg" xmlns:xlink="http://www.w3.org/1999/xlink" x="0px" y="0px" width="25px"
	 height="25px" viewBox="0 0 25 25" style="enable-background:new 0 0 25 25;" xml:space="preserve">
<g id="&#x56FE;&#x5C42;_2">
</g>
<g id="&#x56FE;&#x5C42;_1">
	<g id="user_x2B_">
		<g>
			<path style="fill-rule:evenodd;clip-rule:evenodd;fill:#1685C8;" d="M16.086,20.588c0,0-0.287,0.146-0.451-0.851h-0.503
				c-1.09,0-1.974-0.885-1.974-1.975v-1.315c0-0.443,0.151-0.848,0.397-1.177c-0.392-0.316-0.718-0.698-0.718-0.698l-0.018-1.876
				c0,0,0.764-0.562,1.003-2.336c0.476,0.134,0.638-0.542,0.663-0.973c0.028-0.418,0.283-1.717-0.301-1.6
				c0.118-0.868,0.214-1.653,0.17-2.068c-0.146-1.457-1.187-2.979-3.813-3.089c-2.233,0.11-3.684,1.634-3.83,3.091
				C6.671,6.137,6.756,6.92,6.876,7.789C6.291,7.672,6.543,8.973,6.568,9.39c0.028,0.431,0.187,1.108,0.666,0.975
				c0.236,1.774,1.001,2.341,1.001,2.341l-0.02,1.886c0,0-0.483,0.286-2.523,1.104c-2.042,0.819-1.402,0.17-3.065,0.97
				C0,17.93,0,21.411,0,21.411h0.001c0,0-0.001,0.002-0.001,0.003c0,0.526,0.441,0.955,0.986,0.955h15.449
				c-0.245-0.395-0.396-0.848-0.396-1.336C16.039,20.881,16.06,20.734,16.086,20.588z M24.343,15.789h-3.29V12.5
				c0-0.364-0.296-0.658-0.658-0.658h-1.315c-0.363,0-0.658,0.294-0.658,0.658v3.289h-3.289c-0.364,0-0.658,0.295-0.658,0.658v1.315
				c0,0.364,0.294,0.658,0.658,0.658h3.289v3.29c0,0.363,0.295,0.658,0.658,0.658h1.315c0.362,0,0.658-0.295,0.658-0.658v-3.29h3.29
				c0.363,0,0.657-0.294,0.657-0.658v-1.315C25,16.084,24.706,15.789,24.343,15.789z"/>
		</g>
	</g>
</g>
</svg>
