<?xml version="1.0" encoding="iso-8859-1"?>
<!-- Generator: Adobe Illustrator 16.0.0, SVG Export Plug-In . SVG Version: 6.00 Build 0)  -->
<!DOCTYPE svg PUBLIC "-//W3C//DTD SVG 1.1//EN" "http://www.w3.org/Graphics/SVG/1.1/DTD/svg11.dtd">
<svg version="1.1" xmlns="http://www.w3.org/2000/svg" xmlns:xlink="http://www.w3.org/1999/xlink" x="0px" y="0px" width="30px"
	 height="22px" viewBox="0 0 30 22" style="enable-background:new 0 0 30 22;" xml:space="preserve">
<g id="&#x56FE;&#x5C42;_2">
</g>
<g id="&#x56FE;&#x5C42;_1">
	<g id="&#x692D;&#x5706;_23">
		<g>
			<path style="fill:#1F7EBB;" d="M24.187,19.125c-0.681-3.348-3.152-6.02-6.359-7.039c1.665-0.975,2.798-2.766,2.798-4.837
				c0-3.105-2.52-5.624-5.625-5.624c-3.106,0-5.625,2.519-5.625,5.624c0,2.07,1.131,3.862,2.797,4.837
				c-3.208,1.019-5.679,3.691-6.359,7.039l-0.187,1.25h1.249l0.239-1.25c0.849-3.578,4.046-6.249,7.886-6.249
				c3.839,0,7.035,2.671,7.885,6.249l0.239,1.25h1.25L24.187,19.125z M10.626,7.252c0-2.417,1.959-4.375,4.374-4.375
				c2.417,0,4.375,1.958,4.375,4.375c0,2.415-1.958,4.374-4.375,4.374C12.585,11.626,10.626,9.666,10.626,7.252z"/>
		</g>
	</g>
</g>
</svg>
