<?xml version="1.0" encoding="iso-8859-1"?>
<!-- Generator: Adobe Illustrator 16.0.0, SVG Export Plug-In . SVG Version: 6.00 Build 0)  -->
<!DOCTYPE svg PUBLIC "-//W3C//DTD SVG 1.1//EN" "http://www.w3.org/Graphics/SVG/1.1/DTD/svg11.dtd">
<svg version="1.1" id="&#x56FE;&#x5C42;_1" xmlns="http://www.w3.org/2000/svg" xmlns:xlink="http://www.w3.org/1999/xlink" x="0px"
	 y="0px" width="22px" height="22px" viewBox="0 0 22 22" style="enable-background:new 0 0 22 22;" xml:space="preserve">
<g id="&#x692D;&#x5706;_23">
	<g>
		<path style="fill-rule:evenodd;clip-rule:evenodd;fill:#1685C8;" d="M18.451,16.931c-0.544-2.678-2.521-4.816-5.088-5.631
			c1.333-0.781,2.238-2.213,2.238-3.87c0-2.485-2.015-4.5-4.5-4.5s-4.5,2.015-4.5,4.5c0,1.656,0.905,3.089,2.238,3.87
			c-2.567,0.814-4.544,2.953-5.088,5.631l-0.15,1h1l0.191-1c0.679-2.863,3.237-5,6.309-5s5.629,2.137,6.309,5l0.191,1h1
			L18.451,16.931z M7.602,7.431c0-1.933,1.567-3.5,3.5-3.5s3.5,1.567,3.5,3.5s-1.567,3.5-3.5,3.5S7.602,9.363,7.602,7.431z"/>
	</g>
</g>
</svg>
