<?xml version="1.0" encoding="iso-8859-1"?>
<!-- Generator: Adobe Illustrator 16.0.0, SVG Export Plug-In . SVG Version: 6.00 Build 0)  -->
<!DOCTYPE svg PUBLIC "-//W3C//DTD SVG 1.1//EN" "http://www.w3.org/Graphics/SVG/1.1/DTD/svg11.dtd">
<svg version="1.1" id="&#x56FE;&#x5C42;_1" xmlns="http://www.w3.org/2000/svg" xmlns:xlink="http://www.w3.org/1999/xlink" x="0px"
	 y="0px" width="22px" height="22px" viewBox="0 0 22 22" style="enable-background:new 0 0 22 22;" xml:space="preserve">
<g id="Shape_277_1_">
	<g>
		<path style="fill-rule:evenodd;clip-rule:evenodd;fill:#1685C8;" d="M18.246,16.366c-0.299-0.831-1.29-0.95-2.117-1.284
			c-0.908-0.367-1.917-0.791-2.823-1.148c-0.258-0.067-0.518-0.135-0.776-0.202c-0.308-0.203-0.611-0.879-0.776-1.216
			c-0.165-0.022-0.329-0.045-0.495-0.066c0.025-0.521,0.362-0.55,0.495-0.947c0.116-0.351,0.012-0.806,0.197-1.131
			c0.129-0.226,0.417-0.226,0.563-0.419c0.131-0.175,0.217-0.481,0.258-0.695c0.075-0.393,0.141-0.93-0.055-1.319
			c-0.111-0.224-0.182-0.245-0.213-0.517c-0.038-0.329,0.102-1.402,0.107-1.634c0.014-0.602-0.002-0.65-0.154-1.237
			c0,0-0.185-0.532-0.475-0.691l-0.577-0.095l-0.357-0.317C9.609,2.6,8.068,3.194,7.243,3.513c-1.19,0.37-1.942,1.485-1.417,3.868
			c0.09,0.407-0.232,0.588-0.211,0.81c0.046,0.486,0.055,1.653,0.535,1.941c0.044,0.027,0.385,0.109,0.383,0.087
			c0.047,0.472,0.094,0.944,0.141,1.417c0.119,0.315,0.406,0.35,0.49,0.793l-0.368,0.086c-0.166,0.337-0.468,1.013-0.776,1.216
			c-0.259,0.067-0.518,0.135-0.776,0.202c-0.907,0.357-1.914,0.781-2.823,1.148c-0.828,0.334-1.818,0.453-2.117,1.284
			c0,0.563-0.056,1.895-0.041,2.635h18.024C18.302,18.26,18.246,16.929,18.246,16.366z"/>
	</g>
</g>
<g id="&#x77E9;&#x5F62;_32_2_">
	<g>
		<polygon style="fill-rule:evenodd;clip-rule:evenodd;fill:#1685C8;" points="20.768,10.252 20.767,10.253 18.82,8.34 
			17.847,9.296 19.104,10.533 14.003,10.533 14.003,11.886 19.104,11.886 17.847,13.123 18.82,14.081 21.74,11.21 		"/>
	</g>
</g>
</svg>
