<?xml version="1.0" encoding="iso-8859-1"?>
<!-- Generator: Adobe Illustrator 16.0.0, SVG Export Plug-In . SVG Version: 6.00 Build 0)  -->
<!DOCTYPE svg PUBLIC "-//W3C//DTD SVG 1.1//EN" "http://www.w3.org/Graphics/SVG/1.1/DTD/svg11.dtd">
<svg version="1.1" id="&#x56FE;&#x5C42;_1" xmlns="http://www.w3.org/2000/svg" xmlns:xlink="http://www.w3.org/1999/xlink" x="0px"
	 y="0px" width="22px" height="22px" viewBox="0 0 22 22" style="enable-background:new 0 0 22 22;" xml:space="preserve">
<g id="Shape_279_1_">
	<g>
		<path style="fill-rule:evenodd;clip-rule:evenodd;fill:#1685C8;" d="M21.464,16.458c-0.178-0.491-0.764-0.562-1.254-0.758
			c-0.537-0.217-1.133-0.47-1.67-0.679c-0.154-0.039-0.305-0.079-0.461-0.12c-0.18-0.119-0.359-0.519-0.457-0.717
			c-0.098-0.014-0.195-0.027-0.293-0.04c0.016-0.307,0.215-0.324,0.293-0.56c0.068-0.206,0.006-0.475,0.117-0.666
			c0.074-0.134,0.246-0.135,0.332-0.248c0.078-0.104,0.127-0.284,0.152-0.411c0.043-0.232,0.082-0.549-0.031-0.779
			c-0.066-0.132-0.107-0.146-0.127-0.305c-0.021-0.194,0.061-0.828,0.063-0.965c0.01-0.356,0-0.677-0.092-1.023
			c0,0-0.107-0.313-0.279-0.408l-0.342-0.057l-0.211-0.187c-0.852-0.5-1.764-0.149-2.252,0.039
			c-0.271,0.084-0.504,0.279-0.672,0.566c-0.004,0.095-0.006,0.173-0.002,0.213c0.002,0.021,0.006,0.032,0.008,0.039
			c0.004,0.01,0.012,0.021,0.02,0.032c0.023,0.04,0.057,0.096,0.096,0.173c0.24,0.477,0.168,1.05,0.096,1.44
			c-0.039,0.192-0.127,0.554-0.318,0.806c-0.049,0.067-0.105,0.121-0.158,0.165c0.029,0.304,0.094,0.652,0.285,0.768
			c0.025,0.015,0.227,0.063,0.227,0.051c0.027,0.278,0.055,0.559,0.082,0.838c0.07,0.186,0.24,0.205,0.291,0.468l-0.219,0.051
			c-0.018,0.034-0.037,0.075-0.059,0.119c0.447,0.177,0.922,0.37,1.383,0.56c0.313,0.128,0.621,0.255,0.916,0.375
			c0.137,0.054,0.281,0.102,0.436,0.153c0.609,0.201,1.367,0.451,1.656,1.248l0.033,0.091v0.096c0,0.177,0.006,0.462,0.014,0.764
			c0.002,0.138,0.008,0.281,0.01,0.424h2.412C21.497,17.577,21.464,16.791,21.464,16.458z M5.083,15.238
			c0.296-0.12,0.604-0.247,0.915-0.375c0.458-0.188,0.93-0.381,1.374-0.556c-0.022-0.046-0.043-0.088-0.06-0.123
			c-0.098-0.014-0.195-0.027-0.292-0.04c0.015-0.307,0.214-0.324,0.292-0.56c0.069-0.206,0.007-0.475,0.116-0.666
			c0.076-0.134,0.248-0.135,0.333-0.248c0.078-0.104,0.129-0.284,0.153-0.411c0.013-0.068,0.025-0.144,0.033-0.223
			c-0.465-0.409-0.523-1.205-0.562-1.748c-0.005-0.068-0.009-0.13-0.014-0.181C7.348,9.86,7.455,9.673,7.519,9.561
			C7.532,9.538,7.548,9.51,7.556,9.493C7.501,9.244,7.462,9.006,7.438,8.777L7.105,8.723L6.894,8.536
			c-0.851-0.5-1.764-0.149-2.252,0.039c-0.704,0.219-1.149,1.17-0.838,2.578c0.053,0.239-0.138,0.346-0.125,0.478
			c0.027,0.287,0.033,0.975,0.316,1.146c0.026,0.015,0.228,0.063,0.226,0.051c0.028,0.278,0.055,0.559,0.083,0.838
			c0.07,0.186,0.241,0.205,0.29,0.468l-0.217,0.051c-0.098,0.198-0.276,0.598-0.459,0.717c-0.153,0.041-0.306,0.081-0.459,0.12
			c-0.536,0.209-1.133,0.462-1.67,0.679c-0.49,0.196-1.076,0.267-1.252,0.758c0,0.333-0.033,1.119-0.024,1.556h2.423
			c0.003-0.143,0.006-0.286,0.01-0.424c0.007-0.302,0.015-0.587,0.015-0.764V16.73l0.032-0.091c0.288-0.797,1.047-1.047,1.657-1.248
			C4.801,15.339,4.948,15.292,5.083,15.238z M16.696,15.755c-0.756-0.305-1.59-0.657-2.344-0.952
			c-0.215-0.056-0.43-0.111-0.645-0.168c-0.256-0.168-0.508-0.729-0.645-1.006c-0.137-0.02-0.273-0.038-0.41-0.057
			c0.02-0.432,0.301-0.454,0.41-0.784c0.096-0.289,0.01-0.667,0.164-0.936c0.105-0.188,0.346-0.188,0.465-0.348
			c0.109-0.146,0.182-0.399,0.215-0.578c0.063-0.325,0.117-0.769-0.045-1.092c-0.092-0.184-0.15-0.203-0.178-0.428
			c-0.031-0.272,0.086-1.162,0.09-1.354c0.012-0.499,0-0.95-0.127-1.435c0,0-0.154-0.44-0.395-0.573l-0.479-0.079l-0.297-0.263
			c-1.194-0.701-2.474-0.209-3.159,0.057C8.33,6.067,7.706,7.402,8.142,9.376c0.074,0.336-0.194,0.486-0.176,0.671
			c0.039,0.402,0.046,1.369,0.445,1.607c0.037,0.022,0.318,0.09,0.317,0.071c0.039,0.392,0.078,0.783,0.117,1.175
			c0.099,0.261,0.337,0.289,0.407,0.657l-0.305,0.071c-0.137,0.277-0.388,0.838-0.645,1.006c-0.215,0.057-0.43,0.112-0.645,0.168
			c-0.752,0.295-1.589,0.647-2.344,0.952c-0.687,0.276-1.509,0.375-1.757,1.063c0,0.467-0.046,1.57-0.033,2.183h14.964
			c0.012-0.612-0.033-1.716-0.033-2.183C18.204,16.13,17.382,16.032,16.696,15.755z"/>
	</g>
</g>
</svg>
