<?xml version="1.0" encoding="iso-8859-1"?>
<!-- Generator: Adobe Illustrator 16.0.0, SVG Export Plug-In . SVG Version: 6.00 Build 0)  -->
<!DOCTYPE svg PUBLIC "-//W3C//DTD SVG 1.1//EN" "http://www.w3.org/Graphics/SVG/1.1/DTD/svg11.dtd">
<svg version="1.1" xmlns="http://www.w3.org/2000/svg" xmlns:xlink="http://www.w3.org/1999/xlink" x="0px" y="0px" width="30px"
	 height="22px" viewBox="0 0 30 22" style="enable-background:new 0 0 30 22;" xml:space="preserve">
<g id="&#x56FE;&#x5C42;_2">
</g>
<g id="&#x56FE;&#x5C42;_1">
	<g id="FOLLOWING">
		<g>
			<path style="fill:#1F7EBB;" d="M19.032,18.681c0,0-0.537,0.283-0.537-2.536c0-1.221,0.103-1.04-0.995-2.021
				c-0.276-0.089,0.057,0.008-0.354-0.163c-0.552-0.228-1.199-0.994-1.199-0.994l-0.018-1.781c0,0,0.727-0.532,0.952-2.219
				c0.454,0.128,0.606-0.516,0.631-0.922c0.028-0.397,0.269-1.632-0.285-1.521c0.113-0.823,0.202-1.567,0.162-1.963
				c-0.14-1.384-1.128-2.829-3.624-2.935c-2.121,0.105-3.498,1.551-3.636,2.936c-0.042,0.395,0.041,1.139,0.155,1.964
				C9.73,6.412,9.967,7.647,9.992,8.047c0.026,0.406,0.177,1.052,0.631,0.924c0.227,1.686,0.952,2.224,0.952,2.224l-0.018,1.789
				c0,0-0.459,0.274-2.398,1.051c-1.939,0.778-1.33,0.161-2.91,0.919c-2.497,1.203-2.497,4.509-2.497,4.509h0.001v0.002
				c0,0.501,0.419,0.908,0.938,0.908h14.673c-0.235-0.376-0.377-0.806-0.377-1.27C18.986,18.959,19.007,18.82,19.032,18.681z
				 M25.851,15.246l-3.179-2.958c-0.246-0.229-0.587-0.371-0.963-0.371c-0.753,0-1.363,0.566-1.363,1.267
				c0,0.352,0.154,0.669,0.4,0.898c0,0,2.102,1.286,2.102,2.034c0,0.781-2.102,2.092-2.102,2.092c-0.246,0.231-0.4,0.549-0.4,0.896
				c0,0.701,0.61,1.271,1.363,1.271c0.376,0,0.717-0.142,0.963-0.371l3.179-2.961c0.245-0.23,0.397-0.548,0.397-0.896
				C26.248,15.793,26.096,15.476,25.851,15.246z"/>
		</g>
	</g>
</g>
</svg>
