<?xml version="1.0" encoding="iso-8859-1"?>
<!-- Generator: Adobe Illustrator 16.0.0, SVG Export Plug-In . SVG Version: 6.00 Build 0)  -->
<!DOCTYPE svg PUBLIC "-//W3C//DTD SVG 1.1//EN" "http://www.w3.org/Graphics/SVG/1.1/DTD/svg11.dtd">
<svg version="1.1" xmlns="http://www.w3.org/2000/svg" xmlns:xlink="http://www.w3.org/1999/xlink" x="0px" y="0px" width="25px"
	 height="25px" viewBox="0 0 25 25" style="enable-background:new 0 0 25 25;" xml:space="preserve">
<g id="&#x56FE;&#x5C42;_2">
</g>
<g id="&#x56FE;&#x5C42;_1">
	<g id="&#x56FE;&#x5C42;_1_1_">
		<g>
			<path style="fill:#2578AF;" d="M18.468,17.242c-1.057-0.427-2.229-0.921-3.285-1.335c-0.301-0.078-0.602-0.157-0.905-0.235
				c-0.355-0.236-0.708-1.022-0.902-1.417c-0.189-0.023-0.382-0.052-0.574-0.075c0.029-0.605,0.421-0.641,0.574-1.101
				c0.136-0.409,0.014-0.938,0.229-1.317c0.15-0.262,0.486-0.262,0.654-0.487c0.152-0.206,0.252-0.559,0.301-0.809
				c0.089-0.457,0.166-1.083-0.063-1.535c-0.131-0.261-0.213-0.286-0.248-0.602c-0.044-0.383,0.117-1.633,0.124-1.902
				c0.016-0.702-0.002-0.756-0.179-1.439c0,0-0.216-0.619-0.554-0.805l-0.672-0.109l-0.414-0.37
				C10.88,2.716,9.087,3.406,8.126,3.779C6.742,4.208,5.865,5.508,6.477,8.281c0.104,0.474-0.27,0.684-0.246,0.943
				c0.054,0.564,0.063,1.923,0.623,2.259c0.052,0.031,0.449,0.127,0.447,0.101c0.054,0.55,0.109,1.099,0.163,1.649
				c0.139,0.367,0.474,0.408,0.571,0.923l-0.429,0.101c-0.193,0.391-0.545,1.178-0.903,1.413c-0.302,0.08-0.603,0.159-0.903,0.237
				c-1.056,0.414-2.228,0.908-3.286,1.335c-0.964,0.39-2.116,0.527-2.463,1.496c0,0.653-0.065,2.204-0.047,3.066H20.98
				c0.019-0.862-0.048-2.41-0.048-3.065C20.584,17.771,19.431,17.632,18.468,17.242z"/>
			<polygon style="fill:#2578AF;" points="23.867,11.623 23.867,11.624 21.6,9.397 20.468,10.51 21.93,11.95 15.994,11.95 
				15.994,13.523 21.93,13.523 20.468,14.963 21.6,16.077 25,12.737 			"/>
		</g>
	</g>
</g>
</svg>

