<?xml version="1.0" encoding="iso-8859-1"?>
<!-- Generator: Adobe Illustrator 16.0.0, SVG Export Plug-In . SVG Version: 6.00 Build 0)  -->
<!DOCTYPE svg PUBLIC "-//W3C//DTD SVG 1.1//EN" "http://www.w3.org/Graphics/SVG/1.1/DTD/svg11.dtd">
<svg version="1.1" xmlns="http://www.w3.org/2000/svg" xmlns:xlink="http://www.w3.org/1999/xlink" x="0px" y="0px" width="30px"
	 height="22px" viewBox="0 0 30 22" style="enable-background:new 0 0 30 22;" xml:space="preserve">
<g id="&#x56FE;&#x5C42;_2">
</g>
<g id="&#x56FE;&#x5C42;_1">
	<g id="&#x692D;&#x5706;_27_2_">
		<g>
			<path style="fill-rule:evenodd;clip-rule:evenodd;fill:#C5E2F5;" d="M15,0C8.925,0,4,4.925,4,11s4.925,11,11,11s11-4.925,11-11
				S21.075,0,15,0z M22.735,17.335c-0.391-0.408-1.046-0.54-1.623-0.781c-0.811-0.34-1.709-0.733-2.518-1.063
				c-0.23-0.063-0.461-0.125-0.692-0.188c-0.274-0.188-0.545-0.813-0.691-1.125c-0.147-0.021-0.294-0.042-0.441-0.063
				c0.023-0.481,0.323-0.507,0.441-0.875c0.104-0.324,0.011-0.746,0.175-1.047c0.114-0.209,0.373-0.21,0.502-0.389
				c0.117-0.162,0.194-0.445,0.23-0.644c0.066-0.363,0.125-0.86-0.049-1.221c-0.1-0.207-0.163-0.228-0.19-0.479
				c-0.034-0.305,0.09-1.298,0.096-1.513c0.012-0.557-0.001-0.602-0.137-1.145c0,0-0.165-0.491-0.424-0.64l-0.515-0.088
				l-0.318-0.293C15.299,5,13.925,5.55,13.188,5.846c-1.062,0.343-1.732,1.375-1.264,3.58c0.08,0.377-0.208,0.545-0.188,0.75
				c0.041,0.45,0.05,1.53,0.477,1.797c0.04,0.024,0.343,0.1,0.341,0.079c0.042,0.438,0.084,0.876,0.126,1.313
				c0.107,0.29,0.363,0.322,0.438,0.733l-0.328,0.079c-0.146,0.312-0.417,0.938-0.692,1.125l-0.691,0.188
				c-0.809,0.33-1.707,0.724-2.518,1.063c-0.577,0.241-1.232,0.373-1.623,0.781C5.85,15.61,5,13.405,5,11C5,5.478,9.478,1,15,1
				s10,4.478,10,10C25,13.405,24.15,15.61,22.735,17.335z"/>
		</g>
	</g>
</g>
</svg>
