<?xml version="1.0" encoding="iso-8859-1"?>
<!-- Generator: Adobe Illustrator 16.0.0, SVG Export Plug-In . SVG Version: 6.00 Build 0)  -->
<!DOCTYPE svg PUBLIC "-//W3C//DTD SVG 1.1//EN" "http://www.w3.org/Graphics/SVG/1.1/DTD/svg11.dtd">
<svg version="1.1" xmlns="http://www.w3.org/2000/svg" xmlns:xlink="http://www.w3.org/1999/xlink" x="0px" y="0px" width="25px"
	 height="25px" viewBox="0 0 25 25" style="enable-background:new 0 0 25 25;" xml:space="preserve">
<g id="&#x56FE;&#x5C42;_2">
</g>
<g id="&#x56FE;&#x5C42;_1">
	<g id="&#x56FE;&#x5C42;_1_1_">
		<g id="&#x692D;&#x5706;_27_2_">
			<g>
				<path style="fill:#C3DEF0;" d="M12.5,0C5.596,0,0,5.596,0,12.5C0,19.404,5.596,25,12.5,25C19.402,25,25,19.404,25,12.5
					C25,5.596,19.402,0,12.5,0z M21.289,19.699c-0.445-0.463-1.188-0.613-1.846-0.887c-0.92-0.387-1.941-0.834-2.859-1.209
					c-0.262-0.072-0.525-0.141-0.787-0.213c-0.311-0.213-0.619-0.924-0.785-1.279c-0.166-0.023-0.334-0.047-0.502-0.07
					c0.027-0.547,0.367-0.578,0.502-0.994c0.117-0.369,0.014-0.848,0.199-1.191c0.129-0.236,0.424-0.238,0.57-0.441
					c0.133-0.185,0.221-0.507,0.262-0.732c0.074-0.413,0.143-0.978-0.057-1.388c-0.113-0.235-0.184-0.26-0.215-0.545
					c-0.039-0.346,0.102-1.475,0.107-1.719c0.014-0.633,0-0.684-0.154-1.301c0,0-0.188-0.559-0.482-0.728l-0.586-0.101L14.297,6.57
					c-1.458-0.889-3.019-0.264-3.856,0.074C9.233,7.033,8.473,8.207,9.004,10.71c0.091,0.43-0.236,0.621-0.214,0.854
					c0.047,0.512,0.058,1.738,0.543,2.042c0.045,0.027,0.39,0.115,0.388,0.09c0.048,0.498,0.095,0.996,0.143,1.492
					c0.122,0.33,0.412,0.367,0.498,0.834l-0.373,0.09c-0.166,0.354-0.474,1.066-0.786,1.277l-0.785,0.215
					c-0.919,0.375-1.939,0.822-2.861,1.207c-0.656,0.273-1.4,0.424-1.845,0.887c-1.608-1.959-2.575-4.465-2.575-7.198
					c0-6.274,5.089-11.363,11.364-11.363c6.273,0,11.363,5.089,11.363,11.363C23.863,15.232,22.898,17.738,21.289,19.699z"/>
			</g>
		</g>
	</g>
</g>
</svg>

