<?xml version="1.0" encoding="iso-8859-1"?>
<!-- Generator: Adobe Illustrator 16.0.0, SVG Export Plug-In . SVG Version: 6.00 Build 0)  -->
<!DOCTYPE svg PUBLIC "-//W3C//DTD SVG 1.1//EN" "http://www.w3.org/Graphics/SVG/1.1/DTD/svg11.dtd">
<svg version="1.1" id="&#x56FE;&#x5C42;_1" xmlns="http://www.w3.org/2000/svg" xmlns:xlink="http://www.w3.org/1999/xlink" x="0px"
	 y="0px" width="22px" height="22px" viewBox="0 0 22 22" style="enable-background:new 0 0 22 22;" xml:space="preserve">
<g id="FOLLOWING">
	<g>
		<path style="fill-rule:evenodd;clip-rule:evenodd;fill:#1685C8;" d="M14.476,17.334c0,0-0.429,0.227-0.429-2.029
			c0-0.977,0.082-0.832-0.797-1.617c-0.221-0.072,0.046,0.006-0.283-0.131c-0.441-0.182-0.96-0.795-0.96-0.795l-0.014-1.426
			c0,0,0.581-0.426,0.762-1.775c0.363,0.102,0.485-0.412,0.505-0.738c0.022-0.318,0.215-1.305-0.229-1.217
			c0.091-0.659,0.162-1.255,0.13-1.571c-0.111-1.107-0.902-2.264-2.899-2.348c-1.697,0.084-2.799,1.241-2.91,2.349
			C7.319,6.352,7.385,6.947,7.476,7.608c-0.443-0.09-0.253,0.898-0.233,1.217c0.021,0.326,0.142,0.842,0.505,0.74
			c0.181,1.348,0.762,1.779,0.762,1.779l-0.015,1.432c0,0-0.367,0.219-1.919,0.84c-1.551,0.623-1.064,0.129-2.328,0.736
			C2.25,15.315,2.25,17.959,2.25,17.959h0.001v0.002c0,0.4,0.335,0.727,0.75,0.727h11.74c-0.188-0.301-0.302-0.645-0.302-1.016
			C14.439,17.557,14.456,17.446,14.476,17.334z M19.931,14.586l-2.542-2.367c-0.197-0.184-0.47-0.297-0.771-0.297
			c-0.602,0-1.09,0.453-1.09,1.014c0,0.281,0.122,0.535,0.319,0.719c0,0,1.683,1.029,1.683,1.627c0,0.625-1.683,1.674-1.683,1.674
			c-0.197,0.184-0.319,0.438-0.319,0.717c0,0.561,0.488,1.016,1.09,1.016c0.301,0,0.573-0.113,0.771-0.297l2.542-2.369
			c0.197-0.184,0.319-0.438,0.319-0.717C20.25,15.024,20.128,14.77,19.931,14.586z"/>
	</g>
</g>
</svg>
