<?xml version="1.0" encoding="iso-8859-1"?>
<!-- Generator: Adobe Illustrator 16.0.0, SVG Export Plug-In . SVG Version: 6.00 Build 0)  -->
<!DOCTYPE svg PUBLIC "-//W3C//DTD SVG 1.1//EN" "http://www.w3.org/Graphics/SVG/1.1/DTD/svg11.dtd">
<svg version="1.1" xmlns="http://www.w3.org/2000/svg" xmlns:xlink="http://www.w3.org/1999/xlink" x="0px" y="0px" width="25px"
	 height="25px" viewBox="0 0 25 25" style="enable-background:new 0 0 25 25;" xml:space="preserve">
<g id="&#x56FE;&#x5C42;_2">
</g>
<g id="&#x56FE;&#x5C42;_1">
	<g id="&#x56FE;&#x5C42;_1_1_">
		<g id="&#x5706;&#x89D2;&#x77E9;&#x5F62;_23">
			<g>
				<path style="fill:#2578AF;" d="M18.75,8.691V3.75c0-1.381-1.119-2.501-2.5-2.501H2.5C1.121,1.249,0,2.369,0,3.75v17.5
					c0,1.38,1.121,2.501,2.5,2.501h13.75c1.381,0,2.5-1.121,2.5-2.501v-3.694L25,21.25V4.999L18.75,8.691z M17.501,21.252
					c0,0.69-0.561,1.249-1.251,1.249H2.5c-0.692,0-1.25-0.559-1.25-1.249V3.751c0-0.692,0.558-1.25,1.25-1.25h13.75
					c0.69,0,1.251,0.558,1.251,1.25V21.252z M23.751,18.751l-5.001-2.813v-5.625L23.751,7.5V18.751z"/>
			</g>
		</g>
	</g>
</g>
</svg>
